<ttFont>
<head>
    <!-- Most of this table will be recalculated by the compiler -->
    <tableVersion value="1.0"/>
    <fontRevision value="2.004"/>
    <checkSumAdjustment value="0x321e4efc"/>
    <magicNumber value="0x5f0f3cf5"/>
    <flags value="00000000 00000011"/>
    <unitsPerEm value="1000"/>
    <created value="Thu Oct  8 10:02:52 2009"/>
    <modified value="Thu Oct  8 10:02:52 2009"/>
    <xMin value="-441"/>
    <yMin value="-326"/>
    <xMax value="1477"/>
    <yMax value="968"/>
    <macStyle value="00000000 00000000"/>
    <lowestRecPPEM value="3"/>
    <fontDirectionHint value="2"/>
    <indexToLocFormat value="0"/>
    <glyphDataFormat value="0"/>
  </head>
          <CharString index="0">
            717 -80 callgsubr
            -54 hlineto
            -197 550 rlineto
            29 -10 -18 0 -18 hhcurveto
            -19 hlineto
            -17 -19 0 -28 -10 hvcurveto
            -197 -551 rlineto
            -54 -42 callgsubr
            -21 -14 callgsubr
            164 hlineto
            2 callgsubr
            22 -22 0 -11 hvcurveto
            -55 hlineto
            48 133 rlineto
            299 hlineto
            48 -133 rlineto
            -55 1 callsubr
            -21 44 callsubr
            164 -72 callgsubr
            -205 200 rmoveto
            -267 hlineto
            127 357 rlineto
            11 hlineto
            return
          </CharString>
          <CharString index="1">
            9 -12 -16 9 -19 hhcurveto
            -26 -27 -16 -16 -22 hvcurveto
            -19 -14 -28 -21 -15 vvcurveto
            -11 11 -12 12 8 5 4 5 5 vhcurveto
            31 33 30 16 15 hhcurveto
            13 10 -9 -29 31 hvcurveto
            -10 12 16 -8 19 hhcurveto
            return
          </CharString>
          <CharString index="2">
            712 588 rmoveto
            -28 callsubr
            vhcurveto
            -183 -4 callgsubr
            -23 -21 141 callgsubr
            65 -358 hlineto
            -124 -105 -52 -78 -83 -101 55 121 vhcurveto
            358 64 vlineto
            -70 callsubr
            -364 hlineto
            -125 110 -89 126 130 107 91 123 vhcurveto
            364 65 42 callsubr
            hvcurveto
            return
          </CharString>
          <CharString index="3">
            434 103 rmoveto
            20 -22 0 -5 -10 -8 -1 -11 -5 vhcurveto
            -59 -25 -53 -14 -36 hhcurveto
            -81 -78 59 100 -17 hvcurveto
            308 hlineto
            17 15 0 29 117 -64 92 -122 -116 -91 -101 -119 -122 98 -99 125 123 47 84 25 hvcurveto
            -54 137 rmoveto
            -285 hlineto
            93 17 64 58 72 hhcurveto
            56 66 -27 -124 10 hvcurveto
            return
          </CharString>
          <CharString index="4">
            rmoveto
            9 -6 5 -8 7 vhcurveto
            -73 58 rlineto
            7 -8 -4 3 -8 hhcurveto
            -16 -11 -11 -16 -12 8 -6 8 -6 hvcurveto
            72 -58 rlineto
            -7 9 2 -2 7 hhcurveto
            15 13 18 11 hvcurveto
            -212 hmoveto
            9 -5 5 -9 7 vhcurveto
            -72 58 rlineto
            7 -9 -3 3 -9 hhcurveto
            -15 -11 -11 -16 -12 8 -6 8 -6 hvcurveto
            72 -58 rlineto
            -7 8 3 -2 7 hhcurveto
            14 13 18 11 hvcurveto
            endchar
          </CharString>
          <CharString index="5">
            rmoveto
            77 callsubr
          </CharString>
          <CharString index="6">
            -17 callgsubr
            -18 callsubr
            -23 19 -19 23 26 17 21 21 vhcurveto
            return
          </CharString>
          <CharString index="7">
            670 33 rmoveto
            92 -10 callsubr
            -18 -15 vhcurveto
            -81 -423 251 224 vlineto
            -44 0 -15 74 callgsubr
            96 vlineto
            59 callgsubr
            -15 -44 vhcurveto
            -224 228 hlineto
            return
          </CharString>
          <CharString index="8">
            rmoveto
            42 -18 17 -21 -17 -12 -13 -15 -4 1 -24 38 -3 vhcurveto
            -2 -24 -2 -27 -34 -27 rrcurveto
            -3 -4 -5 -5 -5 vvcurveto
            -6 7 -8 8 16 44 43 63 vhcurveto
            endchar
          </CharString>
          <CharString index="9">
            393 -64 hlineto
            -15 0 -18 26 117 callsubr
            -531 hlineto
            -12 -20 -47 callsubr
            -12 -20 -68 callgsubr
            return
          </CharString>
          <CharString index="10">
            705 588 rmoveto
            -28 callsubr
            vhcurveto
            -169 hlineto
            -13 -19 -34 callsubr
            -18 hlineto
            -307 537 rlineto
            30 -18 -25 0 -19 hhcurveto
            -98 -96 callsubr
            169 -77 callgsubr
            -65 523 18 hlineto
            307 -537 rlineto
            -30 18 25 0 19 hhcurveto
            25 8 5 28 hvcurveto
            534 65 42 callsubr
            hvcurveto
            return
          </CharString>
          <CharString index="11">
            21 callgsubr
            65 -523 -64 callsubr
            -39 callgsubr
            return
          </CharString>
          <CharString index="12">
            525 403 rmoveto
            130 callsubr
            vhcurveto
            -145 -48 callsubr
            -22 -39 callgsubr
            55 hlineto
            -113 -347 -136 347 rlineto
            53 -76 callsubr
            -24 callgsubr
            -144 hlineto
            -12 -21 0 -22 44 callgsubr
            48 hlineto
            159 -390 -23 -67 rlineto
            -26 -8 -32 -89 -92 hhcurveto
            -7 -17 6 9 hvcurveto
            3 2 5 8 vvcurveto
            23 -17 13 -18 -23 -14 -14 -22 -40 38 -35 54 91 59 82 61 21 vhcurveto
            162 473 90 callsubr
            return
          </CharString>
          <CharString index="13">
            -104 -107 -10 -38 -103 0 42 35 vhcurveto
            278 vlineto
            24 -4 9 -28 -47 callgsubr
            -272 hlineto
            -108 96 -7 53 67 43 20 32 41 vhcurveto
            return
          </CharString>
          <CharString index="14">
            rmoveto
            12 -11 12 -12 vhcurveto
            hintmask 0000010000000000
            -87 callgsubr
            hintmask 0001001000000000
            -106 callsubr
            hintmask 0000100000000000
            -76 callgsubr
          </CharString>
          <CharString index="15">
            64 callsubr
            hintmask 01100011
            -100 callgsubr
            hintmask 10000100
            -68 callsubr
            hintmask 01000000
            -74 callsubr
            hintmask 10000101
            9 callgsubr
            return
          </CharString>
          <CharString index="16">
            -85 callgsubr
            177 -107 callgsubr
          </CharString>
          <CharString index="17">
            259 22 rmoveto
            22 -20 0 -13 vhcurveto
            -54 349 hlineto
            24 -5 9 -27 vhcurveto
            -81 1 callsubr
            -22 44 callsubr
            -32 callgsubr
            173 -72 callgsubr
            return
          </CharString>
          <CharString index="18">
            374 120 rmoveto
            99 -117 22 -31 5 vhcurveto
            -86 16 -57 15 45 vvcurveto
            36 34 33 84 86 5 -46 -29 3 vhcurveto
            -9 2 4 -9 19 121 callsubr
            71 vlineto
            12 0 21 -22 -14 -5 -10 -15 -5 vhcurveto
            20 -35 -33 5 -30 hhcurveto
            -139 -25 -76 -37 -85 106 -20 86 -16 hvcurveto
            12 -2 rlineto
            39 -10 48 -24 -45 vvcurveto
            -80 -104 -2 -16 -83 -22 55 52 -14 vhcurveto
            7 -3 -5 7 -17 hhcurveto
            116 callgsubr
            hvcurveto
            -99 vlineto
            -13 0 -20 22 20 5 21 21 5 vhcurveto
            return
          </CharString>
          <CharString index="19">
            482 212 rmoveto
            57 -21 54 -46 49 vhcurveto
            40 22 16 36 38 vvcurveto
            26 162 callsubr
            -25 -1 -17 -20 -22 vvcurveto
            -16 10 -16 27 -10 vhcurveto
            -19 -31 -10 -2 -24 -5 rrcurveto
            20 -38 -35 9 -37 hhcurveto
            -58 -57 -24 -42 -41 hvcurveto
            -42 -41 -23 -55 -60 vvcurveto
            -57 24 -56 41 -41 vhcurveto
            -40 41 57 -24 58 hhcurveto
            59 56 24 40 41 hvcurveto
            42 41 23 56 57 vvcurveto
            -52 10 rmoveto
            -48 -17 -47 -33 -34 vhcurveto
            -34 -31 -42 -20 -46 hhcurveto
            -45 -42 20 34 -32 hvcurveto
            -32 34 -17 47 48 vvcurveto
            44 18 43 31 31 vhcurveto
            31 32 43 18 44 hhcurveto
            45 42 -18 -31 32 hvcurveto
            return
          </CharString>
          <CharString index="20">
            53 -12 52 80 52 cntrmask 1110000000000000
            hintmask 1110001010000000
            756 88 123 callgsubr
            -8 -9 -16 0 -22 -39 -29 -16 -26 -61 -4 55 69 52 0 17 -19 28 vhcurveto
            -14 20 -19 14 -39 20 rrcurveto
            hintmask 1111100100000000
            -83 callsubr
            hintmask 1111101010000000
            45 -26 1 -13 -68 vvcurveto
            -59 0 -27 26 -35 vhcurveto
            -25 19 34 -17 39 hhcurveto
            67 40 53 46 hvcurveto
            -184 359 rmoveto
            -68 -112 -51 -116 vhcurveto
            -149 239 149 hlineto
            return
          </CharString>
          <CharString index="21">
            -96 callsubr
            182 -77 callgsubr
            -64 return
          </CharString>
          <CharString index="22">
            rmoveto
            21 -11 21 -19 13 vhcurveto
            13 -20 -20 4 -29 hhcurveto
            -43 -41 -29 -44 -14 5 -5 15 return
          </CharString>
          <CharString index="23">
            rmoveto
            16 -11 11 -16 -8 -4 -3 -7 -8 vhcurveto
            -73 -58 rlineto
            -8 -7 -6 -5 -9 vvcurveto
            -11 13 -18 15 7 2 2 7 9 vhcurveto
            72 58 rlineto
            8 6 8 6 12 vvcurveto
            211 hmoveto
            16 -11 11 -15 -9 -3 -3 -7 -9 vhcurveto
            -72 -58 rlineto
            -9 -7 -5 -5 -9 vvcurveto
            -11 13 -18 14 7 3 2 7 8 vhcurveto
            72 58 rlineto
            8 6 8 6 12 vvcurveto
            endchar
          </CharString>
          <CharString index="24">
            88 38 43 48 53 vvcurveto
            93 -127 71 -144 vhcurveto
            -276 -86 callsubr
            239 156 hlineto
            61 50 -13 -11 23 hvcurveto
            return
          </CharString>
          <CharString index="25">
            699 164 rmoveto
            25 -18 0 -8 -8 -17 0 -22 -1 vhcurveto
            -2 -26 -4 -43 -73 -35 rrcurveto
            -20 -40 -59 -10 -51 hhcurveto
            -180 -128 129 144 144 130 128 176 56 55 52 callgsubr
            4 14 0 7 hhcurveto
            26 0 17 16 hvcurveto
            143 178 callsubr
            -21 -7 -4 -2 -3 -4 vhcurveto
            -14 -25 -4 -8 -14 -31 rrcurveto
            40 -51 -75 29 -96 hhcurveto
            -202 -149 -148 -168 -167 146 -150 207 return
          </CharString>
          <CharString index="26">
            564 -80 callgsubr
            -65 349 hlineto
            24 -5 9 -27 vhcurveto
            -85 -49 callgsubr
            -23 176 callsubr
            -229 hlineto
            return
          </CharString>
          <CharString index="27">
            0 44 239 45 239 44 100 callgsubr
            96 53 187 53 -12 52 80 52 cntrmask 11100000
            hintmask 11100101
            756 88 123 callgsubr
            -8 -9 -16 0 -22 -39 -29 -16 -26 -61 -4 55 69 52 0 17 -19 28 vhcurveto
            -14 20 -19 14 -39 20 rrcurveto
            hintmask 11111010
            -83 callsubr
            hintmask 11111101
            45 -26 1 -13 -68 vvcurveto
            -59 0 -27 26 -35 vhcurveto
            -25 19 34 -17 39 hhcurveto
            67 40 53 46 hvcurveto
            -184 359 rmoveto
            -68 -112 -51 -116 vhcurveto
            -149 239 149 hlineto
            hintmask 11100010
            65 callgsubr
            return
          </CharString>
          <CharString index="28">
            720 25 callgsubr
            -618 hlineto
            -27 -6 -6 -27 hvcurveto
            -75 vlineto
            -15 0 -18 26 26 91 callgsubr
            64 263 -523 -105 vlineto
            49 callgsubr
            263 hlineto
            2 callgsubr
            22 71 callgsubr
            -105 523 262 -64 hlineto
            -15 0 -18 26 27 91 callgsubr
            return
          </CharString>
          <CharString index="29">
            596 39 callgsubr
            -26 -26 163 callsubr
            -81 -348 523 90 12 callsubr
            -207 hlineto
            -13 -19 -47 callsubr
            -13 -19 0 -22 -22 20 0 12 hvcurveto
            485 66 callgsubr
            return
          </CharString>
          <CharString index="30">
            693 654 rmoveto
            27 -9 32 -33 1 vhcurveto
            -25 163 callgsubr
            -16 8 -15 24 -13 vhcurveto
            -17 -17 -19 0 -11 hhcurveto
            -110 hlineto
            -14 -5 -14 -9 hvcurveto
            -10 1 7 -11 11 hhcurveto
            77 -366 hlineto
            -45 -19 -43 -34 -30 vhcurveto
            -33 -35 -46 -17 -49 hhcurveto
            -49 -46 17 33 -35 hvcurveto
            -34 30 -19 43 45 vvcurveto
            366 77 vlineto
            11 7 11 10 1 hvcurveto
            9 -5 14 -14 vhcurveto
            -207 hlineto
            -13 -7 -11 -12 hvcurveto
            -11 1 8 -10 11 hhcurveto
            return
          </CharString>
          <CharString index="31">
            -56 callgsubr
            22 return
          </CharString>
          <CharString index="32">
            rmoveto
            8 -4 8 -9 3 vhcurveto
            -122 44 -4 1 -6 0 -4 -1 rlinecurve
            -122 -44 rlineto
            -9 -3 -4 -8 -8 vvcurveto
            -11 8 -11 11 3 2 0 1 3 vhcurveto
            115 35 115 -35 rlineto
            -1 3 2 0 3 hhcurveto
            11 8 11 11 hvcurveto
            29 185 -67 callgsubr
          </CharString>
          <CharString index="33">
            -36 25 40 -1 41 hhcurveto
            22 19 0 23 hvcurveto
            -151 106 rmoveto
            -26 0 -27 -46 -21 vhcurveto
            return
          </CharString>
          <CharString index="34">
            588 33 rmoveto
            95 vlineto
            75 callsubr
            -16 vhcurveto
            -84 -405 vlineto
            447 522 rlineto
            4 5 1 4 10 vvcurveto
            26 -18 0 -15 vhcurveto
            -441 hlineto
            -27 -6 -6 -27 hvcurveto
            -75 vlineto
            -15 0 -18 26 26 91 callgsubr
            64 384 vlineto
            -447 -522 rlineto
            -4 -5 -1 -4 -10 vvcurveto
            -26 18 0 15 vhcurveto
            464 hlineto
            26 6 7 26 hvcurveto
            return
          </CharString>
          <CharString index="35">
            269 95 callsubr
            -62 callsubr
            hvcurveto
            return
          </CharString>
          <CharString index="36">
            rmoveto
            -22 -35 -17 -33 -37 -31 18 21 22 35 17 33 37 31 -18 -21 vhcurveto
            43 hmoveto
            31 -50 37 -60 -65 -47 -38 -30 -31 50 -37 60 65 47 38 30 vhcurveto
            return
          </CharString>
          <CharString index="37">
            -34 callgsubr
            21 0 11 hvcurveto
            65 return
          </CharString>
          <CharString index="38">
            vhcurveto
            -85 hlineto
            -49 callsubr
            return
          </CharString>
          <CharString index="39">
            -188 -3 -112 -51 -90 vvcurveto
            -68 62 -61 94 65 50 19 24 33 vhcurveto
            return
          </CharString>
          <CharString index="40">
            20 -52 callsubr
            return
          </CharString>
          <CharString index="41">
            -13 -19 -68 callgsubr
            return
          </CharString>
          <CharString index="42">
            -17 -37 -46 0 -7 hhcurveto
            -68 -43 41 44 47 68 49 179 6 hvcurveto
            return
          </CharString>
          <CharString index="43">
            -65 -45 callsubr
            return
          </CharString>
          <CharString index="44">
            -8 12 37 -22 48 hhcurveto
            90 71 69 87 29 -9 29 -22 35 hvcurveto
            32 18 26 4 22 2 rrcurveto
            -29 7 18 -6 8 hhcurveto
            14 18 9 24 hvcurveto
            -167 -115 rmoveto
            -64 -49 -49 -59 -61 -47 52 60 vhcurveto
            return
          </CharString>
          <CharString index="45">
            -18 callgsubr
            -86 -96 callsubr
            183 hlineto
            11 21 0 22 return
          </CharString>
          <CharString index="46">
            -48 callsubr
            -21 return
          </CharString>
          <CharString index="47">
            564 -80 callgsubr
            -65 247 hlineto
            104 -60 37 -79 -57 -50 -21 -50 -54 vhcurveto
            return
          </CharString>
          <CharString index="48">
            611 306 rmoveto
            168 -137 137 -168 -169 -137 -137 -168 -169 137 -137 169 168 137 137 169 vhcurveto
            -40 hmoveto
            -147 -119 -119 -146 -147 -119 119 147 146 119 119 147 146 119 -119 -146 vhcurveto
            return
          </CharString>
          <CharString index="49">
            64 50 49 58 61 47 -52 -60 vhcurveto
            112 -370 rmoveto
            -48 -81 -51 -109 -109 -81 51 48 21 10 36 37 23 vhcurveto
            17 27 9 1 79 hhcurveto
            97 121 -4 -94 hvcurveto
            return
          </CharString>
          <CharString index="50">
            0 -23 -71 callgsubr
            return
          </CharString>
          <CharString index="51">
            -9 callgsubr
            136 -107 callgsubr
          </CharString>
          <CharString index="52">
            -9 callgsubr
            75 rmoveto
            -6 -5 -26 -20 -3 -2 1 1 -3 vhcurveto
            -144 64 rlineto
            -19 8 -4 10 9 vvcurveto
            16 12 11 15 vhcurveto
            0 6 0 10 -4 vhcurveto
            137 -62 rlineto
            11 -5 9 -4 -13 vvcurveto
            endchar
          </CharString>
          <CharString index="53">
            434 103 rmoveto
            20 -22 0 -5 -10 -6 -1 -8 -6 vhcurveto
            -23 -10 -24 -53 -80 hhcurveto
            -92 -79 76 99 52 31 126 146 26 45 -8 -11 -29 16 -12 20 20 18 14 24 66 -102 0 -43 -170 -59 -135 -87 -118 92 -101 125 135 34 93 16 hvcurveto
            return
          </CharString>
          <CharString index="54">
            535 22 rmoveto
            22 -22 0 -11 vhcurveto
            -39 hlineto
            -170 211 144 126 rlineto
            41 80 callsubr
            20 0 12 hvcurveto
            66 hlineto
            -210 -188 rlineto
            385 vlineto
            25 -8 8 -27 vhcurveto
            -72 hlineto
            -13 -19 0 -23 -21 -67 callsubr
            62 -523 -62 -14 callsubr
            169 hlineto
            11 20 0 22 22 -19 0 -12 hvcurveto
            -62 96 hlineto
            97 87 147 -183 rlineto
            -37 hlineto
            -13 callsubr
            130 hlineto
            140 callsubr
            return
          </CharString>
          <CharString index="55">
            0 12 hvcurveto
            return
          </CharString>
          <CharString index="56">
            774 237 98 callsubr
            -198 hlineto
            -12 -20 76 callsubr
            102 hlineto
            -112 -23 -96 -70 -115 hhcurveto
            return
          </CharString>
          <CharString index="57">
            93 callgsubr
            -523 70 callgsubr
            523 195 hlineto
            167 120 -128 -138 hvcurveto
            return
          </CharString>
          <CharString index="58">
            -13 -19 -57 callsubr
            return
          </CharString>
          <CharString index="59">
            -42 callgsubr
            -23 return
          </CharString>
          <CharString index="60">
            -34 callsubr
            -65 hlineto
            return
          </CharString>
          <CharString index="61">
            hstemhm
            hintmask 11100000
            -107 callsubr
            hintmask 00010000
            return
          </CharString>
          <CharString index="62">
            -49 callgsubr
            -22 return
          </CharString>
          <CharString index="63">
            11 21 -23 callgsubr
            return
          </CharString>
          <CharString index="64">
            538 -11 44 -33 29 callsubr
            -33 44 hstemhm
            53 53 428 53 247 53 56 53 -23 53 hintmask 0111001101000000
            1026 39 callgsubr
            -26 150 callgsubr
            -386 251 247 vlineto
            -44 0 -15 74 callgsubr
            96 vlineto
            59 callgsubr
            -15 -44 vhcurveto
            -247 228 hlineto
            hintmask 0001000010000000
            356 -64 hlineto
            -15 0 -18 26 27 91 callgsubr
            hintmask 0000100010000000
            75 vlineto
            hintmask 0001000000000000
            -18 callgsubr
            -405 hlineto
            -31 -62 7 0 hvcurveto
            hintmask 1000110000000000
            -33 4 -29 0 0 vvcurveto
            186 callsubr
            155 -144 196 20 51 5 2 20 hvcurveto
            hintmask 0100000000000000
            2 16 29 2 19 hhcurveto
            435 hlineto
            hintmask 1000111001000000
            26 6 7 26 hvcurveto
            -492 273 rmoveto
            -1 -110 rlineto
            -129 -1 -12 -34 -110 hhcurveto
            -187 -117 142 142 131 116 130 188 111 11 -34 -131 1 hvcurveto
            endchar
          </CharString>
          <CharString index="65">
            -6 44 157 43 -41 43 106 43 2 44 hstemhm
            52 53 -27 73 0 53 148 53 -52 53 270 53 hintmask 1011101010100000
            729 103 rmoveto
            20 -22 0 -4 -11 41 callsubr
            -37 -63 -11 -78 -65 hvcurveto
            89 -55 -93 0 -28 hhcurveto
            -40 -97 0 -66 -25 17 -13 20 13 22 8 30 1 hvcurveto
            13 0 4 25 3 vhcurveto
            1 16 10 1 14 hhcurveto
            87 49 -40 -73 hvcurveto
            hintmask 1100010010100000
            -40 vlineto
            -71 -2 -229 -7 -117 vvcurveto
            -62 60 -56 96 48 100 9 80 38 vhcurveto
            -76 66 69 -13 43 hhcurveto
            112 45 84 25 hvcurveto
            -53 137 rmoveto
            hintmask 1010110101100000
            -270 hlineto
            96 18 67 55 65 hhcurveto
            80 34 -68 -83 6 hvcurveto
            -319 -118 rmoveto
            -18 0 -30 -50 -20 vhcurveto
            -15 -36 -42 -1 -12 hhcurveto
            -67 -45 34 41 40 82 22 17 5 hvcurveto
            hintmask 0100000001000000
            46 11 43 2 60 2 rrcurveto
            endchar
          </CharString>
          <CharString index="66">
            -52 callgsubr
            191 hlineto
            return
          </CharString>
          <CharString index="67">
            475 589 136 callgsubr
            -186 -50 callgsubr
            94 -432 hlineto
            -96 -92 -6 -22 -9 -53 0 35 -38 vhcurveto
            9 11 3 4 13 vvcurveto
            19 -16 17 -20 -20 -18 -13 -26 -61 66 -43 96 87 79 51 89 vhcurveto
            438 40 vlineto
            13 191 callgsubr
            return
          </CharString>
          <CharString index="68">
            rmoveto
            100 -76 96 -116 -34 -44 -7 -29 -54 vhcurveto
            221 256 12 callsubr
            -277 hlineto
            -27 -5 -7 -26 hvcurveto
            -274 vlineto
            -14 0 -19 24 10 5 2 5 4 vhcurveto
            40 34 44 20 63 hhcurveto
            91 50 -80 -72 -87 -78 -66 -91 -31 -71 9 67 -33 hvcurveto
            return
          </CharString>
          <CharString index="69">
            -20 0 -12 return
          </CharString>
          <CharString index="70">
            -65 vlineto
            -40 callgsubr
            return
          </CharString>
          <CharString index="71">
            759 305 rmoveto
            79 -33 97 -107 79 vhcurveto
            70 96 rlineto
            9 12 1 8 0 vvcurveto
            15 -14 8 -10 -5 -7 -1 -15 -10 vhcurveto
            -72 -101 rlineto
            5 -11 -89 35 -73 hhcurveto
            -199 -152 -147 -169 -79 33 -97 107 -79 hvcurveto
            -66 -90 rlineto
            -13 -18 -1 -1 -7 vvcurveto
            -15 14 -8 10 7 5 3 11 8 vhcurveto
            75 103 rlineto
            -15 30 62 -25 80 hhcurveto
            -11 callsubr
            hvcurveto
            -205 242 rmoveto
            return
          </CharString>
          <CharString index="72">
            -20 hstemhm
            148 -31 callgsubr
            return
          </CharString>
          <CharString index="73">
            0 -23 -21 20 0 12 -27 callgsubr
            return
          </CharString>
          <CharString index="74">
            77 -366 hlineto
            -58 27 -54 43 -39 vhcurveto
            -41 45 59 -20 62 hhcurveto
            62 59 20 48 53 hvcurveto
            39 38 23 51 55 vvcurveto
            359 vlineto
            48 14 31 36 44 vvcurveto
            return
          </CharString>
          <CharString index="75">
            71 -6 67 callsubr
            27 -21 37 -20 103 -20 hstemhm
            115 52 247 53 0 85 hintmask 0101001000100000
            2 callsubr
            hintmask 0010100000100000
            -15 callgsubr
            hintmask 1010000011000000
            -63 callgsubr
            hintmask 0000010100000000
            return
          </CharString>
          <CharString index="76">
            48 -16 49 -33 48 -40 49 hstemhm
            return
          </CharString>
          <CharString index="77">
            75 4 callgsubr
            return
          </CharString>
          <CharString index="78">
            207 vlineto
            8 -6 8 -9 vhcurveto
            -24 hlineto
            -8 -7 -8 -8 hvcurveto
            -207 vlineto
            -8 6 -48 9 vhcurveto
            24 hlineto
            8 7 48 8 hvcurveto
            return
          </CharString>
          <CharString index="79">
            23 -38 callsubr
            return
          </CharString>
          <CharString index="80">
            82 callsubr
            hintmask 11011000
            -104 callgsubr
            hintmask 00100000
            return
          </CharString>
          <CharString index="81">
            215 -23 callsubr
            return
          </CharString>
          <CharString index="82">
            11 21 0 22 return
          </CharString>
          <CharString index="83">
            11 -12 12 -12 -21 -65 110 callgsubr
            25 17 20 23 5 -1 37 -54 vhcurveto
            60 35 28 21 16 vhcurveto
            4 4 5 5 7 vvcurveto
            return
          </CharString>
          <CharString index="84">
            551 -86 callgsubr
            return
          </CharString>
          <CharString index="85">
            0 44 281 44 198 44 hstem
            714 22 136 callgsubr
            -56 hlineto
            -226 280 184 243 rlineto
            55 hlineto
            11 22 0 21 23 -22 0 -11 hvcurveto
            -161 -50 callgsubr
            41 hlineto
            -147 -198 -158 198 rlineto
            39 185 callsubr
            -160 121 callgsubr
            20 0 13 hvcurveto
            54 hlineto
            196 -242 -213 -281 rlineto
            -55 121 callgsubr
            22 -43 callgsubr
            161 hlineto
            2 callgsubr
            22 71 callgsubr
            -42 hlineto
            178 243 188 -243 rlineto
            -40 -45 callsubr
            -39 callgsubr
            162 hlineto
            140 callsubr
            endchar
          </CharString>
          <CharString index="86">
            13 114 -21 425 -20 hstem
            237 50 108 50 vstem
            453 211 rmoveto
            10 -6 6 -2 3 vhcurveto
            -140 75 127 69 rlineto
            9 6 12 6 14 vvcurveto
            3 -1 20 -29 1 vhcurveto
            -141 -81 rlineto
            4 44 1 68 29 vvcurveto
            7 0 27 -25 -25 0 -27 -7 -29 1 -68 4 -44 vhcurveto
            -139 80 rlineto
            1 -2 -2 1 -3 hhcurveto
            -15 -10 -14 -11 -14 10 -5 10 -6 hvcurveto
            128 -69 -127 -69 rlineto
            -9 -6 -12 -6 -14 vvcurveto
            -3 1 -20 29 -1 vhcurveto
            141 81 rlineto
            -4 -44 -1 -68 -29 vvcurveto
            -7 0 -27 25 25 0 27 7 29 -1 68 -4 45 vhcurveto
            113 -67 rlineto
            -15 24 2 -1 7 hhcurveto
            15 10 14 11 hvcurveto
            endchar
          </CharString>
          <CharString index="87">
            33 callgsubr
            hintmask 00001000
            -87 callgsubr
            hintmask 00100100
            -106 callsubr
            hintmask 00010000
            -76 callgsubr
          </CharString>
          <CharString index="88">
            hlineto
            -44 callsubr
            return
          </CharString>
          <CharString index="89">
            -26 -17 -21 -21 return
          </CharString>
          <CharString index="90">
            -191 36 callgsubr
            103 44 0 44 hstemhm
            119 52 117 71 hintmask 11011100
            359 565 rmoveto
            52 -75 0 -14 -77 -74 -43 -85 vhcurveto
            -63 -53 vlineto
            -12 -21 0 -23 -22 -39 callgsubr
            54 -337 55 callgsubr
            return
          </CharString>
          <CharString index="91">
            -33 callgsubr
            21 23 return
          </CharString>
          <CharString index="92">
            -134 -133 -121 -202 -236 109 -74 99 107 97 82 119 hvcurveto
            -52 hmoveto
            -95 -73 -62 -79 -71 -44 53 67 -22 vhcurveto
            -8 23 0 28 15 vvcurveto
            69 65 56 84 89 59 -73 -81 vhcurveto
            endchar
          </CharString>
          <CharString index="93">
            hlineto
            -66 callsubr
            return
          </CharString>
          <CharString index="94">
            -12 -20 0 -21 -2 callsubr
            return
          </CharString>
          <CharString index="95">
            564 95 callsubr
            -18 callgsubr
            -85 -45 callsubr
            176 callsubr
            -199 hlineto
            49 -56 -47 15 -45 hhcurveto
            -121 -100 -97 -123 hvcurveto
            return
          </CharString>
          <CharString index="96">
            198 153 147 169 return
          </CharString>
          <CharString index="97">
            45 callgsubr
            -25 -27 0 return
          </CharString>
          <CharString index="98">
            276 0 44 239 46 238 71 callsubr
            -238 -70 hlineto
            -13 -10 -11 -12 -13 10 -10 13 hvcurveto
            70 -239 70 callgsubr
            239 200 hlineto
            12 11 10 13 12 -11 11 -12 hvcurveto
            -200 238 153 callsubr
          </CharString>
          <CharString index="99">
            rmoveto
            130 callsubr
            vhcurveto
            -205 57 callsubr
            205 -56 callgsubr
            21 hvcurveto
            endchar
          </CharString>
          <CharString index="100">
            44 133 45 357 44 return
          </CharString>
          <CharString index="101">
            -14 callsubr
            207 hlineto
            return
          </CharString>
          <CharString index="102">
            757 305 rmoveto
            86 -38 81 -78 69 vhcurveto
            -23 18 rlineto
            39 24 15 35 35 vvcurveto
            27 162 callsubr
            return
          </CharString>
          <CharString index="103">
            -337 -64 callsubr
            return
          </CharString>
          <CharString index="104">
            -373 24 callgsubr
            return
          </CharString>
          <CharString index="105">
            -23 51 callsubr
            return
          </CharString>
          <CharString index="106">
            529 -86 callgsubr
            return
          </CharString>
          <CharString index="107">
            0 -3 callgsubr
            return
          </CharString>
          <CharString index="108">
            hlineto
            -11 -22 0 return
          </CharString>
          <CharString index="109">
            564 21 rmoveto
            13 -7 10 -13 vhcurveto
            -77 330 hlineto
            50 14 35 34 47 vvcurveto
            25 -9 34 -34 vhcurveto
            return
          </CharString>
          <CharString index="110">
            rmoveto
            240 -108 70 -95 -109 -100 -81 -120 -112 86 -87 109 51 51 16 57 62 vhcurveto
            -157 -12 -85 -105 -103 hhcurveto
            -10 -41 2 23 -31 hvcurveto
            return
          </CharString>
          <CharString index="111">
            -332 -461 rlineto
            -71 49 -55 77 93 vvcurveto
            148 136 125 176 58 43 -14 -17 45 vhcurveto
            166 -241 rmoveto
            -148 -136 -125 -176 -58 -43 14 17 -46 vhcurveto
            332 461 rlineto
            70 -46 57 -78 -95 vvcurveto
            return
          </CharString>
          <CharString index="112">
            374 377 rmoveto
            25 -23 30 -45 -51 -39 -26 -53 -46 vhcurveto
            return
          </CharString>
          <CharString index="113">
            127 3 callsubr
            10 12 4 5 14 vvcurveto
            19 -15 17 -21 -21 -17 -15 -24 -31 19 -66 123 vhcurveto
            hintmask 00111010
            131 122 125 198 hvcurveto
            -62 80 rmoveto
            -61 -59 -64 -91 -89 -59 73 81 96 78 61 79 vhcurveto
            hintmask 00000100
            48 31 -25 -23 18 hvcurveto
            hintmask 00000010
            34 -43 10 -52 -43 vvcurveto
            endchar
          </CharString>
          <CharString index="114">
            -75 callgsubr
            -39 -22 -31 -27 -42 vvcurveto
            return
          </CharString>
          <CharString index="115">
            188 0 44 208 45 270 44 hstem
            143 52 393 53 vstem
            641 432 146 callsubr
            -317 hlineto
            -12 -20 -47 callsubr
            -12 -20 15 callsubr
            208 200 hlineto
            141 105 84 96 hvcurveto
            -53 hmoveto
            -71 -91 -64 -119 vhcurveto
            -183 270 183 hlineto
            120 90 -65 -70 hvcurveto
            endchar
          </CharString>
          <CharString index="116">
            484 213 rmoveto
            121 -98 101 -124 -124 -98 -101 -121 -111 78 -91 128 -18 vhcurveto
            -47 -39 -20 -37 -38 vvcurveto
            -40 33 -48 59 37 36 25 33 23 vhcurveto
            4 6 0 12 -7 6 -8 7 -13 -7 182 callgsubr
            -32 19 30 49 28 43 42 27 hvcurveto
            110 13 83 91 113 vvcurveto
            -53 7 rmoveto
            -98 -75 -84 -94 -95 -74 84 98 99 79 72 90 90 79 -72 -99 vhcurveto
            return
          </CharString>
          <CharString index="117">
            hvcurveto
            -62 -52 vlineto
            -13 41 callgsubr
            53 -337 -38 callgsubr
            22 78 callsubr
            -65 337 248 -337 -65 hlineto
            -40 callgsubr
            337 247 -337 127 callsubr
            183 hlineto
            11 191 callgsubr
            return
          </CharString>
          <CharString index="118">
            196 rmoveto
            -55 callgsubr
            vhcurveto
            -90 372 hlineto
            27 -5 6 -28 vhcurveto
            -29 hlineto
            -20 -4 0 -17 -11 hvcurveto
            -235 -369 rlineto
            -8 -11 0 -2 -18 vvcurveto
            -26 7 -6 25 vhcurveto
            269 -130 -73 hlineto
            -12 -20 -68 callgsubr
            185 -77 callgsubr
            -73 130 90 31 callsubr
            -161 22 rmoveto
            -255 hlineto
            230 361 rlineto
            25 hlineto
            endchar
          </CharString>
          <CharString index="119">
            vlineto
            12 20 -23 callgsubr
            return
          </CharString>
          <CharString index="120">
            658 60 rmoveto
            15 18 -19 20 -6 6 -203 202 rcurveline
            203 202 6 7 21 21 -21 20 rlinecurve
            -18 15 -20 -19 -6 -6 -202 -203 rcurveline
            -202 203 -7 6 -21 21 -20 -21 rlinecurve
            -15 -18 19 -19 6 -7 203 -202 rcurveline
            -203 -202 -6 -7 -21 -21 21 -20 rlinecurve
            18 -15 19 19 7 6 202 203 rcurveline
            202 -203 7 -6 21 -21 20 21 rlinecurve
            return
          </CharString>
          <CharString index="121">
            rmoveto
            11 -12 3 -8 vhcurveto
            -65 220 hlineto
            14 -6 3 -17 vhcurveto
            -22 hlineto
            -13 -3 -1 -9 -7 hvcurveto
            -169 -221 rlineto
            -1 -3 0 -2 -5 vvcurveto
            -13 1 -9 15 vhcurveto
            195 -78 -54 hlineto
            -7 -13 -3 -11 -9 13 -3 7 hvcurveto
            134 hlineto
            7 13 3 9 11 -13 3 -7 hvcurveto
            -53 78 65 hlineto
            7 13 3 9 hvcurveto
            -112 14 rmoveto
            -183 hlineto
            161 210 rlineto
            22 hlineto
            return
          </CharString>
          <CharString index="122">
            -68 callgsubr
            182 -77 callgsubr
            -65 return
          </CharString>
          <CharString index="123">
            -88 -52 -59 -50 -51 -51 62 84 88 52 59 50 51 51 -61 -85 vhcurveto
            return
          </CharString>
          <CharString index="124">
            -45 -6 44 151 43 159 44 hstem
            434 214 rmoveto
            122 -98 99 -125 -123 -47 -84 -25 -20 22 0 5 10 8 1 11 5 vhcurveto
            59 25 53 14 36 hhcurveto
            81 78 -59 -100 17 hvcurveto
            -308 hlineto
            -17 -15 0 -29 -117 64 -92 122 116 91 101 119 hvcurveto
            -54 -25 rmoveto
            -93 -17 -64 -58 -72 hhcurveto
            -56 -66 27 124 -10 hvcurveto
            endchar
          </CharString>
          <CharString index="125">
            -32 -69 callsubr
            return
          </CharString>
          <CharString index="126">
            434 103 rmoveto
            20 -22 0 -5 -10 -8 -1 -11 -5 vhcurveto
            -59 -25 -53 -14 -36 hhcurveto
            -81 -78 59 100 -17 hvcurveto
            308 hlineto
            17 15 0 29 117 -64 92 -122 -116 -91 -101 -119 -113 84 -93 138 -16 hvcurveto
            -59 -38 -19 -31 -45 vvcurveto
            -40 33 -48 59 37 36 25 33 23 vhcurveto
            4 6 0 12 -7 6 -8 7 -13 -7 -5 -4 rrcurveto
            return
          </CharString>
          <CharString index="127">
            vhcurveto
            -62 -53 vlineto
            -12 -21 0 -23 -22 -39 callgsubr
            54 51 callgsubr
            337 return
          </CharString>
          <CharString index="128">
            71 -6 58 callsubr
            return
          </CharString>
          <CharString index="129">
            167 callsubr
            -25 -17 151 callsubr
            -5 135 callsubr
            12 175 callgsubr
            210 hmoveto
            54 -25 30 -33 -24 -18 -19 -23 -5 1 -35 54 -2 vhcurveto
            -61 -35 -27 132 callsubr
            endchar
          </CharString>
          <CharString index="130">
            -20 callgsubr
            46 25 39 37 27 hvcurveto
            185 17 131 140 159 vvcurveto
            -52 12 rmoveto
            -154 -132 -130 -167 -168 -131 131 153 142 132 119 167 167 132 -119 -142 vhcurveto
            return
          </CharString>
          <CharString index="131">
            10 8 8 10 hvcurveto
            19 vlineto
            18 15 21 35 19 vhcurveto
            return
          </CharString>
          <CharString index="132">
            188 0 29 callsubr
            return
          </CharString>
          <CharString index="133">
            173 callgsubr
            -83 -108 174 callsubr
            84 107 vhcurveto
            return
          </CharString>
          <CharString index="134">
            92 callsubr
            21 0 22 22 78 callsubr
            -65 191 hlineto
            92 callsubr
            191 callgsubr
            return
          </CharString>
          <CharString index="135">
            rmoveto
            14 -12 13 -15 -6 -10 -3 -12 -8 vhcurveto
            -474 -719 rlineto
            -7 -11 -2 -5 -6 vvcurveto
            -14 12 -13 15 14 5 9 9 6 vhcurveto
            476 721 rlineto
            5 8 1 4 5 vvcurveto
            -366 -165 161 callgsubr
            -84 -107 174 callsubr
            83 108 vhcurveto
            return
          </CharString>
          <CharString index="136">
            44 251 124 callsubr
            return
          </CharString>
          <CharString index="137">
            115 52 248 52 return
          </CharString>
          <CharString index="138">
            -45 callgsubr
            hvcurveto
            return
          </CharString>
          <CharString index="139">
            129 callgsubr
            -13 vhcurveto
            -103 545 hlineto
            13 0 20 -21 -6 -3 -1 -3 -4 vhcurveto
            -50 -54 -65 -3 -23 -2 rrcurveto
            -11 -11 -6 -16 -22 21 0 6 28 43 8 23 44 hvcurveto
            -502 -103 vlineto
            -66 callsubr
            258 -72 callgsubr
            endchar
          </CharString>
          <CharString index="140">
            269 rmoveto
            10 -12 3 -8 vhcurveto
            -76 325 hlineto
            6 0 9 -14 -4 -2 -1 -2 -3 vhcurveto
            -32 -35 -46 -2 -19 hhcurveto
            -5 -6 -5 -7 -9 12 -2 4 20 31 5 14 34 hvcurveto
            -299 -77 vlineto
            -8 -12 -3 -10 -9 13 -3 7 hvcurveto
            186 hlineto
            7 13 3 9 hvcurveto
            return
          </CharString>
          <CharString index="141">
            86 callsubr
            201 53 return
          </CharString>
          <CharString index="142">
            -11 69 callgsubr
            return
          </CharString>
          <CharString index="143">
            44 349 160 callsubr
            317 52 vstem
            536 213 rmoveto
            119 -92 100 -118 -46 -53 -15 -52 -60 vhcurveto
            return
          </CharString>
          <CharString index="144">
            -25 4 -8 28 -11 callgsubr
            -149 172 rmoveto
            return
          </CharString>
          <CharString index="145">
            rmoveto
            20 -18 26 -48 -10 -48 -1 -37 -51 vhcurveto
            return
          </CharString>
          <CharString index="146">
            305 35 callsubr
            return
          </CharString>
          <CharString index="147">
            0 44 523 47 callsubr
            return
          </CharString>
          <CharString index="148">
            -8 -1 -12 -5 vhcurveto
            -72 -29 -59 0 -13 hhcurveto
            -79 -78 58 101 -16 hvcurveto
            292 hlineto
            18 14 0 30 118 -61 90 -112 return
          </CharString>
          <CharString index="149">
            69 callsubr
            21 return
          </CharString>
          <CharString index="150">
            rmoveto
            14 -2 9 -16 -8 -6 -4 -6 -5 vhcurveto
            -433 -588 rlineto
            return
          </CharString>
          <CharString index="151">
            -23 22 -43 callgsubr
            return
          </CharString>
          <CharString index="152">
            hlineto
            12 117 callgsubr
            return
          </CharString>
          <CharString index="153">
            -6 77 callgsubr
            return
          </CharString>
          <CharString index="154">
            44 32 -31 callsubr
            return
          </CharString>
          <CharString index="155">
            -39 24 -6 11 18 16 13 22 vhcurveto
            return
          </CharString>
          <CharString index="156">
            -190 -489 rmoveto
            42 -18 17 -21 -17 -12 -13 -15 -4 1 -24 38 -3 vhcurveto
            hintmask 1000000100000000
            -2 -24 -2 -27 -34 -27 rrcurveto
            -3 -4 -5 -5 -5 vvcurveto
            -6 7 -8 8 vhcurveto
            hintmask 0000001000000000
            16 44 43 63 hvcurveto
            endchar
          </CharString>
          <CharString index="157">
            -18 -13 -27 -23 -23 hhcurveto
            -22 -32 19 30 34 33 46 51 33 hvcurveto
            20 13 30 10 43 34 rrcurveto
            18 14 12 31 11 vvcurveto
            -54 137 rmoveto
            -285 hlineto
            93 17 64 58 72 hhcurveto
            56 66 -27 -124 10 hvcurveto
            return
          </CharString>
          <CharString index="158">
            19 0 13 hvcurveto
            return
          </CharString>
          <CharString index="159">
            -50 callgsubr
            42 hlineto
            return
          </CharString>
          <CharString index="160">
            44 337 45 return
          </CharString>
          <CharString index="161" raw="1">
            708b7c5f 1e0b  
          </CharString>
          <CharString index="162">
            -65 hlineto
            -49 callsubr
            182 187 callsubr
            -65 return
          </CharString>
          <CharString index="163">
            25 -4 8 133 callsubr
            -21 -67 callsubr
            65 return
          </CharString>
          <CharString index="164">
            hlineto
            -11 -21 -68 callgsubr
            return
          </CharString>
          <CharString index="165">
            44 -38 53 callsubr
            return
          </CharString>
          <CharString index="166">
            0 57 callgsubr
            return
          </CharString>
          <CharString index="167">
            275 340 rmoveto
            24 -19 18 -23 -24 -19 -18 -24 -24 19 -18 24 23 19 18 24 vhcurveto
            158 -458 rmoveto
            26 -19 13 -18 -17 -19 -14 -23 -11 5 -8 8 -9 vhcurveto
            return
          </CharString>
          <CharString index="168">
            39 26 37 44 37 return
          </CharString>
          <CharString index="169">
            -11 87 callgsubr
            return
          </CharString>
          <CharString index="170">
            12 0 7 hvcurveto
            39 -314 -39 hlineto
            -8 -11 0 -13 -13 12 0 7 hvcurveto
            102 hlineto
            6 13 0 13 13 -12 0 -7 hvcurveto
            -39 314 7 hlineto
            137 -318 rlineto
            return
          </CharString>
          <CharString index="171">
            -20 34 callsubr
            return
          </CharString>
          <CharString index="172">
            -235 44 572 45 return
          </CharString>
          <CharString index="173">
            -53 -34 -38 -44 -46 -2 callgsubr
            -151 280 137 callgsubr
            hvcurveto
            return
          </CharString>
          <CharString index="174">
            45 -39 44 336 45 0 44 -28 44 return
          </CharString>
          <CharString index="175">
            -6 callgsubr
            -19 vlineto
            return
          </CharString>
          <CharString index="176">
            vlineto
            11 21 0 return
          </CharString>
          <CharString index="177">
            66 55 -42 -40 -40 -44 -42 -75 -32 -61 5 38 -26 hvcurveto
            10 5 3 4 7 vvcurveto
            11 -11 7 -13 -11 -12 -5 -14 -52 68 -31 85 91 61 52 53 vhcurveto
            return
          </CharString>
          <CharString index="178">
            44 hstem
            142 52 482 53 vstem
            93 callgsubr
            return
          </CharString>
          <CharString index="179">
            -25 callgsubr
            endchar
          </CharString>
          <CharString index="180">
            hstemhm
            89 callgsubr
            return
          </CharString>
          <CharString index="181">
            861 129 callgsubr
            -12 vhcurveto
            -65 247 hlineto
            96 -53 45 -87 -55 -56 -19 -62 -58 vhcurveto
            67 -30 -51 14 -51 hhcurveto
            -55 -49 -19 -52 -57 hvcurveto
            return
          </CharString>
          <CharString index="182">
            59 callgsubr
            -17 return
          </CharString>
          <CharString index="183">
            0 -22 -14 callgsubr
            return
          </CharString>
          <CharString index="184">
            -101 callsubr
            endchar
          </CharString>
          <CharString index="185">
            -38 callsubr
            hvcurveto
            return
          </CharString>
          <CharString index="186">
            73 callgsubr
            hintmask 01000000
            37 callsubr
            return
          </CharString>
          <CharString index="187">
            hlineto
            12 21 0 22 23 71 callgsubr
            -169 -48 callsubr
            -22 return
          </CharString>
          <CharString index="188">
            vlineto
            56 callsubr
            return
          </CharString>
          <CharString index="189">
            hstemhm
            83 callgsubr
            return
          </CharString>
          <CharString index="190">
            hlineto
            -6 -6 -5 -5 -2 hvcurveto
            -23 -74 -39 -67 -51 -56 -5 -6 0 -8 5 -6 51 -56 39 -68 23 -73 rrcurveto
            -6 2 6 -4 6 hhcurveto
            return
          </CharString>
          <CharString index="191">
            -104 0 112 callsubr
            return
          </CharString>
          <CharString index="192">
            53 78 53 48 52 -41 41 return
          </CharString>
          <CharString index="193">
            hstemhm
            51 53 -27 73 return
          </CharString>
          <CharString index="194">
            759 306 rmoveto
            27 -31 0 -12 vhcurveto
            -616 hlineto
            -12 -31 0 -27 -27 27 0 10 hvcurveto
            628 hlineto
            10 27 0 27 hvcurveto
            return
          </CharString>
          <CharString index="195">
            25 callsubr
            53 -21 return
          </CharString>
          <CharString index="196">
            rlineto
            -1 3 2 return
          </CharString>
          <CharString index="197">
            rlineto
            47 -72 callgsubr
            return
          </CharString>
          <CharString index="198">
            71 36 callgsubr
            147 125 callsubr
            return
          </CharString>
          <CharString index="199">
            116 96 36 58 79 15 -37 -66 vhcurveto
            -240 177 callsubr
            -22 -22 -39 callgsubr
            183 hlineto
            11 return
          </CharString>
          <CharString index="200">
            507 391 38 callsubr
            return
          </CharString>
          <CharString index="201">
            100 callgsubr
            69 141 callsubr
            20 53 return
          </CharString>
          <CharString index="202">
            -80 callgsubr
            -65 534 hlineto
            return
          </CharString>
          <CharString index="203">
            100 callgsubr
            0 53 260 53 0 53 return
          </CharString>
          <CharString index="204">
            -162 0 callsubr
            return
          </CharString>
          <CharString index="205">
            rmoveto
            23 63 callgsubr
            return
          </CharString>
          <CharString index="206">
            -206 84 116 return
          </CharString>
          <CharString index="207">
            85 callsubr
            hintmask 000000010000000010000000
            93 callsubr
            return
          </CharString>
          <CharString index="208">
            21 -38 callsubr
            return
          </CharString>
          <CharString index="209">
            191 callsubr
            112 85 27 148 callsubr
            return
          </CharString>
          <CharString index="210">
            69 76 57 77 95 69 -82 -92 vhcurveto
            endchar
          </CharString>
          <CharString index="211">
            -30 7 -31 hhcurveto
            -79 -85 -19 -69 -55 58 -31 59 81 86 17 59 35 hvcurveto
            -37 75 79 -39 62 hhcurveto
            return
          </CharString>
          <CharString index="212">
            -89 184 callsubr
            231 -77 callgsubr
            -89 return
          </CharString>
          <CharString index="213">
            73 -43 73 245 52 -22 52 hintmask 01101100
            return
          </CharString>
          <CharString index="214">
            hstemhm
            40 53 278 53 5 53 -52 52 return
          </CharString>
          <CharString index="215">
            hstemhm
            57 53 477 85 0 85 -52 52 return
          </CharString>
          <CharString index="216">
            19 callgsubr
            41 -21 return
          </CharString>
          <CharString index="217">
            vstem
            541 232 rmoveto
            74 -59 59 -74 -74 -59 -59 -74 -74 59 -59 74 74 59 59 74 vhcurveto
            return
          </CharString>
          <CharString index="218">
            vvcurveto
            116 callsubr
          </CharString>
          <CharString index="219">
            44 298 45 -6 45 -39 45 return
          </CharString>
          <CharString index="220">
            37 52 263 53 262 53 return
          </CharString>
          <CharString index="221">
            rlineto
            42 hlineto
            12 21 0 21 return
          </CharString>
          <CharString index="222">
            191 callsubr
            224 53 return
          </CharString>
          <CharString index="223">
            -53 7 rmoveto
            -98 -75 -84 -94 -95 -74 84 98 99 79 72 90 90 79 -72 -99 vhcurveto
            endchar
          </CharString>
          <CharString index="224">
            27 91 callgsubr
            -30 callsubr
            return
          </CharString>
          <CharString index="225">
            44 -38 159 callgsubr
            46 52 return
          </CharString>
          <CharString index="226">
            0 callsubr
            118 -20 hstemhm
            return
          </CharString>
          <CharString index="227">
            -13 0 -17 22 -1 vhcurveto
            return
          </CharString>
          <CharString index="228">
            hhcurveto
            27 0 17 16 hvcurveto
            return
          </CharString>
          <CharString index="229">
            -5 151 callgsubr
            return
          </CharString>
          <CharString index="230">
            hlineto
            -38 125 rlineto
            168 -170 rmoveto
            -49 -162 rlineto
            -20 hlineto
            -48 162 rlineto
            return
          </CharString>
          <CharString index="231">
            44 228 44 return
          </CharString>
          <CharString index="232">
            44 hstem
            30 callsubr
            vstem
            564 -80 callgsubr
            -65 return
          </CharString>
          <CharString index="233">
            5 6 0 8 -5 6 -51 56 -38 67 -24 74 rrcurveto
            5 -2 -5 5 -7 hhcurveto
            return
          </CharString>
          <CharString index="234">
            -65 108 callgsubr
            return
          </CharString>
          <CharString index="235">
            13 -65 -21 783 -20 hstem
            return
          </CharString>
          <CharString index="236">
            53 82 53 -52 52 return
          </CharString>
          <CharString index="237">
            23 -1 callgsubr
            return
          </CharString>
          <CharString index="238">
            82 83 -31 -71 -14 12 -12 15 14 13 12 14 100 -108 56 -111 return
          </CharString>
          <CharString index="239">
            -21 -16 vhcurveto
            -4 135 callsubr
            11 175 callgsubr
            return
          </CharString>
          <CharString index="240">
            -28 147 callgsubr
            return
          </CharString>
          <CharString index="241">
            181 rmoveto
            16 -12 11 -15 vhcurveto
            return
          </CharString>
          <CharString index="242">
            -4 -4 -5 -8 vvcurveto
            -10 return
          </CharString>
          <CharString index="243">
            149 39 381 39 return
          </CharString>
          <CharString index="244">
            4 3 vvcurveto
            14 -12 13 -15 -14 -6 -8 -8 -4 vhcurveto
            -77 -184 rlineto
            return
          </CharString>
          <CharString index="245">
            54 -25 30 76 callgsubr
            return
          </CharString>
          <CharString index="246">
            hstemhm
            57 52 402 129 callsubr
            return
          </CharString>
          <CharString index="247">
            2 callgsubr
            hvcurveto
            return
          </CharString>
          <CharString index="248">
            75 128 75 return
          </CharString>
          <CharString index="249">
            7 hvcurveto
            135 315 rlineto
            8 -314 -39 hlineto
            -7 -13 0 return
          </CharString>
          <CharString index="250">
            5 4 6 2 hvcurveto
            24 73 38 68 return
          </CharString>
          <CharString index="251">
            44 305 44 185 44 return
          </CharString>
          <CharString index="252">
            0 callsubr
            32 74 return
          </CharString>
          <CharString index="253">
            rmoveto
            96 -105 83 -141 vhcurveto
            return
          </CharString>
          <CharString index="254">
            -123 -21 143 84 hstem
            return
          </CharString>
          <CharString index="255">
            53 116 53 -23 52 return
          </CharString>
          <CharString index="256">
            47 51 -20 hstem
            435 return
          </CharString>
          <CharString index="257" raw="1">
            f8e015a2 0b  
          </CharString>
          <CharString index="258">
            -19 -23 -5 1 -35 54 -2 vhcurveto
            -61 -35 -27 -21 -16 vhcurveto
            return
          </CharString>
          <CharString index="259">
            hlineto
            19 14 4 19 hvcurveto
            155 vmoveto
            23 -18 0 -18 vhcurveto
            return
          </CharString>
          <CharString index="260">
            195 hlineto
            167 120 -128 -138 hvcurveto
            endchar
          </CharString>
          <CharString index="261">
            29 78 29 hstem
            -366 168 callsubr
            vstem
            -187 return
          </CharString>
          <CharString index="262">
            99 0 40 76 26 327 26 76 40 hstem
            0 40 return
          </CharString>
          <CharString index="263">
            -2 callgsubr
            4 6 return
          </CharString>
          <CharString index="264">
            14 -11 0 -8 hvcurveto
            -59 hlineto
            -11 -15 0 -18 -8 hvcurveto
            return
          </CharString>
          <CharString index="265">
            12 0 8 hvcurveto
            101 hlineto
            7 12 0 13 hvcurveto
            endchar
          </CharString>
          <CharString index="266">
            4 6 -3 13 -5 5 -6 3 return
          </CharString>
          <CharString index="267">
            45 135 44 hstem
            115 52 return
          </CharString>
          <CharString index="268">
            58 52 537 52 return
          </CharString>
          <CharString index="269">
            -8 33 -34 1 vhcurveto
            return
          </CharString>
          <CharString index="270">
            0 -17 -16 vhcurveto
            return
          </CharString>
          <CharString index="271">
            56 hlineto
            24 0 25 60 25 vhcurveto
            17 41 43 0 return
          </CharString>
          <CharString index="272">
            -80 callgsubr
            -65 523 65 hlineto
            return
          </CharString>
          <CharString index="273">
            21 -21 434 -20 hstem
            return
          </CharString>
          <CharString index="274">
            -1 rmoveto
            54 -25 30 -33 return
          </CharString>
          <CharString index="275">
            43 136 43 return
          </CharString>
          <CharString index="276">
            89 callgsubr
            vstem
            484 213 rmoveto
            return
          </CharString>
          <CharString index="277">
            -11 188 callgsubr
            return
          </CharString>
          <CharString index="278">
            hvcurveto
            -29 1 15 -12 20 hhcurveto
            20 18 14 24 return
          </CharString>
          <CharString index="279">
            -21 86 62 callgsubr
            return
          </CharString>
          <CharString index="280">
            69 callgsubr
            hstemhm
            60 49 return
          </CharString>
          <CharString index="281">
            -111 65 -81 76 77 64 return
          </CharString>
          <CharString index="282">
            39 0 61 callsubr
            return
          </CharString>
          <CharString index="283">
            51 callsubr
            65 return
          </CharString>
          <CharString index="284">
            -65 vlineto
            -12 -20 0 return
          </CharString>
          <CharString index="285">
            vlineto
            13 0 20 return
          </CharString>
          <CharString index="286">
            -15 0 -18 25 return
          </CharString>
          <CharString index="287">
            52 254 53 -9 62 -53 53 hintmask 11011001
            return
          </CharString>
          <CharString index="288">
            vlineto
            12 -10 10 -12 -12 -10 -10 -12 vhcurveto
            return
          </CharString>
          <CharString index="289">
            hlineto
            -16 -23 -2 -21 -11 7 -10 14 hvcurveto
            return
          </CharString>
          <CharString index="290">
            hlineto
            10 0 29 -27 -27 0 -29 -10 vhcurveto
            return
          </CharString>
          <CharString index="291">
            vlineto
            -13 callsubr
            return
          </CharString>
          <CharString index="292">
            45 callsubr
            -20 0 -13 hvcurveto
            return
          </CharString>
          <CharString index="293">
            -199 -152 -147 -169 -173 return
          </CharString>
          <CharString index="294">
            -76 callsubr
            130 callsubr
            hvcurveto
            return
          </CharString>
          <CharString index="295">
            hlineto
            -11 -21 76 callsubr
            return
          </CharString>
          <CharString index="296">
            hlineto
            -16 -23 -2 -21 -14 9 -9 17 hvcurveto
            return
          </CharString>
          <CharString index="297">
            -24 -110 -26 return
          </CharString>
          <CharString index="298">
            hstemhm
            143 52 return
          </CharString>
        <CharString name=".notdef">
          -232 endchar
        </CharString>
        <CharString name="A">
          19 callgsubr
          hstem
          -107 callsubr
          endchar
        </CharString>
        <CharString name="AE">
          -37 callgsubr
        </CharString>
        <CharString name="AE.dup">
          -37 callgsubr
        </CharString>
        <CharString name="AEacute">
          421 0 44 145 44 62 44 228 98 callgsubr
          185 52 241 53 170 52 72 52 -23 53 hintmask 1011000110100000
          907 39 callgsubr
          -26 150 callgsubr
          -323 251 170 vlineto
          -44 0 -15 27 25 0 18 15 vhcurveto
          96 -10 callsubr
          -15 -44 vhcurveto
          -170 228 hlineto
          hintmask 1101001101000000
          294 -64 hlineto
          179 callsubr
          117 callsubr
          -520 hlineto
          -12 -21 0 -23 -21 22 -43 callgsubr
          32 hlineto
          -229 -523 rlineto
          -55 hlineto
          49 callgsubr
          164 -77 callgsubr
          -52 hlineto
          63 145 rlineto
          230 -145 -40 121 callgsubr
          22 -43 callgsubr
          437 hlineto
          hintmask 0101000100100000
          26 6 7 26 hvcurveto
          -429 200 rmoveto
          -211 hlineto
          148 334 rlineto
          63 hlineto
          hintmask 0000110000000000
          89 179 -107 callgsubr
        </CharString>
        <CharString name="Aacute">
          19 callgsubr
          51 27 callgsubr
          hintmask 11100000
          -107 callsubr
          hintmask 00011000
          97 167 -107 callgsubr
        </CharString>
        <CharString name="Abreve">
          19 callgsubr
          30 168 callgsubr
          hintmask 11100000
          -107 callsubr
          hintmask 00011000
          169 149 -105 callgsubr
          endchar
        </CharString>
        <CharString name="Abreveacute">
          19 callgsubr
          30 47 191 -20 hstemhm
          hintmask 11100000
          -107 callsubr
          hintmask 00011000
          169 149 -56 callsubr
        </CharString>
        <CharString name="Abrevedotbelow">
          -206 84 122 -7 callsubr
          30 168 callgsubr
          336 85 hintmask 01111100
          -107 callsubr
          169 149 -105 callgsubr
          hintmask 10000010
          -131 -892 -102 callsubr
        </CharString>
        <CharString name="Abrevegrave">
          19 callgsubr
          30 168 callgsubr
          hintmask 11100000
          -107 callsubr
          hintmask 00011000
          169 149 -55 callsubr
        </CharString>
        <CharString name="Abrevehookabove">
          19 callgsubr
          30 134 callgsubr
          250 175 callsubr
          hintmask 1110000000000000
          -107 callsubr
          hintmask 0001101100000000
          169 149 -105 callgsubr
          -80 168 -85 callsubr
          hvcurveto
          hintmask 0000111011100000
          3 callgsubr
          10 8 8 10 vhcurveto
          19 vlineto
          18 15 21 35 19 vhcurveto
          18 9 13 19 22 vvcurveto
          endchar
        </CharString>
        <CharString name="Abrevetilde">
          751 49 0 47 0 49 hstemhm
          cntrmask 11100000
          -107 callsubr
          hintmask 11100000
          169 149 -105 callgsubr
          -1 144 rmoveto
          12 -11 12 -12 -8 -5 -5 -4 -5 vhcurveto
          -31 -33 -30 -17 -15 hhcurveto
          -13 -10 10 29 -31 hvcurveto
          -106 callsubr
          -76 callgsubr
        </CharString>
        <CharString name="Acaron">
          19 callgsubr
          106 -20 -46 callsubr
          139 128 rmoveto
          -98 callgsubr
        </CharString>
        <CharString name="Acircumflex">
          109 callsubr
          -46 callsubr
          139 86 -106 callgsubr
          endchar
        </CharString>
        <CharString name="Acircumflexacute">
          109 callsubr
          226 -20 hstemhm
          hintmask 11100000
          -107 callsubr
          hintmask 00011000
          139 86 -91 callsubr
        </CharString>
        <CharString name="Acircumflexdotbelow">
          -206 84 122 -7 callsubr
          41 -21 hstemhm
          336 85 hintmask 01111000
          -107 callsubr
          139 86 -106 callgsubr
          hintmask 10000100
          -101 -829 -102 callsubr
        </CharString>
        <CharString name="Acircumflexgrave">
          109 callsubr
          -46 callsubr
          139 86 -91 callgsubr
        </CharString>
        <CharString name="Acircumflexhookabove">
          109 callsubr
          86 37 143 37 hstemhm
          380 97 callgsubr
          hintmask 1110000000000000
          -107 callsubr
          hintmask 0001001001000000
          139 86 rmoveto
          8 -4 8 -9 3 vhcurveto
          -122 44 -4 1 -6 0 -4 -1 rlinecurve
          -122 -44 rlineto
          -9 -3 -4 -8 -8 vvcurveto
          -11 8 -11 11 3 2 0 1 3 vhcurveto
          115 35 115 -35 rlineto
          hintmask 0001011010100000
          -1 3 2 0 3 hhcurveto
          11 8 11 11 hvcurveto
          41 209 -75 callgsubr
          hintmask 0000100100000000
          68 callsubr
          hintmask 0000100010000000
          122 callgsubr
          hintmask 0000100101000000
          24 callsubr
          hintmask 0000000000100000
          18 9 13 19 22 vvcurveto
          endchar
        </CharString>
        <CharString name="Acircumflextilde">
          0 44 133 45 357 44 41 164 callgsubr
          hintmask 1110000000000000
          -107 callsubr
          hintmask 0001100010000000
          139 86 -75 callsubr
        </CharString>
        <CharString name="Adblgrave">
          19 callgsubr
          51 -21 118 -20 hstemhm
          hintmask 11100000
          -107 callsubr
          hintmask 00011000
          127 103 -103 callsubr
        </CharString>
        <CharString name="Adieresis">
          19 callgsubr
          20 74 hstemhm
          241 141 callsubr
          hintmask 11100000
          -107 callsubr
          hintmask 00011100
          -67 101 -69 callgsubr
        </CharString>
        <CharString name="Adotbelow">
          -206 84 122 -7 callsubr
          hstemhm
          336 85 hintmask 01110000
          -107 callsubr
          hintmask 10001000
          38 -743 -102 callsubr
        </CharString>
        <CharString name="Agrave">
          19 callgsubr
          51 27 callgsubr
          hintmask 11100000
          -107 callsubr
          hintmask 00011000
          96 106 -102 callgsubr
        </CharString>
        <CharString name="Ahookabove">
          19 callgsubr
          31 62 callgsubr
          288 61 callsubr
          hintmask 11100001
          -107 callsubr
          hintmask 00011111
          88 220 -103 callgsubr
        </CharString>
        <CharString name="Alpha">
          19 callgsubr
          hstem
          -107 callsubr
          endchar
        </CharString>
        <CharString name="Amacron">
          19 callgsubr
          40 46 -46 callsubr
          182 106 -89 callgsubr
        </CharString>
        <CharString name="Aogonek">
          -209 37 0 45 127 -7 callsubr
          hstemhm
          510 42 0 42 hintmask 00111010
          717 -80 callgsubr
          -54 hlineto
          -197 550 rlineto
          29 -10 -18 0 -18 hhcurveto
          -19 hlineto
          -17 -19 0 -28 -10 hvcurveto
          -197 -551 rlineto
          -54 -42 callgsubr
          -21 -14 callgsubr
          164 hlineto
          2 callgsubr
          22 -22 0 -11 hvcurveto
          -55 hlineto
          48 133 rlineto
          299 hlineto
          48 -133 rlineto
          -55 1 callsubr
          -21 44 callsubr
          73 hlineto
          hintmask 10000100
          -64 -41 -20 -34 -46 -2 callgsubr
          hintmask 01111010
          -20 callgsubr
          47 36 41 60 35 hvcurveto
          37 -72 callgsubr
          -205 200 rmoveto
          -267 hlineto
          128 357 rlineto
          10 hlineto
          endchar
        </CharString>
        <CharString name="Aogonekacute">
          -209 37 0 45 127 -7 callsubr
          51 27 callgsubr
          510 42 0 42 hintmask 0011100010000000
          717 -80 callgsubr
          -54 hlineto
          -197 550 rlineto
          29 -10 -18 0 -18 hhcurveto
          -19 hlineto
          -17 -19 0 -28 -10 hvcurveto
          -197 -551 rlineto
          -54 -42 callgsubr
          -21 -14 callgsubr
          164 hlineto
          2 callgsubr
          22 -22 0 -11 hvcurveto
          -55 hlineto
          48 133 rlineto
          299 hlineto
          48 -133 rlineto
          -55 1 callsubr
          -21 44 callsubr
          73 hlineto
          hintmask 1000000100000000
          -64 -41 -20 -34 -46 -2 callgsubr
          hintmask 0111100010000000
          -20 callgsubr
          47 36 41 60 35 hvcurveto
          37 -72 callgsubr
          -205 200 rmoveto
          -267 hlineto
          128 357 rlineto
          10 hlineto
          hintmask 0000011000000000
          97 167 -107 callgsubr
        </CharString>
        <CharString name="Aring">
          19 callgsubr
          0 29 78 29 hstemhm
          268 168 callsubr
          hintmask 11100000
          -107 callsubr
          hintmask 00011110
          64 112 -46 callgsubr
        </CharString>
        <CharString name="Aringacute">
          19 callgsubr
          0 94 callgsubr
          hintmask 1110000000000000
          -107 callsubr
          hintmask 0001111010000000
          64 112 -71 callsubr
          -11 134 callsubr
          hintmask 0000000100000000
          0 -6 0 -10 -4 vhcurveto
          -137 -62 rlineto
          -11 -5 -9 -4 -13 vvcurveto
          -6 5 -26 20 3 2 1 1 3 vhcurveto
          144 64 rlineto
          19 8 4 10 9 vvcurveto
          endchar
        </CharString>
        <CharString name="Atilde">
          19 callgsubr
          20 -31 callsubr
          hintmask 11100000
          -107 callsubr
          hintmask 00000010
          168 145 rmoveto
          12 -11 12 -12 vhcurveto
          hintmask 00000100
          -87 callgsubr
          hintmask 00010010
          -106 callsubr
          hintmask 00001000
          -76 callgsubr
        </CharString>
        <CharString name="B">
          -12 callgsubr
        </CharString>
        <CharString name="Beta">
          -12 callgsubr
        </CharString>
        <CharString name="C">
          148 callgsubr
          161 callsubr
          vstem
          -82 callsubr
          179 109 74 101 hvcurveto
          endchar
        </CharString>
        <CharString name="Cacute">
          170 callsubr
          161 callsubr
          hintmask 11001100
          -82 callsubr
          179 109 74 101 hvcurveto
          hintmask 00110000
          -181 582 -107 callgsubr
        </CharString>
        <CharString name="Ccaron">
          35 callsubr
          107 -20 hstemhm
          161 callsubr
          hintmask 11011000
          -82 callsubr
          179 109 74 101 hvcurveto
          hintmask 00100000
          -139 543 rmoveto
          -98 callgsubr
        </CharString>
        <CharString name="Ccedilla">
          -214 45 158 69 callgsubr
          hstemhm
          58 52 312 53 37 52 -52 53 82 52 hintmask 11111011
          -82 callsubr
          hvcurveto
          11 -26 hlineto
          -13 0 -17 23 -1 vhcurveto
          39 171 callgsubr
          -22 0 -23 -17 14 -5 8 vhcurveto
          hintmask 00001101
          82 128 0 94 53 -45 32 -44 7 hvcurveto
          1 -2 -1 22 0 vvcurveto
          143 17 81 66 89 vvcurveto
          endchar
        </CharString>
        <CharString name="Ccircumflex">
          35 callsubr
          42 -21 hstemhm
          161 callsubr
          hintmask 11011000
          -82 callsubr
          179 109 74 101 hvcurveto
          hintmask 00100000
          -139 501 -106 callgsubr
          endchar
        </CharString>
        <CharString name="Cdotaccent">
          35 callsubr
          32 84 hstemhm
          58 52 264 85 188 52 hintmask 11010100
          -82 callsubr
          179 109 74 101 hvcurveto
          hintmask 00101000
          -240 532 -102 callsubr
        </CharString>
        <CharString name="Chi">
          -22 callsubr
        </CharString>
        <CharString name="D">
          276 0 44 523 44 hstem
          142 52 482 53 vstem
          -50 callsubr
          endchar
        </CharString>
        <CharString name="Dcaron">
          276 119 callsubr
          142 52 482 53 hintmask 11011000
          -50 callsubr
          hintmask 00100000
          -234 406 rmoveto
          -98 callgsubr
        </CharString>
        <CharString name="Dcroat">
          -9 callsubr
        </CharString>
        <CharString name="Ddotbelow">
          276 34 callgsubr
          hstemhm
          142 52 62 85 335 53 hintmask 01110100
          -50 callsubr
          hintmask 10001000
          -335 -465 -102 callsubr
        </CharString>
        <CharString name="Delta">
          363 0 50 522 51 hstem
          819 10 rmoveto
          0 0 4 -2 4 vhcurveto
          -314 574 rlineto
          23 -13 -9 8 -33 hhcurveto
          -22 hlineto
          -23 -15 -1 -27 -15 hvcurveto
          -316 -576 rlineto
          -2 -5 0 -4 0 vvcurveto
          -10 13 0 10 vhcurveto
          718 hlineto
          10 13 0 10 hvcurveto
          -80 40 rmoveto
          -604 hlineto
          285 522 rlineto
          34 hlineto
          endchar
        </CharString>
        <CharString name="Dlinebelow">
          276 -173 46 127 176 callgsubr
          142 52 482 53 hintmask 01111000
          -50 callsubr
          hintmask 10000000
          -191 -452 -89 callgsubr
        </CharString>
        <CharString name="E">
          25 callsubr
          30 callgsubr
          hintmask 11111010
          -100 callsubr
          hintmask 10110100
          -98 callsubr
          560 hlineto
          hintmask 00000010
          5 callgsubr
          endchar
        </CharString>
        <CharString name="Eacute">
          25 callsubr
          63 -21 120 82 callgsubr
          hintmask 1110011010000000
          -100 callsubr
          hintmask 1010010100000000
          -98 callsubr
          560 hlineto
          hintmask 0000000010000000
          5 callgsubr
          hintmask 0001100000000000
          -219 713 -107 callgsubr
        </CharString>
        <CharString name="Ebreve">
          25 callsubr
          42 47 51 82 callgsubr
          hintmask 1110011010000000
          -100 callsubr
          hintmask 1010010100000000
          -98 callsubr
          560 hlineto
          hintmask 0000000010000000
          5 callgsubr
          hintmask 0001100000000000
          -147 695 -105 callgsubr
          endchar
        </CharString>
        <CharString name="Ecaron">
          25 callsubr
          118 82 callgsubr
          hintmask 11101101
          -100 callsubr
          hintmask 10101010
          -98 callsubr
          560 hlineto
          hintmask 00000001
          5 callgsubr
          hintmask 00010000
          -177 674 rmoveto
          -98 callgsubr
        </CharString>
        <CharString name="Ecircumflex">
          88 callsubr
          30 callgsubr
          hintmask 11101101
          -100 callsubr
          hintmask 10101010
          -98 callsubr
          560 hlineto
          hintmask 00000001
          5 callgsubr
          hintmask 00010000
          -177 632 -106 callgsubr
          endchar
        </CharString>
        <CharString name="Ecircumflexacute">
          88 callsubr
          226 82 callgsubr
          hintmask 1110011010000000
          -100 callsubr
          hintmask 1010010100000000
          -98 callsubr
          560 hlineto
          hintmask 0000000010000000
          5 callgsubr
          hintmask 0001100000000000
          -177 632 -91 callsubr
        </CharString>
        <CharString name="Ecircumflexdotbelow">
          188 -206 84 122 29 callsubr
          53 -21 102 callsubr
          hintmask 0111010101000000
          -100 callsubr
          hintmask 0101010010000000
          -98 callsubr
          560 hlineto
          hintmask 0000100001000000
          5 callgsubr
          -177 632 -106 callgsubr
          hintmask 1000001000000000
          -101 -829 -102 callsubr
        </CharString>
        <CharString name="Ecircumflexgrave">
          88 callsubr
          30 callgsubr
          hintmask 11101101
          -100 callsubr
          hintmask 10101010
          -98 callsubr
          560 hlineto
          hintmask 00000001
          5 callgsubr
          hintmask 00010000
          -177 632 -91 callgsubr
        </CharString>
        <CharString name="Ecircumflexhookabove">
          88 callsubr
          86 37 143 37 191 callsubr
          156 39 26 37 -34 53 -37 39 -8 37 -6 37 54 53 -23 52 hintmask 1110001001000010
          -100 callsubr
          hintmask 1010001000000100
          -98 callsubr
          560 hlineto
          hintmask 0000000000000010
          5 callgsubr
          hintmask 0001000100010000
          -177 632 rmoveto
          8 -4 8 -9 3 vhcurveto
          -122 44 -4 1 -6 0 -4 -1 rlinecurve
          -122 -44 rlineto
          -9 -3 -4 -8 -8 vvcurveto
          -11 8 -11 11 3 2 0 1 3 vhcurveto
          115 35 115 -35 rlineto
          hintmask 0001010100101000
          -1 3 2 0 3 hhcurveto
          11 8 11 11 hvcurveto
          41 209 -75 callgsubr
          hintmask 0000100010000000
          68 callsubr
          hintmask 0000100000100000
          122 callgsubr
          hintmask 0000100010010000
          24 callsubr
          hintmask 0000000000001000
          18 9 13 19 22 vvcurveto
          endchar
        </CharString>
        <CharString name="Ecircumflextilde">
          188 0 44 251 44 228 44 53 -21 36 49 41 48 -16 49 -33 48 -40 49 30 callgsubr
          hintmask 1110000001101000
          -100 callsubr
          hintmask 1010000001010000
          -98 callsubr
          560 hlineto
          hintmask 0000000000001000
          5 callgsubr
          hintmask 0001100010000000
          -177 632 -75 callsubr
        </CharString>
        <CharString name="Edblgrave">
          25 callsubr
          63 -21 118 82 callgsubr
          hintmask 1110011010000000
          -100 callsubr
          hintmask 1010010100000000
          -98 callsubr
          560 hlineto
          hintmask 0000000010000000
          5 callgsubr
          hintmask 0001100000000000
          -160 649 -103 callsubr
        </CharString>
        <CharString name="Edieresis">
          25 callsubr
          32 74 191 callsubr
          17 141 callsubr
          -71 148 callsubr
          hintmask 1110100101000000
          -100 callsubr
          hintmask 1010100010000000
          -98 callsubr
          560 hlineto
          hintmask 0000000001000000
          5 callgsubr
          hintmask 0001011000000000
          -383 647 -69 callgsubr
        </CharString>
        <CharString name="Edotaccent">
          25 callsubr
          43 84 102 callsubr
          hintmask 1110101010000000
          -100 callsubr
          hintmask 1010100100000000
          -98 callsubr
          560 hlineto
          hintmask 0000000010000000
          5 callgsubr
          hintmask 0001010000000000
          -278 663 -102 callsubr
        </CharString>
        <CharString name="Edotbelow">
          188 -206 84 122 29 callsubr
          102 callsubr
          hintmask 0111101010000000
          -100 callsubr
          hintmask 0101100100000000
          -98 callsubr
          560 hlineto
          hintmask 0000000010000000
          5 callgsubr
          hintmask 1000010000000000
          -278 -197 -102 callsubr
        </CharString>
        <CharString name="Egrave">
          25 callsubr
          63 -21 120 82 callgsubr
          hintmask 1110011010000000
          -100 callsubr
          hintmask 1010010100000000
          -98 callsubr
          560 hlineto
          hintmask 0000000010000000
          5 callgsubr
          hintmask 0001100000000000
          -220 652 -102 callgsubr
        </CharString>
        <CharString name="Ehookabove">
          25 callsubr
          43 37 143 37 191 callsubr
          64 61 callsubr
          -23 148 callsubr
          hintmask 1110010001010000
          -100 callsubr
          hintmask 1010010000100000
          -98 callsubr
          560 hlineto
          hintmask 0000000000010000
          5 callgsubr
          hintmask 0001101110000000
          -228 766 -103 callgsubr
        </CharString>
        <CharString name="Emacron">
          25 callsubr
          52 46 30 callgsubr
          hintmask 11101101
          -100 callsubr
          hintmask 10101010
          -98 callsubr
          560 hlineto
          hintmask 00000001
          5 callgsubr
          hintmask 00010000
          -134 652 -89 callgsubr
        </CharString>
        <CharString name="Eng">
          0 callsubr
          -42 53 -44 44 hstemhm
          112 53 506 53 hintmask 00011000
          724 306 rmoveto
          173 -135 143 -171 -98 -100 -32 -58 -55 vhcurveto
          46 vlineto
          hintmask 11001000
          -62 callsubr
          22 78 callsubr
          -65 385 hlineto
          hintmask 00100100
          98 14 121 42 118 hhcurveto
          141 112 -120 -143 -117 -38 -118 -93 -26 hvcurveto
          12 -11 -9 4 -10 hhcurveto
          -21 -15 -17 -19 -20 15 -16 21 141 73 158 159 hvcurveto
          endchar
        </CharString>
        <CharString name="Eogonek">
          188 -209 37 172 29 callsubr
          115 callsubr
          -23 42 97 53 -23 52 hintmask 0111110010000000
          -100 callsubr
          hintmask 1101101100000000
          -98 callsubr
          454 hlineto
          -64 -41 -19 -34 -46 vvcurveto
          -40 34 -48 59 36 36 25 33 24 vhcurveto
          -20 callgsubr
          47 36 41 61 35 hvcurveto
          50 hlineto
          hintmask 0000000010000000
          5 callgsubr
          endchar
        </CharString>
        <CharString name="Eogonekacute">
          188 -209 37 172 44 251 44 228 44 63 -21 120 -20 115 callsubr
          -23 42 97 53 -23 52 hintmask 0111001100100000
          -100 callsubr
          hintmask 1101001011000000
          -98 callsubr
          454 hlineto
          -64 -41 -19 -34 -46 vvcurveto
          -40 34 -48 59 36 36 25 33 24 vhcurveto
          -20 callgsubr
          47 36 41 61 35 hvcurveto
          50 hlineto
          hintmask 0000000000100000
          5 callgsubr
          hintmask 0000110000000000
          -219 713 -107 callgsubr
        </CharString>
        <CharString name="Epsilon">
          25 callsubr
          30 callgsubr
          hintmask 11111010
          -100 callsubr
          hintmask 10110100
          -98 callsubr
          560 hlineto
          hintmask 00000010
          5 callgsubr
          endchar
        </CharString>
        <CharString name="Ereversed">
          25 callsubr
          hstemhm
          46 52 -23 53 116 53 224 52 hintmask 11101110
          670 165 callsubr
          12 20 -23 callgsubr
          -531 hlineto
          -27 -5 -8 -25 hvcurveto
          -75 vlineto
          -16 0 -17 74 callgsubr
          64 393 -228 -224 vlineto
          44 0 15 -27 -26 0 -18 -15 vhcurveto
          -96 vlineto
          -15 0 -18 26 27 0 15 44 vhcurveto
          224 -251 hlineto
          hintmask 10010000
          -423 81 hlineto
          15 0 18 -27 -25 0 -18 -15 vhcurveto
          -92 vlineto
          -26 5 -7 27 vhcurveto
          560 -72 callgsubr
          endchar
        </CharString>
        <CharString name="Eta">
          160 callgsubr
          hstem
          142 53 367 53 vstem
          -90 callgsubr
          endchar
        </CharString>
        <CharString name="Eth">
          -9 callsubr
        </CharString>
        <CharString name="Etilde">
          188 0 44 251 44 228 44 32 48 -16 49 -33 48 -40 49 30 callgsubr
          hintmask 1110000110100000
          -100 callsubr
          hintmask 1010000101000000
          -98 callsubr
          560 hlineto
          hintmask 0000000000100000
          5 callgsubr
          hintmask 0000001000000000
          -148 691 -93 callsubr
        </CharString>
        <CharString name="Euro">
          145 -11 45 183 46 86 46 182 45 hstemhm
          69 53 -45 53 -11 53 -50 53 278 53 hintmask 1100000110000000
          598 9 rmoveto
          93 vlineto
          11 -9 10 -12 vhcurveto
          -12 hlineto
          -10 -9 -8 -10 -2 hvcurveto
          -54 -10 -64 -17 -61 hhcurveto
          -64 -60 30 48 -42 hvcurveto
          -24 28 -18 31 -16 46 rrcurveto
          261 hlineto
          7 5 4 6 2 hvcurveto
          7 16 rlineto
          10 3 -7 10 -10 hhcurveto
          -278 hlineto
          hintmask 0000001000000000
          -2 19 -1 11 13 vvcurveto
          hintmask 0011000110000000
          12 1 11 2 20 vhcurveto
          317 hlineto
          6 6 4 5 2 hvcurveto
          5 17 rlineto
          9 3 -7 11 -10 hhcurveto
          -312 hlineto
          16 45 18 31 24 27 rrcurveto
          49 42 60 30 64 hhcurveto
          61 64 -17 -54 10 hvcurveto
          -10 2 9 -8 10 hhcurveto
          12 hlineto
          12 9 10 11 hvcurveto
          93 vlineto
          11 -9 9 -12 vhcurveto
          -4 hlineto
          -7 -6 -3 -6 -4 hvcurveto
          -15 -22 rlineto
          24 -44 -48 7 -47 hhcurveto
          -78 -72 -36 -57 -51 hvcurveto
          hintmask 0010010000000000
          -33 -37 -23 -45 -15 -52 rrcurveto
          -47 154 callgsubr
          hintmask 0010010000000000
          -9 -3 7 -10 10 hhcurveto
          hintmask 0010000100000000
          45 hlineto
          hintmask 0000001000000000
          -2 -21 -1 -11 -11 vvcurveto
          hintmask 0100000100000000
          -11 1 -12 2 -20 vhcurveto
          -39 154 callgsubr
          hintmask 1100010000000000
          -9 -3 7 -10 10 hhcurveto
          53 hlineto
          15 -53 23 -45 33 -37 rrcurveto
          -57 51 72 -36 78 hhcurveto
          47 48 9 22 44 hvcurveto
          15 -22 rlineto
          -6 4 6 -3 7 hhcurveto
          4 hlineto
          12 9 9 11 hvcurveto
          endchar
        </CharString>
        <CharString name="F">
          159 0 44 239 45 239 44 hstem
          143 53 217 53 107 53 cntrmask 11100000
          626 25 callgsubr
          -516 -96 callsubr
          208 hlineto
          11 20 0 22 22 -19 0 -12 hvcurveto
          -90 239 217 hlineto
          -43 0 -15 74 callgsubr
          95 vlineto
          59 callgsubr
          -15 -43 vhcurveto
          -217 239 377 -64 hlineto
          -15 0 -18 26 27 91 callgsubr
          endchar
        </CharString>
        <CharString name="G">
          305 -11 165 callgsubr
          402 53 82 53 -52 52 hintmask 11000100
          -51 callsubr
          hintmask 10111101
          -84 callgsubr
          hintmask 11000010
          113 -35 callgsubr
          endchar
        </CharString>
        <CharString name="Gacute">
          53 callgsubr
          52 -21 120 -20 139 callsubr
          hintmask 1100000100000000
          -51 callsubr
          hintmask 1011001101000000
          -84 callgsubr
          hintmask 1100000010000000
          113 -35 callgsubr
          hintmask 0000110000000000
          -265 509 -107 callgsubr
        </CharString>
        <CharString name="Gamma">
          130 42 callgsubr
          144 52 348 52 vstem
          596 25 callgsubr
          -485 hlineto
          -13 -19 0 -23 -21 20 0 12 hvcurveto
          65 -523 55 callgsubr
          523 348 -64 hlineto
          179 callsubr
          27 91 callgsubr
          endchar
        </CharString>
        <CharString name="Gbreve">
          53 callgsubr
          31 47 51 -20 139 callsubr
          hintmask 1100000100000000
          -51 callsubr
          hintmask 1011001101000000
          -84 callgsubr
          hintmask 1100000010000000
          113 -35 callgsubr
          hintmask 0000110000000000
          -193 491 -105 callgsubr
          endchar
        </CharString>
        <CharString name="Gcaron">
          53 callgsubr
          107 -20 139 callsubr
          hintmask 1100001000000000
          -51 callsubr
          hintmask 1011011010000000
          -84 callgsubr
          hintmask 1100000100000000
          113 -35 callgsubr
          hintmask 0000100000000000
          -223 470 rmoveto
          -98 callgsubr
        </CharString>
        <CharString name="Gcedilla">
          305 31 callgsubr
          62 165 callgsubr
          269 68 65 129 callsubr
          hintmask 0011000010000000
          -51 callsubr
          hintmask 0010111010100000
          -84 callgsubr
          hintmask 1111000101000000
          113 -35 callgsubr
          -328 -349 -99 callsubr
        </CharString>
        <CharString name="Gcircumflex">
          53 callgsubr
          42 -21 139 callsubr
          hintmask 1100001000000000
          -51 callsubr
          hintmask 1011011010000000
          -84 callgsubr
          hintmask 1100000100000000
          113 -35 callgsubr
          hintmask 0000100000000000
          -223 428 -106 callgsubr
          endchar
        </CharString>
        <CharString name="Gcommaaccent">
          305 31 callgsubr
          62 165 callgsubr
          269 68 65 129 callsubr
          hintmask 0011000010000000
          -51 callsubr
          hintmask 0010111010100000
          -84 callgsubr
          hintmask 0011000001000000
          113 -35 callgsubr
          hintmask 1100000100000000
          -328 -349 -99 callsubr
        </CharString>
        <CharString name="Gdotaccent">
          53 callgsubr
          32 84 hstemhm
          57 52 257 85 60 129 callsubr
          hintmask 1100000100000000
          -51 callsubr
          hintmask 1011010101000000
          -84 callgsubr
          hintmask 1100000010000000
          113 -35 callgsubr
          hintmask 0000101000000000
          -323 459 -102 callsubr
        </CharString>
        <CharString name="H">
          160 callgsubr
          hstem
          142 53 367 53 vstem
          -90 callgsubr
          endchar
        </CharString>
        <CharString name="H_uni0303">
          0 44 252 44 227 47 callsubr
          142 53 367 53 hintmask 1110000110000000
          -90 callgsubr
          hintmask 0000001000000000
          -161 702 -93 callsubr
        </CharString>
        <CharString name="Hbar">
          0 44 252 44 100 45 82 44 hstem
          142 53 367 53 vstem
          712 -80 callgsubr
          -65 396 70 hlineto
          12 11 10 13 12 -11 10 -12 hvcurveto
          -70 82 65 -19 callsubr
          -183 -4 callgsubr
          -23 -21 141 callgsubr
          65 -82 -367 82 64 hlineto
          -70 callsubr
          -82 -70 hlineto
          -12 -11 -10 -12 -13 11 -10 12 hvcurveto
          70 -396 -64 callsubr
          -39 callgsubr
          182 -77 callgsubr
          -64 252 367 -252 -38 callgsubr
          hvcurveto
          -150 318 rmoveto
          -367 100 367 hlineto
          endchar
        </CharString>
        <CharString name="Hbrevebelow">
          -199 47 51 -20 121 86 callgsubr
          85 callgsubr
          hintmask 00111110
          -90 callgsubr
          hintmask 11000000
          -160 -146 -105 callgsubr
          endchar
        </CharString>
        <CharString name="Hcircumflex">
          160 callgsubr
          53 -21 85 callgsubr
          hintmask 11101100
          -90 callgsubr
          hintmask 00010000
          -190 643 -106 callgsubr
          endchar
        </CharString>
        <CharString name="Hdieresis">
          160 callgsubr
          32 74 100 callgsubr
          46 141 callsubr
          43 53 hintmask 11101001
          -90 callgsubr
          hintmask 00010110
          -396 658 -69 callgsubr
        </CharString>
        <CharString name="Hdotbelow">
          -206 84 122 86 callgsubr
          100 callgsubr
          141 85 141 53 hintmask 01111010
          -90 callgsubr
          hintmask 10000100
          -291 -186 -102 callsubr
        </CharString>
        <CharString name="I">
          97 callsubr
          hstem
          148 53 vstem
          -97 callgsubr
          endchar
        </CharString>
        <CharString name="I_J">
          328 -11 44 -33 176 callgsubr
          141 52 201 73 202 53 0 73 hintmask 01110100
          295 129 callgsubr
          -13 vhcurveto
          -70 523 70 hlineto
          -41 callgsubr
          -192 hlineto
          -13 -19 0 -23 -21 -67 callsubr
          70 -523 -70 -14 callsubr
          192 -72 callgsubr
          500 567 136 callgsubr
          -186 -50 callgsubr
          93 -432 hlineto
          hintmask 10101100
          -96 -92 -6 -21 -9 -53 0 35 -38 vhcurveto
          8 11 3 4 13 vvcurveto
          19 -15 17 -21 -19 -18 -13 -26 -61 65 -43 97 87 79 51 89 vhcurveto
          438 40 vlineto
          hintmask 00000010
          13 191 callgsubr
          endchar
        </CharString>
        <CharString name="Iacute">
          -162 0 44 523 44 63 -21 120 -35 callsubr
          hintmask 00110000
          -27 724 -107 callgsubr
        </CharString>
        <CharString name="Ibreve">
          97 callsubr
          42 47 51 -35 callsubr
          hintmask 00110000
          45 706 -105 callgsubr
          endchar
        </CharString>
        <CharString name="Icaron">
          -162 119 callsubr
          148 53 hintmask 11010000
          -97 callgsubr
          hintmask 00100000
          15 685 rmoveto
          -98 callgsubr
        </CharString>
        <CharString name="Icircumflex">
          97 callsubr
          53 -21 hstemhm
          148 53 hintmask 11010000
          -97 callgsubr
          hintmask 00100000
          15 643 -106 callgsubr
          endchar
        </CharString>
        <CharString name="Idblgrave">
          97 callsubr
          63 -21 118 -35 callsubr
          hintmask 00111000
          32 660 -103 callsubr
        </CharString>
        <CharString name="Idieresis">
          -162 145 callsubr
          hstemhm
          37 75 36 53 39 75 hintmask 11001000
          -97 callgsubr
          hintmask 00110100
          -191 658 -69 callgsubr
        </CharString>
        <CharString name="Idieresisacute">
          -162 0 44 523 44 32 146 callgsubr
          37 75 36 53 39 75 hintmask 11000010
          -97 callgsubr
          hintmask 00111101
          -191 658 -88 callgsubr
          -39 171 -107 callgsubr
        </CharString>
        <CharString name="Idotaccent">
          97 callsubr
          43 84 hstemhm
          132 85 -69 -31 callgsubr
          hintmask 00110000
          -86 674 -102 callsubr
        </CharString>
        <CharString name="Idotbelow">
          -162 34 callgsubr
          hstemhm
          132 85 -69 53 hintmask 01101000
          -97 callgsubr
          hintmask 10010000
          -86 -186 -102 callsubr
        </CharString>
        <CharString name="Igrave">
          -162 0 44 523 44 63 -21 120 -35 callsubr
          hintmask 00110000
          -28 663 -102 callgsubr
        </CharString>
        <CharString name="Ihookabove">
          -162 0 44 523 172 callgsubr
          84 39 25 53 -52 37 44 37 hintmask 11000100
          -97 callgsubr
          hintmask 00111011
          -36 777 -103 callgsubr
        </CharString>
        <CharString name="Imacron">
          97 callsubr
          52 46 hstemhm
          148 53 hintmask 11010000
          -97 callgsubr
          hintmask 00100000
          58 663 -89 callgsubr
        </CharString>
        <CharString name="Imacron.alt">
          97 callsubr
          52 46 hstemhm
          148 53 hintmask 11010000
          -97 callgsubr
          hintmask 00100000
          -30 663 23 callgsubr
        </CharString>
        <CharString name="Iogonek">
          -162 -209 37 172 176 callgsubr
          112 42 -6 53 hintmask 01101000
          303 -80 callgsubr
          -70 523 70 -19 callsubr
          -193 21 callgsubr
          70 -523 -70 -45 callsubr
          -39 callgsubr
          103 hlineto
          hintmask 11010000
          47 callgsubr
          endchar
        </CharString>
        <CharString name="Iogonekacute">
          -162 -209 37 172 57 callgsubr
          112 42 -6 53 hintmask 01100010
          303 -80 callgsubr
          -70 523 70 -19 callsubr
          -193 21 callgsubr
          70 -523 -70 -45 callsubr
          -39 callgsubr
          103 hlineto
          hintmask 11000100
          47 callgsubr
          hintmask 00011000
          -27 724 -107 callgsubr
        </CharString>
        <CharString name="Iota">
          97 callsubr
          hstem
          148 53 vstem
          -97 callgsubr
          endchar
        </CharString>
        <CharString name="Itilde">
          -162 40 callsubr
          148 53 hintmask 11000010
          -97 callgsubr
          hintmask 00000100
          44 702 rmoveto
          12 -11 12 -12 vhcurveto
          hintmask 00001000
          -87 callgsubr
          hintmask 00100100
          -106 callsubr
          hintmask 00010000
          -76 callgsubr
        </CharString>
        <CharString name="J">
          13 -11 162 callgsubr
          74 74 202 52 vstem
          -40 callsubr
          endchar
        </CharString>
        <CharString name="J_uni030C.cap">
          13 -11 44 434 -21 121 44 hstem
          74 74 202 52 119 68 vstem
          -40 callsubr
          114 -37 -99 callsubr
        </CharString>
        <CharString name="Jacute">
          13 -11 44 534 98 callgsubr
          74 74 202 52 hintmask 11001100
          -40 callsubr
          hintmask 00110000
          -27 157 -107 callgsubr
        </CharString>
        <CharString name="Jcircumflex">
          13 62 callsubr
          53 -21 hstemhm
          74 74 202 52 hintmask 11011000
          -40 callsubr
          hintmask 00100000
          15 76 -106 callgsubr
          endchar
        </CharString>
        <CharString name="K">
          276 42 callgsubr
          147 43 vstem
          -70 callgsubr
          endchar
        </CharString>
        <CharString name="Kappa">
          276 42 callgsubr
          147 43 vstem
          -70 callgsubr
          endchar
        </CharString>
        <CharString name="Kcedilla">
          276 29 callgsubr
          hstem
          147 43 173 68 vstem
          -70 callgsubr
          -313 -134 -99 callsubr
        </CharString>
        <CharString name="Kcommaaccent">
          276 29 callgsubr
          hstemhm
          147 43 173 68 hintmask 00111000
          -70 callgsubr
          hintmask 11000100
          -313 -134 -99 callsubr
        </CharString>
        <CharString name="L">
          130 42 callgsubr
          144 52 348 52 vstem
          -78 callsubr
          endchar
        </CharString>
        <CharString name="L_uni0303">
          130 40 callsubr
          144 52 348 52 hintmask 11000011
          -78 callsubr
          hintmask 00000100
          -104 691 rmoveto
          12 -11 12 -12 vhcurveto
          hintmask 00001000
          -87 callgsubr
          hintmask 00100100
          -106 callsubr
          hintmask 00010000
          -76 callgsubr
        </CharString>
        <CharString name="Lacute">
          130 59 callsubr
          144 52 348 52 hintmask 11001100
          -78 callsubr
          hintmask 00110000
          -175 713 -107 callgsubr
        </CharString>
        <CharString name="Lambda">
          188 0 44 529 50 hstem
          659 129 callgsubr
          -13 vhcurveto
          -43 hlineto
          -180 552 rlineto
          27 -9 -20 0 -16 hhcurveto
          -19 hlineto
          -16 -20 0 -27 -9 hvcurveto
          -180 -552 rlineto
          -43 -14 callsubr
          154 -77 callgsubr
          -56 hlineto
          173 529 rlineto
          12 hlineto
          174 -529 rlineto
          -56 -14 callsubr
          154 -72 callgsubr
          endchar
        </CharString>
        <CharString name="Lcaron">
          130 0 44 423 -21 121 44 hstem
          144 52 187 68 93 52 vstem
          -78 callsubr
          -145 519 -99 callsubr
        </CharString>
        <CharString name="Lcedilla">
          130 29 callgsubr
          hstem
          144 52 94 68 186 52 vstem
          -78 callsubr
          -238 -145 -99 callsubr
        </CharString>
        <CharString name="Lcommaaccent">
          130 29 callgsubr
          hstemhm
          144 52 94 68 186 52 hintmask 00111010
          -78 callsubr
          hintmask 11000100
          -238 -145 -99 callsubr
        </CharString>
        <CharString name="Ldot">
          130 0 44 231 84 208 44 hstem
          144 52 252 85 11 52 vstem
          -78 callsubr
          -63 284 -102 callsubr
        </CharString>
        <CharString name="Ldotbelow">
          130 34 callgsubr
          hstemhm
          144 52 82 85 181 52 hintmask 01110100
          -78 callsubr
          hintmask 10001000
          -233 -197 -102 callsubr
        </CharString>
        <CharString name="Ldotbelowmacron">
          130 34 callgsubr
          52 46 hstemhm
          144 52 82 85 181 52 hintmask 11101110
          -78 callsubr
          -233 -197 -101 callgsubr
          hintmask 00010000
          5 849 -89 callgsubr
        </CharString>
        <CharString name="Lslash">
          130 0 176 callgsubr
          92 52 0 52 348 52 hintmask 11011000
          596 39 callgsubr
          -26 -26 163 callsubr
          -81 -348 267 vlineto
          211 146 10 7 3 12 -8 10 rlinecurve
          -9 11 -9 3 -10 -7 -188 -132 rcurveline
          206 90 12 callsubr
          -207 hlineto
          -13 -19 0 -23 -21 -67 callsubr
          65 -235 hlineto
          -75 -54 -10 -7 -5 -13 9 -10 rlinecurve
          hintmask 10101000
          8 -9 10 -5 11 9 52 39 rcurveline
          -238 -65 vlineto
          -66 callsubr
          485 66 callgsubr
          endchar
        </CharString>
        <CharString name="M">
          421 42 callgsubr
          147 39 241 39 280 39 vstem
          -54 callgsubr
          endchar
        </CharString>
        <CharString name="Mdotbelow">
          421 34 callgsubr
          hstemhm
          147 39 238 85 -82 39 280 39 hintmask 01110110
          -54 callgsubr
          hintmask 10001000
          -373 -186 rmoveto
          -17 callgsubr
          -18 callsubr
          vhcurveto
          hintmask 10000100
          -23 19 -19 23 vhcurveto
          hintmask 00001000
          26 17 21 21 hvcurveto
          endchar
        </CharString>
        <CharString name="Mu">
          421 42 callgsubr
          147 39 241 39 280 39 vstem
          -54 callgsubr
          endchar
        </CharString>
        <CharString name="N">
          42 callgsubr
          136 callsubr
          vstem
          -97 callsubr
          endchar
        </CharString>
        <CharString name="Nacute">
          59 callsubr
          136 callsubr
          hintmask 11001100
          -97 callsubr
          hintmask 00110000
          -225 158 -107 callgsubr
        </CharString>
        <CharString name="Ncaron">
          119 callsubr
          136 callsubr
          hintmask 11011000
          -97 callsubr
          hintmask 00100000
          -183 119 rmoveto
          -98 callgsubr
        </CharString>
        <CharString name="Ncedilla">
          29 callgsubr
          hstem
          149 39 161 68 152 39 vstem
          -97 callsubr
          -288 -700 -99 callsubr
        </CharString>
        <CharString name="Ncommaaccent">
          29 callgsubr
          hstemhm
          149 39 161 68 152 39 hintmask 00111010
          -97 callsubr
          hintmask 11000100
          -288 -700 -99 callsubr
        </CharString>
        <CharString name="Ndotaccent">
          0 callsubr
          32 84 hstemhm
          149 39 148 85 148 39 hintmask 11010100
          -97 callsubr
          hintmask 00101000
          -284 97 -102 callsubr
        </CharString>
        <CharString name="Ndotbelow">
          34 callgsubr
          hstemhm
          149 39 148 85 148 39 hintmask 01110100
          -97 callsubr
          hintmask 10001000
          -284 -752 -102 callsubr
        </CharString>
        <CharString name="Ntilde">
          40 callsubr
          136 callsubr
          hintmask 11000011
          -97 callsubr
          hintmask 00000100
          -154 136 rmoveto
          12 -11 12 -12 vhcurveto
          hintmask 00001000
          -87 callgsubr
          hintmask 00100100
          -106 callsubr
          hintmask 00010000
          -76 callgsubr
        </CharString>
        <CharString name="Nu">
          42 callgsubr
          136 callsubr
          vstem
          -97 callsubr
          endchar
        </CharString>
        <CharString name="O">
          39 callsubr
          hstem
          83 callgsubr
          vstem
          -104 callgsubr
          endchar
        </CharString>
        <CharString name="OE">
          -43 callsubr
        </CharString>
        <CharString name="OE.dup">
          -43 callsubr
        </CharString>
        <CharString name="Oacute">
          305 170 callsubr
          57 52 598 52 hintmask 11001100
          -104 callgsubr
          hintmask 00110000
          -198 429 -107 callgsubr
        </CharString>
        <CharString name="Obreve">
          39 callsubr
          31 47 51 -20 82 callsubr
          hintmask 11001100
          -104 callgsubr
          hintmask 00110000
          -126 411 -105 callgsubr
          endchar
        </CharString>
        <CharString name="Ocaron">
          39 callsubr
          107 -20 -27 callsubr
          -156 390 rmoveto
          -98 callgsubr
        </CharString>
        <CharString name="Ocircumflex">
          120 callgsubr
          -27 callsubr
          -156 348 -106 callgsubr
          endchar
        </CharString>
        <CharString name="Ocircumflexacute">
          120 callgsubr
          226 -20 82 callsubr
          hintmask 11001100
          -104 callgsubr
          hintmask 00110000
          -156 348 -91 callsubr
        </CharString>
        <CharString name="Ocircumflexdotbelow">
          305 144 callgsubr
          42 -21 hstemhm
          57 52 257 85 256 52 hintmask 01111010
          -104 callgsubr
          -156 348 -106 callgsubr
          hintmask 10000100
          -100 -829 -102 callsubr
        </CharString>
        <CharString name="Ocircumflexgrave">
          120 callgsubr
          -27 callsubr
          -156 348 -91 callgsubr
        </CharString>
        <CharString name="Ocircumflexhookabove">
          120 callgsubr
          86 37 143 37 hstemhm
          57 52 300 97 callgsubr
          115 52 hintmask 1100010000010000
          -104 callgsubr
          hintmask 0010001001000000
          -156 348 rmoveto
          8 -4 8 -9 3 vhcurveto
          -122 44 -4 1 -6 0 -4 -1 rlinecurve
          -122 -44 rlineto
          -9 -3 -4 -8 -8 vvcurveto
          -11 8 -11 11 3 2 0 1 3 vhcurveto
          115 35 115 -35 rlineto
          hintmask 0010101010100000
          -1 3 2 0 3 hhcurveto
          11 8 11 11 hvcurveto
          41 209 -75 callgsubr
          hintmask 0001000100000000
          68 callsubr
          hintmask 0001000010000000
          122 callgsubr
          hintmask 0001000101000000
          24 callsubr
          hintmask 0000000000100000
          18 9 13 19 22 vvcurveto
          endchar
        </CharString>
        <CharString name="Ocircumflextilde">
          305 -11 44 545 44 42 164 callgsubr
          57 52 598 52 hintmask 1100000011000000
          -104 callgsubr
          hintmask 0011000100000000
          -156 348 -21 callgsubr
        </CharString>
        <CharString name="Odblgrave">
          39 callsubr
          52 -21 118 -20 82 callsubr
          hintmask 11001100
          -104 callgsubr
          hintmask 00110000
          -139 365 -103 callsubr
        </CharString>
        <CharString name="Odieresis">
          39 callsubr
          21 74 hstemhm
          57 52 161 141 callsubr
          159 52 hintmask 11010010
          -104 callgsubr
          hintmask 00101100
          -362 363 -69 callgsubr
        </CharString>
        <CharString name="Odotbelow">
          305 144 callgsubr
          hstemhm
          57 52 257 85 256 52 hintmask 01110100
          -104 callgsubr
          hintmask 10001000
          -256 -481 -102 callsubr
        </CharString>
        <CharString name="Ograve">
          305 170 callsubr
          57 52 598 52 hintmask 11001100
          -104 callgsubr
          hintmask 00110000
          -199 368 -102 callgsubr
        </CharString>
        <CharString name="Ohookabove">
          39 callsubr
          32 62 callgsubr
          57 52 208 61 callsubr
          207 52 hintmask 1100100010000000
          -104 callgsubr
          hintmask 0011011100000000
          -207 482 -103 callgsubr
        </CharString>
        <CharString name="Ohorn">
          304 35 callsubr
          6 44 42 -20 108 callsubr
          hintmask 00010010
          -5 callsubr
          hintmask 11101101
          -83 callgsubr
          endchar
        </CharString>
        <CharString name="Ohornacute">
          304 35 callsubr
          6 44 2 -21 61 -20 79 -20 108 callsubr
          hintmask 0001100010000000
          -5 callsubr
          hintmask 1110001101000000
          -83 callgsubr
          hintmask 0001010000000000
          -225 428 -107 callgsubr
        </CharString>
        <CharString name="Ohorndotbelow">
          304 144 callgsubr
          6 44 42 -20 hstemhm
          57 53 255 85 137 85 0 85 -52 52 hintmask 0000100010000000
          -5 callsubr
          hintmask 0111010101000000
          -83 callgsubr
          hintmask 1000001000000000
          -255 -482 -102 callsubr
        </CharString>
        <CharString name="Ohorngrave">
          304 35 callsubr
          6 44 2 -21 61 -20 79 -20 108 callsubr
          hintmask 0001100010000000
          -5 callsubr
          hintmask 1110001101000000
          -83 callgsubr
          hintmask 0001010000000000
          -197 367 -102 callgsubr
        </CharString>
        <CharString name="Ohornhookabove">
          304 35 callsubr
          6 44 -18 37 23 -20 140 37 hstemhm
          57 53 207 61 callsubr
          87 85 0 85 -52 52 hintmask 0000100000010000
          -5 callsubr
          hintmask 1110001000101000
          -83 callgsubr
          hintmask 0001010111000000
          -205 481 7 callsubr
          hintmask 0010000010000000
          -19 vlineto
          hintmask 0001000000000000
          122 callgsubr
          hintmask 0010000010000000
          10 8 8 10 hvcurveto
          hintmask 0001000011000000
          19 vlineto
          18 15 21 35 19 vhcurveto
          18 9 13 19 22 vvcurveto
          endchar
        </CharString>
        <CharString name="Ohorntilde">
          304 35 callsubr
          6 44 -29 48 -16 49 -33 48 -40 49 108 callsubr
          hintmask 0000000001000000
          -5 callsubr
          hintmask 1110000110100000
          -83 callgsubr
          hintmask 0000001000000000
          -154 406 -93 callsubr
        </CharString>
        <CharString name="Ohungarumlaut">
          39 callsubr
          52 -21 118 -20 82 callsubr
          hintmask 11001100
          -104 callgsubr
          hintmask 00110000
          -324 427 -84 callsubr
        </CharString>
        <CharString name="Omacron">
          39 callsubr
          41 46 -27 callsubr
          -113 368 -89 callgsubr
        </CharString>
        <CharString name="Omega">
          -19 callgsubr
        </CharString>
        <CharString name="Omicron">
          39 callsubr
          hstem
          83 callgsubr
          vstem
          -104 callgsubr
          endchar
        </CharString>
        <CharString name="Oogonek">
          305 -209 37 0 45 115 45 -44 69 callgsubr
          hstemhm
          57 52 230 42 326 52 hintmask 10101110
          54 callgsubr
          hintmask 01011111
          23 callsubr
          endchar
        </CharString>
        <CharString name="Oogonekacute">
          305 -209 37 0 45 115 45 -44 188 callgsubr
          57 52 230 42 326 52 hintmask 1010100110000000
          54 callgsubr
          hintmask 0101100111000000
          23 callsubr
          hintmask 0000011000000000
          -198 429 -107 callgsubr
        </CharString>
        <CharString name="Orogate">
          305 83 callgsubr
          vstem
          759 305 rmoveto
          167 -143 139 -186 10 vhcurveto
          113 181 callsubr
          -113 vlineto
          -188 -10 -141 -142 -163 vvcurveto
          -167 143 -139 186 -10 vhcurveto
          -113 186 callgsubr
          113 vlineto
          187 10 142 142 163 vvcurveto
          -52 12 rmoveto
          -154 -132 -130 -167 -168 -131 131 153 142 132 119 167 167 132 -119 -142 vhcurveto
          endchar
        </CharString>
        <CharString name="Oslash">
          305 -67 -21 77 69 callgsubr
          77 103 callgsubr
          hintmask 1111110010000000
          -36 callsubr
          hintmask 0110101110000000
          4 callsubr
          endchar
        </CharString>
        <CharString name="Oslash.dup">
          305 -67 -21 77 69 callgsubr
          77 103 callgsubr
          hintmask 1111110010000000
          -36 callsubr
          hintmask 0110101110000000
          4 callsubr
          endchar
        </CharString>
        <CharString name="Oslashacute">
          305 -67 -21 77 69 callgsubr
          52 -21 46 -20 94 103 callgsubr
          hintmask 1110101100100000
          -36 callsubr
          hintmask 0110001011100000
          4 callsubr
          hintmask 0001010000000000
          -211 440 -107 callgsubr
        </CharString>
        <CharString name="Otilde">
          39 callsubr
          21 -31 callsubr
          57 52 598 52 hintmask 11000011
          -104 callgsubr
          hintmask 00000100
          -127 407 rmoveto
          12 -11 12 -12 vhcurveto
          hintmask 00001000
          -87 callgsubr
          hintmask 00100100
          -106 callsubr
          hintmask 00010000
          -76 callgsubr
        </CharString>
        <CharString name="P">
          8 callsubr
        </CharString>
        <CharString name="Phi">
          42 callgsubr
          58 52 242 53 242 52 cntrmask 00111000
          699 305 rmoveto
          89 -150 53 -144 6 vhcurveto
          114 152 callgsubr
          -13 -19 0 -23 -21 -67 callsubr
          89 -114 hlineto
          -148 -6 -146 -56 -85 vvcurveto
          -89 150 -53 144 -6 vhcurveto
          -114 -89 vlineto
          -66 callsubr
          231 -77 callgsubr
          -89 114 hlineto
          148 6 146 56 85 vvcurveto
          -347 -102 rmoveto
          -81 2 -161 31 70 vvcurveto
          66 152 34 90 2 vhcurveto
          295 -102 rmoveto
          -70 -161 -31 -81 -2 vhcurveto
          205 vlineto
          89 -2 153 -34 -66 vvcurveto
          endchar
        </CharString>
        <CharString name="Pi">
          42 callgsubr
          142 53 367 53 vstem
          712 165 callsubr
          11 21 0 21 -28 callsubr
          hvcurveto
          -603 -86 callsubr
          523 367 -523 -38 callgsubr
          hvcurveto
          endchar
        </CharString>
        <CharString name="Psi">
          305 0 44 114 44 233 44 88 44 hstem
          141 53 188 53 187 53 vstem
          759 456 rmoveto
          23 -19 0 -10 -44 -21 -20 -21 -19 vhcurveto
          -22 -25 -1 -33 -1 -22 -4 -103 -82 -44 -101 -9 rrcurveto
          365 152 callgsubr
          -12 -20 0 -22 -22 51 callsubr
          89 -365 hlineto
          -112 10 -72 49 -4 100 rrcurveto
          97 -4 -64 21 -41 hhcurveto
          -8 -20 0 -23 -16 13 -4 4 -1 hvcurveto
          64 -6 2 -40 1 -35 2 -41 23 -62 41 -34 55 -43 52 -10 68 -6 rrcurveto
          -114 105 callsubr
          114 hlineto
          136 11 99 62 5 125 1 29 2 44 61 6 rrcurveto
          11 1 9 7 13 vvcurveto
          endchar
        </CharString>
        <CharString name="Q">
          305 -122 -21 132 69 callgsubr
          hstem
          83 callgsubr
          vstem
          -81 callgsubr
          29 33 3 10 40 vhcurveto
          2 6 5 0 3 hhcurveto
          19 -19 102 -113 rlineto
          -15 13 9 0 18 hhcurveto
          10 13 0 8 3 -13 14 -7 9 hvcurveto
          -120 131 rlineto
          173 94 18 133 56 vvcurveto
          -52 1 rmoveto
          -106 -67 -95 -105 -46 vhcurveto
          -54 57 -18 22 -11 11 rrcurveto
          8 -9 -1 1 -20 hhcurveto
          -14 -8 0 -11 -1 hvcurveto
          91 -105 rlineto
          -47 -9 -35 0 0 vvcurveto
          105 callgsubr
          hvcurveto
          endchar
        </CharString>
        <CharString name="R">
          -80 callsubr
          endchar
        </CharString>
        <CharString name="Racute">
          -80 callsubr
          hintmask 11100000
          -92 299 -107 callgsubr
        </CharString>
        <CharString name="Rcaron">
          -80 callsubr
          hintmask 11100000
          -50 260 rmoveto
          -98 callgsubr
        </CharString>
        <CharString name="Rcedilla">
          0 44 239 45 239 44 100 callgsubr
          96 53 5 68 114 -87 callsubr
          hintmask 1110010100000000
          65 callgsubr
          -155 -559 -99 callsubr
        </CharString>
        <CharString name="Rcommaaccent">
          0 44 239 45 239 44 100 callgsubr
          96 53 5 68 114 -87 callsubr
          hintmask 1110000100000000
          65 callgsubr
          hintmask 1110010000000000
          -155 -559 -99 callsubr
        </CharString>
        <CharString name="Rdblgrave">
          -80 callsubr
          hintmask 11100000
          -62 235 -103 callsubr
        </CharString>
        <CharString name="Rdotaccent">
          0 44 239 45 239 44 100 callgsubr
          96 53 -8 85 110 -87 callsubr
          hintmask 1110000100000000
          65 callgsubr
          hintmask 1110010000000000
          -151 249 -102 callsubr
        </CharString>
        <CharString name="Rdotbelow">
          0 44 239 45 239 44 100 callgsubr
          96 53 -8 85 110 -87 callsubr
          hintmask 1110000100000000
          65 callgsubr
          hintmask 1110010000000000
          -151 -611 -102 callsubr
        </CharString>
        <CharString name="Rdotbelowmacron">
          0 44 239 45 239 44 100 callgsubr
          96 53 -8 85 110 -87 callsubr
          hintmask 1110010100000000
          65 callgsubr
          -151 -611 -101 callgsubr
          hintmask 1111000000000000
          144 849 -89 callgsubr
        </CharString>
        <CharString name="Rho">
          8 callsubr
        </CharString>
        <CharString name="S">
          71 148 callgsubr
          60 49 364 49 vstem
          -93 callgsubr
          endchar
        </CharString>
        <CharString name="S_S">
          655 35 callsubr
          hstemhm
          51 48 -48 49 364 49 139 48 365 49 hintmask 01010000
          513 162 rmoveto
          78 -63 69 -88 19 vhcurveto
          -153 32 rlineto
          -30 6 -79 32 69 vvcurveto
          55 60 56 93 115 47 -58 -74 14 vhcurveto
          -14 3 2 -12 22 hhcurveto
          27 0 18 15 hvcurveto
          136 130 callgsubr
          -15 -3 -8 -51 -17 vhcurveto
          53 -62 -70 68 callgsubr
          hvcurveto
          hintmask 11101110
          140 callgsubr
          vhcurveto
          40 -37 36 -7 92 -20 44 -9 rcurveline
          66 -14 16 -3 35 -30 rrcurveto
          0 36 -32 -48 vvcurveto
          -60 -55 -65 -101 -59 -54 13 17 -30 vhcurveto
          -40 25 -18 27 -3 50 rrcurveto
          11 -1 -1 15 -24 hhcurveto
          116 callgsubr
          hvcurveto
          -136 vlineto
          -13 0 -20 22 15 4 10 45 17 vhcurveto
          -50 68 83 -5 47 hhcurveto
          131 75 87 86 hvcurveto
          601 hmoveto
          78 -64 69 -88 19 vhcurveto
          -152 32 rlineto
          -30 6 -80 32 69 vvcurveto
          55 61 56 93 114 48 -58 -74 14 vhcurveto
          -14 2 2 -12 23 hhcurveto
          27 0 18 15 hvcurveto
          136 130 callgsubr
          -16 -2 -8 -51 -18 vhcurveto
          53 -62 -69 6 -40 hhcurveto
          -123 -80 -77 -82 -49 25 -35 23 -21 hvcurveto
          39 -37 37 -7 91 -20 45 -9 rcurveline
          66 -14 16 -3 35 -30 rrcurveto
          0 36 -32 -48 vvcurveto
          -60 -55 -65 -101 -59 -54 13 17 -30 vhcurveto
          -40 25 -18 27 -3 50 rrcurveto
          11 -1 -1 15 -24 hhcurveto
          116 callgsubr
          hvcurveto
          -136 vlineto
          -13 0 -20 22 15 4 10 45 16 vhcurveto
          -50 68 84 -5 47 hhcurveto
          130 76 87 86 hvcurveto
          endchar
        </CharString>
        <CharString name="Sacute">
          71 170 callsubr
          60 49 364 49 hintmask 11001100
          -93 callgsubr
          hintmask 00110000
          -130 584 -107 callgsubr
        </CharString>
        <CharString name="Scaron">
          71 35 callsubr
          107 -20 hstemhm
          60 49 364 49 hintmask 11011000
          -93 callgsubr
          hintmask 00100000
          -88 545 rmoveto
          -98 callgsubr
        </CharString>
        <CharString name="Scedilla">
          71 -214 45 158 173 callsubr
          -49 53 61 53 -23 49 42 53 -31 53 15 49 -49 52 -52 53 32 52 -49 49 hintmask 0011000010011000
          522 162 rmoveto
          78 -63 69 -89 19 vhcurveto
          -152 32 rlineto
          -30 6 -79 32 69 vvcurveto
          55 60 56 93 114 48 -58 -74 14 vhcurveto
          -14 3 2 -12 22 hhcurveto
          27 0 18 15 hvcurveto
          136 130 callgsubr
          vhcurveto
          hintmask 0010100001000000
          -15 -3 -8 -51 -18 hvcurveto
          53 -62 -69 68 callgsubr
          140 callgsubr
          hvcurveto
          40 -37 36 -7 91 -20 45 -9 rcurveline
          hintmask 0100110010100100
          66 -14 16 -3 35 -30 rrcurveto
          0 36 -32 -48 vvcurveto
          -60 -55 -65 -101 -59 -54 13 17 -30 vhcurveto
          -40 25 -18 27 -3 50 rrcurveto
          11 -1 -1 15 -24 hhcurveto
          116 callgsubr
          hvcurveto
          -136 vlineto
          -13 0 -20 22 15 4 10 44 16 vhcurveto
          hintmask 0100000100000000
          58 -41 64 -10 56 -3 rrcurveto
          -26 vlineto
          hintmask 1000001010010000
          120 callsubr
          40 171 callgsubr
          -23 0 -23 vhcurveto
          hintmask 1000010100100100
          -17 15 -5 8 82 128 0 94 52 -39 28 -50 12 vhcurveto
          19 vlineto
          110 13 64 79 79 vvcurveto
          endchar
        </CharString>
        <CharString name="Scircumflex">
          71 35 callsubr
          42 -21 hstemhm
          60 49 364 49 hintmask 11011000
          -93 callgsubr
          hintmask 00100000
          -88 503 -106 callgsubr
          endchar
        </CharString>
        <CharString name="Sdotbelow">
          71 144 callgsubr
          hstemhm
          60 49 140 85 139 49 hintmask 01110100
          -93 callgsubr
          hintmask 10001000
          -188 -326 -102 callsubr
        </CharString>
        <CharString name="Sigma">
          0 46 521 44 hstem
          647 52 vstem
          699 33 rmoveto
          77 -10 callsubr
          -17 -16 vhcurveto
          -64 -504 vlineto
          201 239 rlineto
          10 11 0 9 0 vvcurveto
          8 -4 5 -6 7 vhcurveto
          -207 242 rlineto
          510 -64 hlineto
          -15 0 -18 26 26 91 callgsubr
          75 vlineto
          25 -4 8 -28 vhcurveto
          -577 -48 callsubr
          -8 3 -4 6 -8 hvcurveto
          224 -263 -230 -274 rlineto
          -2 -4 -1 -3 -4 vvcurveto
          -20 22 0 10 vhcurveto
          577 66 callgsubr
          endchar
        </CharString>
        <CharString name="T">
          42 callgsubr
          113 callsubr
          vstem
          -79 callsubr
          endchar
        </CharString>
        <CharString name="T_uni0303">
          40 callsubr
          113 callsubr
          hintmask 1100001110000000
          -79 callsubr
          hintmask 0000010000000000
          -169 221 rmoveto
          12 -11 12 -12 vhcurveto
          hintmask 0000100000000000
          -87 callgsubr
          hintmask 0010010000000000
          -106 callsubr
          hintmask 0001000000000000
          -76 callgsubr
        </CharString>
        <CharString name="T_uni0308">
          145 callsubr
          hstemhm
          37 52 152 75 36 53 39 75 148 53 hintmask 11010101
          -79 callsubr
          hintmask 00101010
          -404 177 -69 callgsubr
        </CharString>
        <CharString name="Tau">
          42 callgsubr
          113 callsubr
          vstem
          -79 callsubr
          endchar
        </CharString>
        <CharString name="Tcaron">
          119 callsubr
          113 callsubr
          hintmask 11011100
          -79 callsubr
          hintmask 00100000
          -198 204 rmoveto
          -98 callgsubr
        </CharString>
        <CharString name="Tcedilla">
          -217 45 172 176 callgsubr
          37 52 263 53 -52 53 37 52 172 53 hintmask 01111001
          720 25 callgsubr
          -618 hlineto
          -27 -6 -6 -27 hvcurveto
          -75 vlineto
          -15 0 -18 26 26 91 callgsubr
          64 263 -523 -105 vlineto
          49 callgsubr
          hintmask 11000110
          106 -6 hlineto
          -34 vlineto
          120 callsubr
          16 callgsubr
          50 -37 29 -52 14 vhcurveto
          hintmask 01101001
          12 0 10 -1 8 vhcurveto
          105 hlineto
          2 callgsubr
          22 71 callgsubr
          -105 523 262 -64 hlineto
          -15 0 -18 26 27 91 callgsubr
          endchar
        </CharString>
        <CharString name="Tdotbelow">
          34 callgsubr
          hstemhm
          37 52 247 85 -69 53 262 53 hintmask 01110110
          -79 callsubr
          hintmask 10001000
          -299 -667 -102 callsubr
        </CharString>
        <CharString name="Theta">
          305 -11 44 247 51 247 44 hstem
          57 52 80 50 338 50 80 52 cntrmask 11100000
          -81 callgsubr
          -11 callsubr
          vhcurveto
          -52 1 rmoveto
          -150 -133 -123 -166 105 callgsubr
          vhcurveto
          -80 -25 rmoveto
          49 45 callgsubr
          -26 -9 -16 0 -32 -2 vhcurveto
          -332 hlineto
          31 -2 -16 1 -9 hhcurveto
          -26 0 -18 -15 hvcurveto
          -49 vlineto
          -15 0 -18 26 9 16 0 32 2 vhcurveto
          332 hlineto
          -31 2 16 -1 9 hhcurveto
          26 0 18 15 hvcurveto
          endchar
        </CharString>
        <CharString name="Thorn">
          130 0 44 113 44 270 44 52 44 hstem
          143 52 303 53 vstem
          551 336 146 callsubr
          -110 52 65 hlineto
          -34 callgsubr
          -67 callsubr
          65 -523 -65 hlineto
          -12 -20 15 callsubr
          113 110 hlineto
          141 105 83 96 hvcurveto
          -53 hmoveto
          -71 -91 -64 -119 vhcurveto
          -93 270 93 hlineto
          120 90 -64 -71 hvcurveto
          endchar
        </CharString>
        <CharString name="Tlinebelow">
          -173 46 127 176 callgsubr
          113 callsubr
          hintmask 01111100
          -79 callsubr
          hintmask 10000000
          -155 -654 -89 callgsubr
        </CharString>
        <CharString name="U">
          -11 162 callgsubr
          142 53 367 53 vstem
          -105 callsubr
          endchar
        </CharString>
        <CharString name="U_uni032F">
          -178 -21 51 47 90 87 callgsubr
          85 callgsubr
          hintmask 00111100
          -105 callsubr
          hintmask 11000000
          -137 -764 -60 callgsubr
        </CharString>
        <CharString name="Uacute">
          -11 44 534 44 63 -21 120 113 callgsubr
          hintmask 11001100
          -105 callsubr
          hintmask 00110000
          -209 158 -107 callgsubr
        </CharString>
        <CharString name="Ubreve">
          62 callsubr
          42 47 51 113 callgsubr
          hintmask 11001100
          -105 callsubr
          hintmask 00110000
          -137 140 -105 callgsubr
          endchar
        </CharString>
        <CharString name="Ucaron">
          62 callsubr
          118 113 callgsubr
          hintmask 11011000
          -105 callsubr
          hintmask 00100000
          -167 119 rmoveto
          -98 callgsubr
        </CharString>
        <CharString name="Ucircumflex">
          62 callsubr
          53 -21 85 callgsubr
          hintmask 11011000
          -105 callsubr
          hintmask 00100000
          -167 77 -106 callgsubr
          endchar
        </CharString>
        <CharString name="Udblgrave">
          62 callsubr
          63 -21 118 113 callgsubr
          hintmask 11001100
          -105 callsubr
          hintmask 00110100
          -150 94 -103 callsubr
        </CharString>
        <CharString name="Udieresis">
          62 callsubr
          32 74 94 callsubr
          hintmask 11010010
          -105 callsubr
          hintmask 00101100
          -3 callsubr
          endchar
        </CharString>
        <CharString name="Udieresisacute">
          62 callsubr
          32 74 62 -21 120 -20 94 callsubr
          hintmask 1100010010000000
          -105 callsubr
          hintmask 0011101100000000
          -3 callsubr
          -39 171 -107 callgsubr
        </CharString>
        <CharString name="Udieresiscaron">
          62 callsubr
          32 74 117 -20 94 callsubr
          hintmask 11001001
          -105 callsubr
          hintmask 00110110
          -3 callsubr
          3 132 rmoveto
          -98 callgsubr
        </CharString>
        <CharString name="Udieresisgrave">
          62 callsubr
          32 74 62 -21 120 -20 94 callsubr
          hintmask 1100010010000000
          -105 callsubr
          hintmask 0011101100000000
          -3 callsubr
          -40 110 -102 callgsubr
        </CharString>
        <CharString name="Udotbelow">
          -206 84 111 87 callgsubr
          100 callgsubr
          164 85 118 53 hintmask 01110100
          -105 callsubr
          hintmask 10001000
          -268 -752 -102 callsubr
        </CharString>
        <CharString name="Ugrave">
          -11 44 534 44 63 -21 120 113 callgsubr
          hintmask 11001100
          -105 callsubr
          hintmask 00110000
          -210 97 -102 callgsubr
        </CharString>
        <CharString name="Uhookabove">
          -11 44 534 172 callgsubr
          142 53 116 61 callsubr
          68 53 hintmask 1100100010000000
          -105 callsubr
          hintmask 0011011100000000
          -218 211 -103 callgsubr
        </CharString>
        <CharString name="Uhorn">
          62 callsubr
          17 44 42 -20 96 callsubr
          hintmask 11110110
          -77 callsubr
          hintmask 11001001
          -33 callsubr
          endchar
        </CharString>
        <CharString name="Uhornacute">
          62 callsubr
          17 44 2 -21 61 -20 79 -20 96 callsubr
          hintmask 1110100110000000
          -77 callsubr
          hintmask 1100001001000000
          -33 callsubr
          hintmask 0001010000000000
          -220 92 -107 callgsubr
        </CharString>
        <CharString name="Uhorndotbelow">
          -206 84 111 87 callgsubr
          17 44 42 -20 100 callgsubr
          0 53 88 85 87 53 0 53 hintmask 0111101010000000
          -77 callsubr
          hintmask 0110010001000000
          -33 callsubr
          hintmask 1000000100000000
          -272 -818 -102 callsubr
        </CharString>
        <CharString name="Uhorngrave">
          62 callsubr
          17 44 2 -21 61 -20 79 -20 96 callsubr
          hintmask 1110100110000000
          -77 callsubr
          hintmask 1100001001000000
          -33 callsubr
          hintmask 0001010000000000
          -191 31 -102 callgsubr
        </CharString>
        <CharString name="Uhornhookabove">
          62 callsubr
          17 44 -18 37 23 -20 140 37 100 callgsubr
          0 53 63 61 callsubr
          14 53 0 53 hintmask 1110100100010000
          -77 callsubr
          hintmask 1101001000001000
          -33 callsubr
          hintmask 0001010011100000
          -199 145 7 callsubr
          hintmask 0010000001000000
          -19 vlineto
          hintmask 0001000000000000
          122 callgsubr
          hintmask 0010000001000000
          10 8 8 10 hvcurveto
          hintmask 0001000001100000
          19 vlineto
          18 15 21 35 19 vhcurveto
          18 9 13 19 22 vvcurveto
          endchar
        </CharString>
        <CharString name="Uhorntilde">
          62 callsubr
          17 44 -29 48 -16 49 -33 48 -40 49 96 callsubr
          hintmask 1110000011000000
          -77 callsubr
          hintmask 1100000100100000
          -33 callsubr
          hintmask 0000001000000000
          -119 70 -93 callsubr
        </CharString>
        <CharString name="Uhungarumlaut">
          62 callsubr
          63 -21 118 113 callgsubr
          hintmask 11001100
          -105 callsubr
          hintmask 00110100
          -335 156 -84 callsubr
        </CharString>
        <CharString name="Umacron">
          62 callsubr
          52 46 85 callgsubr
          hintmask 11011000
          -105 callsubr
          hintmask 00100000
          -124 97 -89 callgsubr
        </CharString>
        <CharString name="Uogonek">
          -209 37 161 44 -43 43 534 44 hstemhm
          326 53 65 53 65 53 cntrmask 00001110
          hintmask 11011110
          712 588 rmoveto
          -28 callsubr
          vhcurveto
          -183 -4 callgsubr
          -23 -21 141 callgsubr
          65 -358 hlineto
          -124 -105 -52 -78 -83 -101 55 121 vhcurveto
          358 64 vlineto
          -70 callsubr
          -364 hlineto
          -110 81 -80 126 -24 vhcurveto
          -44 -38 -21 -35 -37 156 callsubr
          -1 13 -7 5 -8 6 -13 -6 -4 151 callgsubr
          -27 -23 -23 hhcurveto
          -22 -33 19 30 hvcurveto
          hintmask 00111110
          45 31 40 36 28 vhcurveto
          116 4 106 88 121 vvcurveto
          364 65 42 callsubr
          hvcurveto
          endchar
        </CharString>
        <CharString name="Upsilon">
          305 0 44 543 35 hstem
          57 51 274 53 273 51 vstem
          759 498 rmoveto
          68 -71 56 -86 -114 -50 -85 -144 -31 vhcurveto
          143 -27 -50 86 -116 hhcurveto
          -86 -71 -56 -68 -23 19 0 7 19 6 8 9 56 47 39 62 129 36 -170 -105 hvcurveto
          -268 105 callsubr
          268 hlineto
          112 38 163 126 58 51 -35 -61 -9 7 -7 18 7 19 0 23 vhcurveto
          endchar
        </CharString>
        <CharString name="Uring">
          62 callsubr
          12 29 78 29 100 callgsubr
          96 168 callsubr
          49 53 hintmask 11001101
          -105 callsubr
          hintmask 00110110
          -242 103 -46 callgsubr
        </CharString>
        <CharString name="Utilde">
          -11 44 534 47 callsubr
          142 53 367 53 hintmask 11000011
          -105 callsubr
          hintmask 00000100
          -138 136 rmoveto
          12 -11 12 -12 vhcurveto
          hintmask 00001000
          -87 callgsubr
          hintmask 00100100
          -106 callsubr
          hintmask 00010000
          -76 callgsubr
        </CharString>
        <CharString name="V">
          -8 44 531 44 hstem
          730 588 rmoveto
          130 callsubr
          vhcurveto
          -158 hlineto
          -13 -20 0 -23 -21 21 -52 callsubr
          53 hlineto
          -207 -531 rlineto
          -14 hlineto
          -209 531 rlineto
          54 185 callsubr
          -158 -45 callsubr
          51 callsubr
          48 hlineto
          214 -544 rlineto
          -22 8 7 -9 33 hhcurveto
          19 hlineto
          21 16 0 30 11 hvcurveto
          214 545 rlineto
          48 -56 callgsubr
          21 hvcurveto
          endchar
        </CharString>
        <CharString name="W">
          538 -8 44 531 44 hstem
          -82 callgsubr
          endchar
        </CharString>
        <CharString name="Wacute">
          538 -8 44 531 98 callgsubr
          hintmask 11000000
          -82 callgsubr
          hintmask 00110000
          -405 158 -107 callgsubr
        </CharString>
        <CharString name="Wcircumflex">
          538 -8 44 531 44 53 -21 hstemhm
          hintmask 11000000
          -82 callgsubr
          hintmask 00100000
          -363 77 -106 callgsubr
          endchar
        </CharString>
        <CharString name="Wdieresis">
          538 -8 44 531 44 32 74 hstemhm
          387 141 callsubr
          hintmask 11000000
          -82 callgsubr
          hintmask 00111000
          -569 61 callgsubr
        </CharString>
        <CharString name="Wgrave">
          538 -8 44 531 98 callgsubr
          hintmask 11000000
          -82 callgsubr
          hintmask 00110000
          -406 97 -102 callgsubr
        </CharString>
        <CharString name="X">
          -22 callsubr
        </CharString>
        <CharString name="Xi">
          188 0 42 255 42 230 42 hstemhm
          44 53 -47 53 46 53 295 53 46 53 -47 53 hintmask 0010100100000000
          649 558 rmoveto
          20 4 callgsubr
          -534 hlineto
          -26 -7 -6 -27 hvcurveto
          -20 vlineto
          -14 0 -19 26 27 0 17 27 vhcurveto
          493 hlineto
          -27 0 -17 27 26 0 19 14 vhcurveto
          6 -525 rmoveto
          hintmask 1101011010000000
          25 vlineto
          75 callsubr
          -32 vhcurveto
          -505 hlineto
          32 0 17 -27 -26 0 -18 -15 vhcurveto
          -25 vlineto
          -27 6 -6 27 vhcurveto
          546 hlineto
          26 6 7 26 hvcurveto
          -105 248 rmoveto
          73 vlineto
          16 0 17 -26 -27 0 -16 -32 vhcurveto
          -295 hlineto
          32 0 16 -27 -26 163 callsubr
          -73 vlineto
          -15 0 -18 26 27 0 17 32 vhcurveto
          295 hlineto
          -32 0 -17 74 callgsubr
          endchar
        </CharString>
        <CharString name="Y">
          42 callgsubr
          352 53 vstem
          -92 callgsubr
          endchar
        </CharString>
        <CharString name="Yacute">
          59 callsubr
          352 53 hintmask 11001000
          -92 callgsubr
          hintmask 00110000
          -248 158 -107 callgsubr
        </CharString>
        <CharString name="Ycircumflex">
          0 callsubr
          53 -21 hstemhm
          352 53 hintmask 11010000
          -92 callgsubr
          hintmask 00100000
          -206 77 -106 callgsubr
          endchar
        </CharString>
        <CharString name="Ydieresis">
          145 callsubr
          hstemhm
          241 75 36 53 39 75 hintmask 11001000
          -92 callgsubr
          hintmask 00110100
          -412 61 callgsubr
        </CharString>
        <CharString name="Ydotbelow">
          34 callgsubr
          hstemhm
          336 85 -69 53 hintmask 01101000
          -92 callgsubr
          hintmask 10010000
          -307 -752 -102 callsubr
        </CharString>
        <CharString name="Ygrave">
          59 callsubr
          352 53 hintmask 11001000
          -92 callgsubr
          hintmask 00110000
          -249 97 -102 callgsubr
        </CharString>
        <CharString name="Yhookabove">
          0 44 523 172 callgsubr
          288 39 25 53 -52 37 44 37 hintmask 11000100
          -92 callgsubr
          hintmask 00111011
          -257 211 -103 callgsubr
        </CharString>
        <CharString name="Ytilde">
          40 callsubr
          352 53 hintmask 11000010
          -92 callgsubr
          hintmask 00000100
          -177 136 rmoveto
          12 -11 12 -12 vhcurveto
          hintmask 00001000
          -87 callgsubr
          hintmask 00100100
          -106 callsubr
          hintmask 00010000
          -76 callgsubr
        </CharString>
        <CharString name="Z">
          130 42 callgsubr
          75 52 408 53 vstem
          -73 callsubr
          endchar
        </CharString>
        <CharString name="Zacute">
          130 59 callsubr
          75 52 408 53 hintmask 11001100
          -73 callsubr
          hintmask 00110000
          -167 713 -107 callgsubr
        </CharString>
        <CharString name="Zcaron">
          130 119 callsubr
          75 52 408 53 hintmask 11011000
          -73 callsubr
          hintmask 00100000
          -125 674 rmoveto
          -98 callgsubr
        </CharString>
        <CharString name="Zdotaccent">
          130 0 callsubr
          43 84 hstemhm
          75 52 151 85 172 53 hintmask 11010100
          -73 callsubr
          hintmask 00101000
          -225 663 -102 callsubr
        </CharString>
        <CharString name="Zdotbelow">
          130 34 callgsubr
          hstemhm
          75 52 151 85 172 53 hintmask 01110100
          -73 callsubr
          hintmask 10001000
          -225 -197 -102 callsubr
        </CharString>
        <CharString name="Zeta">
          130 42 callgsubr
          75 52 408 53 vstem
          -73 callsubr
          endchar
        </CharString>
        <CharString name="a">
          0 callgsubr
          34 callsubr
          hintmask 01101100
          -100 callgsubr
          hintmask 10010000
          -68 callsubr
          hintmask 01000000
          -74 callsubr
          hintmask 10010100
          -65 callsubr
          endchar
        </CharString>
        <CharString name="aacute">
          0 callgsubr
          77 -21 120 -92 callsubr
          5 359 -107 callgsubr
        </CharString>
        <CharString name="abreve">
          0 callgsubr
          67 47 51 -92 callsubr
          77 352 -105 callgsubr
          endchar
        </CharString>
        <CharString name="abreveacute">
          0 callgsubr
          68 47 191 -92 callsubr
          77 353 -56 callsubr
        </CharString>
        <CharString name="abrevedotbelow">
          118 callgsubr
          67 47 51 -20 86 callsubr
          62 85 54 53 hintmask 0011000101000000
          -100 callgsubr
          hintmask 0100001000000000
          -68 callsubr
          hintmask 0010000000000000
          -74 callsubr
          hintmask 0100111001000000
          -65 callsubr
          77 352 -105 callgsubr
          hintmask 1000000010000000
          -131 -741 -102 callsubr
        </CharString>
        <CharString name="abrevegrave">
          0 callgsubr
          68 47 51 -92 callsubr
          77 353 -55 callsubr
        </CharString>
        <CharString name="abrevehookabove">
          0 callgsubr
          68 134 callgsubr
          51 53 -27 73 -24 175 callsubr
          3 53 hintmask 0110000010000100
          -100 callgsubr
          hintmask 1000000100000000
          -68 callsubr
          hintmask 0100000000000000
          -74 callsubr
          hintmask 1000000100000100
          -65 callsubr
          hintmask 0001101001000000
          77 353 -105 callgsubr
          -80 168 -85 callsubr
          hvcurveto
          hintmask 0000111000111000
          3 callgsubr
          10 8 8 10 vhcurveto
          19 vlineto
          18 15 21 35 19 vhcurveto
          18 9 13 19 22 vvcurveto
          endchar
        </CharString>
        <CharString name="abrevetilde">
          -2 601 49 0 47 0 49 34 callsubr
          cntrmask 11100000
          hintmask 11101100
          -100 callgsubr
          hintmask 11110100
          -68 callsubr
          -74 callsubr
          -65 callsubr
          hintmask 11100100
          77 353 -105 callgsubr
          -1 144 rmoveto
          12 -11 12 -12 -8 -5 -5 -4 -5 vhcurveto
          -31 -33 -30 -17 -15 hhcurveto
          -13 -10 10 29 -31 hvcurveto
          -106 callsubr
          -76 callgsubr
        </CharString>
        <CharString name="acaron">
          0 callgsubr
          176 64 callsubr
          hintmask 01100110
          -100 callgsubr
          hintmask 10001000
          -68 callsubr
          hintmask 01000000
          -74 callsubr
          hintmask 10001010
          -65 callsubr
          hintmask 00010000
          48 365 -95 callgsubr
        </CharString>
        <CharString name="acircumflex">
          0 callgsubr
          78 -21 34 callsubr
          hintmask 01100110
          -100 callgsubr
          hintmask 10001000
          -68 callsubr
          hintmask 01000000
          -74 callsubr
          hintmask 10001010
          -65 callsubr
          hintmask 00010000
          48 288 -99 callgsubr
          endchar
        </CharString>
        <CharString name="acircumflexacute">
          0 callgsubr
          78 -21 226 -92 callsubr
          47 289 -91 callsubr
        </CharString>
        <CharString name="acircumflexdotbelow">
          118 callgsubr
          78 -21 86 callsubr
          62 85 54 53 hintmask 0011001010000000
          -100 callgsubr
          hintmask 0100010000000000
          -68 callsubr
          hintmask 0010000000000000
          -74 callsubr
          hintmask 0100110010000000
          -65 callsubr
          48 288 -99 callgsubr
          hintmask 1000000100000000
          -102 -677 -102 callsubr
        </CharString>
        <CharString name="acircumflexgrave">
          0 callgsubr
          78 -21 34 callsubr
          hintmask 01100110
          -100 callgsubr
          hintmask 10001000
          -68 callsubr
          hintmask 01000000
          -74 callsubr
          hintmask 10001010
          -65 callsubr
          hintmask 00010000
          47 289 -91 callgsubr
        </CharString>
        <CharString name="acircumflexhookabove">
          0 callgsubr
          78 172 callsubr
          51 53 -27 73 106 39 26 37 -18 39 -28 53 -33 37 -6 37 hintmask 0110000100010000
          -100 callgsubr
          hintmask 1000001000000000
          -68 callsubr
          hintmask 0100000000000000
          -74 callsubr
          hintmask 1000001000010000
          -65 callsubr
          hintmask 0001000010001000
          47 289 rmoveto
          8 -4 8 -9 3 vhcurveto
          -122 44 -4 1 -6 0 -4 -1 rlinecurve
          -122 -44 rlineto
          -9 -3 -4 -8 -8 vvcurveto
          -11 8 -11 11 3 2 0 1 3 vhcurveto
          115 35 115 -35 rlineto
          hintmask 0001010010100100
          -1 3 2 0 3 hhcurveto
          11 8 11 11 hvcurveto
          41 209 -75 callgsubr
          hintmask 0000100001000000
          68 callsubr
          hintmask 0000100000100000
          122 callgsubr
          hintmask 0000100001001000
          24 callsubr
          hintmask 0000000000000100
          18 9 13 19 22 vvcurveto
          endchar
        </CharString>
        <CharString name="acircumflextilde">
          0 callgsubr
          78 164 callgsubr
          51 53 -27 73 201 53 hintmask 0110000000110000
          -100 callgsubr
          hintmask 1000000001000000
          -68 callsubr
          hintmask 0100000000000000
          -74 callsubr
          hintmask 1000000001010000
          -65 callsubr
          hintmask 0001100010010000
          47 289 -75 callsubr
        </CharString>
        <CharString name="acute">
          13 512 48 callgsubr
          hstem
          363 584 -107 callgsubr
        </CharString>
        <CharString name="acute.cap">
          13 493 48 callgsubr
          hstem
          363 565 -107 callgsubr
        </CharString>
        <CharString name="acute.dup">
          13 512 48 callgsubr
          hstem
          363 584 -107 callgsubr
        </CharString>
        <CharString name="acute.ts1">
          13 512 48 callgsubr
          hstem
          402 584 -107 callgsubr
        </CharString>
        <CharString name="adblgrave">
          0 callgsubr
          78 -21 118 -92 callsubr
          64 296 -103 callsubr
        </CharString>
        <CharString name="adieresis">
          0 callgsubr
          79 74 86 callsubr
          -18 76 96 76 -29 53 hintmask 0110010010000000
          -100 callgsubr
          hintmask 1000100000000000
          -68 callsubr
          hintmask 0100000000000000
          -74 callsubr
          hintmask 1000100010000000
          -65 callsubr
          hintmask 0001001100000000
          -143 326 -48 callgsubr
        </CharString>
        <CharString name="adotbelow">
          118 callgsubr
          86 callsubr
          62 85 54 53 hintmask 00110101
          -100 callgsubr
          hintmask 01001000
          -68 callsubr
          hintmask 00100000
          -74 callsubr
          hintmask 01001001
          -65 callsubr
          hintmask 10000010
          -54 -389 -102 callsubr
        </CharString>
        <CharString name="ae">
          -42 callsubr
        </CharString>
        <CharString name="ae.dup">
          -42 callsubr
        </CharString>
        <CharString name="aeacute">
          -6 44 157 43 -41 43 106 43 2 44 77 27 callgsubr
          52 53 -27 73 0 53 148 53 -52 53 270 53 hintmask 1011100010101000
          729 103 rmoveto
          20 -22 0 -4 -11 41 callsubr
          -37 -63 -11 -78 -65 hvcurveto
          89 -55 -93 0 -28 hhcurveto
          -40 -97 0 -66 -25 17 -13 20 13 22 8 30 1 hvcurveto
          13 0 4 25 3 vhcurveto
          1 16 10 1 14 hhcurveto
          87 49 -40 -73 hvcurveto
          hintmask 1100000100101000
          -40 vlineto
          -71 -2 -229 -7 -117 vvcurveto
          -62 60 -56 96 48 100 9 80 38 vhcurveto
          -76 66 69 -13 43 hhcurveto
          112 45 84 25 hvcurveto
          -53 137 rmoveto
          hintmask 1010100101011000
          -270 hlineto
          96 18 67 55 65 hhcurveto
          80 34 -68 -83 6 hvcurveto
          -319 -118 rmoveto
          -18 0 -30 -50 -20 vhcurveto
          -15 -36 -42 -1 -12 hhcurveto
          -67 -45 34 41 40 82 22 17 5 hvcurveto
          hintmask 0100000000010000
          46 11 43 2 60 2 rrcurveto
          hintmask 0000011000000000
          127 389 -107 callgsubr
        </CharString>
        <CharString name="agrave">
          0 callgsubr
          77 -21 120 -92 callsubr
          4 298 -102 callgsubr
        </CharString>
        <CharString name="ahookabove">
          0 callgsubr
          8 37 143 37 86 callsubr
          14 61 callsubr
          4 53 hintmask 0110001000100000
          -100 callgsubr
          hintmask 1000010000000000
          -68 callsubr
          hintmask 0100000000000000
          -74 callsubr
          hintmask 1000010000100000
          -65 callsubr
          hintmask 0001100111000000
          -4 363 -103 callgsubr
        </CharString>
        <CharString name="amacron">
          0 callgsubr
          93 46 34 callsubr
          hintmask 01100110
          -100 callgsubr
          hintmask 10001000
          -68 callsubr
          hintmask 01000000
          -74 callsubr
          hintmask 10001010
          9 callgsubr
          90 325 -89 callgsubr
        </CharString>
        <CharString name="ampersand">
          305 -11 44 29 44 -15 44 246 45 152 44 hstemhm
          42 53 83 39 -2 53 -39 39 119 40 hintmask 0001100101000000
          766 403 rmoveto
          -28 callsubr
          vhcurveto
          -219 -48 callsubr
          -22 -39 callgsubr
          95 hlineto
          -81 -134 -37 -59 -72 -71 -15 13 -84 73 -53 99 rrcurveto
          106 76 53 52 60 vvcurveto
          61 -40 71 -76 vhcurveto
          hintmask 0000001000000000
          -59 -74 -45 -93 hvcurveto
          hintmask 0000010100000000
          -49 12 -57 25 -59 vhcurveto
          -116 -81 rlineto
          -28 -21 -29 -36 -48 vvcurveto
          hintmask 1100000010000000
          -86 86 -58 101 69 64 26 47 59 vhcurveto
          -59 86 59 -14 50 hhcurveto
          90 53 58 53 23 -19 1 0 -13 -4 -10 -8 -2 hvcurveto
          -52 -7 -51 -21 -47 hhcurveto
          hintmask 1011111001000000
          -41 -56 14 44 -66 hvcurveto
          15 15 23 24 62 85 16 24 rcurveline
          88 142 rlineto
          77 31 callsubr
          -379 87 rmoveto
          -42 -81 -65 -58 -40 vhcurveto
          -31 76 0 61 4 vvcurveto
          72 63 22 31 52 24 -52 -36 vhcurveto
          2 -399 rmoveto
          -21 -30 -54 -37 -75 hhcurveto
          -76 -59 45 57 50 38 26 103 67 hvcurveto
          26 -48 28 -34 19 -23 28 -34 37 -35 15 -13 rrcurveto
          endchar
        </CharString>
        <CharString name="anglearc">
          305 -24 -21 702 -20 hstem
          494 54 31 54 vstem
          759 27 rmoveto
          10 -6 10 -10 4 vhcurveto
          -145 62 rlineto
          23 67 12 63 63 vvcurveto
          63 -12 63 -23 67 vhcurveto
          145 62 rlineto
          10 4 6 10 10 vvcurveto
          15 -12 12 -14 -4 -4 -1 -1 -3 vhcurveto
          -145 -62 -20 40 -20 30 -23 30 rlinecurve
          6 -5 -7 3 -8 hhcurveto
          -16 -11 -12 -14 -6 1 -7 4 -4 hvcurveto
          20 -24 17 -27 19 -37 -455 -196 rcurveline
          -10 -3 -6 -10 -11 vvcurveto
          -11 6 -10 10 -3 vhcurveto
          455 -196 -19 -37 -17 -27 -20 -24 rlinecurve
          -4 -4 -1 -6 -7 vvcurveto
          -14 11 -12 16 8 7 3 6 5 vhcurveto
          23 30 20 30 20 41 145 -63 rcurveline
          -1 3 4 -1 4 hhcurveto
          14 12 12 15 hvcurveto
          -180 279 rmoveto
          -56 -9 -54 -22 -61 vhcurveto
          -396 171 396 171 rlineto
          22 -61 9 -54 -56 vvcurveto
          endchar
        </CharString>
        <CharString name="angleleft">
          -104 -65 -21 784 -20 hstem
          343 -55 rmoveto
          -164 361 164 361 rlineto
          13 6 -17 18 -15 hhcurveto
          -11 -8 -5 -10 -5 hvcurveto
          -162 -349 -9 -19 -1 -3 1 -7 rlinecurve
          -6 0 -2 9 -19 vhcurveto
          162 -349 rlineto
          -10 5 8 -5 11 hhcurveto
          15 17 18 13 -6 hvcurveto
          endchar
        </CharString>
        <CharString name="angleright">
          -104 -67 -21 784 -20 hstem
          283 305 rmoveto
          6 0 2 -9 19 vhcurveto
          -162 349 rlineto
          10 -5 -8 5 -11 hhcurveto
          -15 -17 -18 -13 6 hvcurveto
          164 -361 -164 -361 rlineto
          -13 -6 17 -18 15 hhcurveto
          11 8 5 10 5 hvcurveto
          162 349 9 19 1 3 -1 7 rlinecurve
          endchar
        </CharString>
        <CharString name="aogonek">
          -2 -209 37 166 44 -38 44 347 44 86 callsubr
          163 42 -4 53 hintmask 10100010
          502 -151 rmoveto
          -20 callgsubr
          47 44 41 60 35 hvcurveto
          24 19 0 23 21 78 callsubr
          hintmask 00010101
          -41 -10 5 7 -15 hvcurveto
          228 vlineto
          72 -55 79 -135 -40 -97 0 -66 -25 17 -13 20 14 21 8 30 1 vhcurveto
          19 26 3 39 81 55 -36 -88 vhcurveto
          hintmask 01001001
          102 callgsubr
          hintmask 11001010
          66 callsubr
          hintmask 00000001
          47 68 49 179 6 vhcurveto
          endchar
        </CharString>
        <CharString name="aogonekacute">
          -2 -209 37 166 44 -38 44 347 44 77 -21 120 -20 86 callsubr
          163 42 -4 53 hintmask 1010000010000000
          502 -151 rmoveto
          -20 callgsubr
          47 44 41 60 35 hvcurveto
          24 19 0 23 21 78 callsubr
          hintmask 0001000101000000
          -41 -10 5 7 -15 hvcurveto
          228 vlineto
          72 -55 79 -135 -40 -97 0 -66 -25 17 -13 20 14 21 8 30 1 vhcurveto
          19 26 3 39 81 55 -36 -88 vhcurveto
          hintmask 0100001001000000
          102 callgsubr
          hintmask 1100001010000000
          66 callsubr
          hintmask 0000000001000000
          47 68 49 179 6 vhcurveto
          hintmask 0000110010000000
          5 359 -107 callgsubr
        </CharString>
        <CharString name="aring">
          0 callgsubr
          57 29 78 29 86 callsubr
          -6 168 callsubr
          -15 53 hintmask 0110001001000000
          -100 callgsubr
          hintmask 1000010000000000
          -68 callsubr
          hintmask 0100000000000000
          -74 callsubr
          hintmask 1000010001000000
          -65 callsubr
          hintmask 0001100110000000
          -28 335 -46 callgsubr
        </CharString>
        <CharString name="aringacute">
          0 callgsubr
          57 29 78 29 140 -20 86 callsubr
          -6 43 125 43 -32 43 -15 53 hintmask 0110000100010000
          -100 callgsubr
          hintmask 1000001001000000
          -68 callsubr
          hintmask 0100000000000000
          -74 callsubr
          hintmask 1000001000010000
          -65 callsubr
          hintmask 0001110010100000
          -28 335 -71 callsubr
          -11 134 callsubr
          hintmask 0000000001000000
          0 -6 0 -10 -4 vhcurveto
          -137 -62 rlineto
          -11 -5 -9 -4 -13 vvcurveto
          -6 5 -26 20 3 2 1 1 3 vhcurveto
          144 64 rlineto
          19 8 4 10 9 vvcurveto
          endchar
        </CharString>
        <CharString name="asciicircum">
          13 517 -21 hstem
          450 519 rmoveto
          7 -5 7 -8 4 vhcurveto
          -167 81 -5 2 -6 0 -5 -2 rlinecurve
          -167 -81 rlineto
          -8 -4 -5 -7 -7 vvcurveto
          -11 8 -12 12 3 3 1 1 3 vhcurveto
          159 68 159 -68 rlineto
          -1 3 3 -1 3 hhcurveto
          12 8 12 11 hvcurveto
          endchar
        </CharString>
        <CharString name="asciitilde">
          13 253 -31 callsubr
          hintmask 00010000
          434 334 rmoveto
          12 -11 12 -12 vhcurveto
          hintmask 00100000
          -87 callgsubr
          hintmask 10010000
          -106 callsubr
          hintmask 01000000
          -76 callgsubr
        </CharString>
        <CharString name="asciitilde.low">
          13 0 48 9 48 hstem
          434 81 rmoveto
          12 -11 12 -12 -8 -5 -4 -5 -5 vhcurveto
          -31 -33 -30 -17 -15 hhcurveto
          -13 -10 10 29 -31 hvcurveto
          9 -12 -16 9 -19 hhcurveto
          -26 -27 -16 -16 -22 hvcurveto
          -19 -14 -28 -21 -14 vvcurveto
          -12 11 -12 12 8 5 4 5 5 vhcurveto
          31 33 30 17 15 hhcurveto
          13 10 -10 -29 31 hvcurveto
          -9 12 16 -9 19 hhcurveto
          -76 callgsubr
        </CharString>
        <CharString name="asterisk">
          -21 callsubr
        </CharString>
        <CharString name="asterisk.math">
          -21 callsubr
        </CharString>
        <CharString name="at">
          188 -6 44 71 45 303 45 71 44 hstem
          58 40 173 39 291 40 vstem
          641 73 rmoveto
          20 -23 0 -7 -9 -3 0 -2 -5 vhcurveto
          -45 -81 -63 -8 -41 hhcurveto
          -176 -135 125 142 148 139 120 171 36 37 -7 -18 31 hvcurveto
          24 -13 19 -19 31 -66 rrcurveto
          43 -62 -37 9 -31 hhcurveto
          -104 -81 -90 -106 -112 85 -85 99 81 105 62 145 114 -21 187 -212 -193 -157 -141 -170 -170 154 -142 198 83 72 25 37 64 hvcurveto
          7 4 5 5 8 vvcurveto
          -40 233 rmoveto
          -87 -68 -65 -77 -83 -63 70 81 87 68 65 77 84 62 -70 -81 vhcurveto
          endchar
        </CharString>
        <CharString name="atilde">
          0 callgsubr
          64 48 -16 49 -33 48 -40 49 34 callsubr
          hintmask 0110000011000000
          -100 callgsubr
          hintmask 1000000100000000
          -68 callsubr
          hintmask 0100000000000000
          -74 callsubr
          hintmask 1000000101000000
          -65 callsubr
          hintmask 0000001001000000
          76 355 -93 callsubr
        </CharString>
        <CharString name="b">
          71 -6 36 callsubr
          213 81 callsubr
          -534 hlineto
          -16 0 -17 27 25 0 16 53 vhcurveto
          26 callgsubr
          103 callsubr
        </CharString>
        <CharString name="backslash">
          128 callsubr
          463 -59 rmoveto
          7 -4 9 -2 5 vhcurveto
          -341 712 rlineto
          8 -4 -8 15 -16 hhcurveto
          -15 -12 -13 -14 -7 4 -9 2 -5 hvcurveto
          341 -712 rlineto
          -8 4 8 -15 16 hhcurveto
          15 12 13 14 hvcurveto
          endchar
        </CharString>
        <CharString name="baht">
          217 -75 -21 96 86 callgsubr
          96 -20 100 callgsubr
          139 45 -22 53 178 52 -23 53 hintmask 0001000110000000
          670 163 rmoveto
          66 -41 64 -155 27 vhcurveto
          110 27 56 42 72 vvcurveto
          79 -99 71 -131 vhcurveto
          hintmask 0001001000000000
          -31 73 hlineto
          hintmask 0000100100000000
          13 -10 10 -12 vhcurveto
          hintmask 0101011000000000
          -13 -10 -10 -13 hvcurveto
          -73 -256 vlineto
          -13 -19 0 -23 -21 -67 callsubr
          64 -523 127 callgsubr
          256 -73 hlineto
          hintmask 1000000100000000
          -13 10 -10 13 vhcurveto
          hintmask 0111001001000000
          12 10 10 13 hvcurveto
          73 60 vlineto
          134 97 78 85 hvcurveto
          -82 297 rmoveto
          -59 -78 -57 -131 -4 vhcurveto
          227 29 vlineto
          hintmask 0011011010000000
          106 74 -53 -54 hvcurveto
          -254 -120 rmoveto
          -139 227 139 hlineto
          283 -402 rmoveto
          hintmask 0100000100000000
          -68 -95 -53 -112 vhcurveto
          hintmask 0110011001000000
          -31 252 28 hlineto
          108 102 -63 -68 hvcurveto
          -283 -121 rmoveto
          -139 252 139 hlineto
          endchar
        </CharString>
        <CharString name="bar">
          128 callsubr
          235 54 vstem
          289 -46 rmoveto
          56 callgsubr
          endchar
        </CharString>
        <CharString name="bigcircle">
          99 0 40 531 40 hstem
          0 40 531 40 vstem
          -59 callsubr
          endchar
        </CharString>
        <CharString name="blanksymbol">
          71 -6 36 callsubr
          102 vlineto
          108 94 rlineto
          5 3 3 7 6 vvcurveto
          12 -11 11 -12 -6 -5 -3 -3 -5 vhcurveto
          -77 -67 rlineto
          51 81 callsubr
          -86 hlineto
          -89 -77 rlineto
          -6 -4 -2 -6 -7 vvcurveto
          -12 10 -10 13 5 6 2 3 3 vhcurveto
          60 51 rlineto
          -388 vlineto
          -16 0 -17 27 25 0 16 53 vhcurveto
          26 callgsubr
          103 callsubr
        </CharString>
        <CharString name="braceleft">
          13 -86 45 325 44 324 45 hstem
          236 53 vstem
          464 -63 rmoveto
          18 -14 4 -8 -138 -15 47 34 vhcurveto
          166 vlineto
          24 -3 38 -66 37 vhcurveto
          53 31 15 31 1 24 rrcurveto
          0 -2 205 4 9 vhcurveto
          42 19 98 5 38 hhcurveto
          5 13 5 17 23 -20 0 -14 -69 -108 -11 -86 -17 hvcurveto
          -1 -6 1 -172 0 vvcurveto
          -41 -1 -17 -41 -19 vhcurveto
          -16 -39 -53 -1 -24 hhcurveto
          -5 -13 -5 -17 -18 12 -4 8 hvcurveto
          35 -2 119 -7 2 -61 rrcurveto
          -171 vlineto
          -28 0 -44 49 -27 vhcurveto
          -23 42 55 -7 48 hhcurveto
          14 20 0 23 hvcurveto
          endchar
        </CharString>
        <CharString name="braceright">
          13 -86 45 324 44 325 45 hstem
          236 53 vstem
          464 305 rmoveto
          18 -11 3 -9 1 vhcurveto
          -33 2 -120 6 -2 63 rrcurveto
          172 vlineto
          26 0 44 -49 27 vhcurveto
          26 -48 -63 4 -35 hhcurveto
          -13 -21 0 -23 -19 14 -3 11 141 10 -46 -36 hvcurveto
          -166 vlineto
          -38 14 -30 56 -30 vhcurveto
          -67 -38 -3 -44 -4 vvcurveto
          -183 vlineto
          -32 -7 -46 -151 -5 -13 -5 -17 -23 21 0 13 85 94 18 79 15 vhcurveto
          1 6 0 172 0 vvcurveto
          41 1 17 41 19 vhcurveto
          16 39 51 1 25 hhcurveto
          5 13 5 17 hvcurveto
          endchar
        </CharString>
        <CharString name="bracketleft">
          -215 -86 45 693 45 hstem
          118 53 vstem
          268 -64 rmoveto
          -28 callsubr
          vhcurveto
          -65 693 65 -45 callgsubr
          -24 callgsubr
          -86 hlineto
          -26 -6 -8 -25 hvcurveto
          -717 vlineto
          -24 5 -9 27 vhcurveto
          86 31 callsubr
          endchar
        </CharString>
        <CharString name="bracketright">
          -215 -86 45 693 45 hstem
          125 53 vstem
          178 -53 rmoveto
          717 vlineto
          24 -5 9 -27 vhcurveto
          -86 188 callsubr
          65 -693 -65 188 callsubr
          86 hlineto
          26 6 8 25 hvcurveto
          endchar
        </CharString>
        <CharString name="breve">
          13 502 149 callsubr
          577 -105 callgsubr
          endchar
        </CharString>
        <CharString name="breve.cap">
          13 472 149 callsubr
          547 -105 callgsubr
          endchar
        </CharString>
        <CharString name="breve.ts1">
          130 513 48 51 -20 hstem
          552 589 rmoveto
          11 -10 12 -13 -24 5 -21 -9 -10 vhcurveto
          -18 -21 -73 -3 -87 hhcurveto
          -87 -71 3 18 -21 hvcurveto
          9 -10 5 21 -24 hhcurveto
          -13 -10 -12 -11 -42 33 -22 72 -8 hvcurveto
          -4 34 42 0 51 hhcurveto
          21 72 0 4 34 hvcurveto
          72 8 33 22 42 vvcurveto
          endchar
        </CharString>
        <CharString name="brokenbar">
          128 callsubr
          235 54 vstem
          289 410 rmoveto
          247 vlineto
          10 0 30 -27 -27 0 -30 -10 vhcurveto
          -247 vlineto
          -13 13 -10 14 14 13 10 13 vhcurveto
          -456 vmoveto
          247 vlineto
          13 -13 10 -14 -14 -13 -10 -13 vhcurveto
          -247 vlineto
          -10 0 -30 27 27 0 30 10 vhcurveto
          endchar
        </CharString>
        <CharString name="bullet">
          305 99 266 hstem
          275 266 110 callsubr
          endchar
        </CharString>
        <CharString name="c">
          -45 46 callsubr
          hstem
          48 52 248 74 vstem
          -54 callsubr
          endchar
        </CharString>
        <CharString name="cacute">
          -45 46 callsubr
          77 27 callgsubr
          48 52 248 74 hintmask 11001100
          -54 callsubr
          hintmask 00110000
          -76 481 -107 callgsubr
        </CharString>
        <CharString name="caron">
          13 611 -20 hstem
          406 590 -95 callgsubr
        </CharString>
        <CharString name="caron.cap">
          13 548 -20 hstem
          405 526 rmoveto
          -98 callgsubr
        </CharString>
        <CharString name="caron.ts1">
          130 512 -21 127 -20 hstem
          537 584 rmoveto
          14 -6 20 -17 -6 -23 -9 -6 -14 vhcurveto
          0 -143 -58 -6 -1 vhcurveto
          -6 1 -143 58 0 vvcurveto
          6 -14 -23 9 -6 hhcurveto
          -17 -6 -20 -14 -11 33 -14 23 -8 hvcurveto
          160 -60 158 60 rlineto
          23 9 33 13 11 vvcurveto
          endchar
        </CharString>
        <CharString name="ccaron">
          -45 46 callsubr
          176 -20 hstemhm
          48 52 248 74 hintmask 11011000
          -54 callsubr
          hintmask 00100000
          -33 487 -95 callgsubr
        </CharString>
        <CharString name="ccedilla">
          -45 -214 45 162 45 353 44 hstemhm
          48 52 119 52 -10 52 37 53 -49 68 hintmask 01111001
          434 103 rmoveto
          20 -22 0 -5 -10 -6 -1 -8 -6 vhcurveto
          -23 -10 -24 -53 -80 hhcurveto
          -92 -79 76 99 52 31 126 146 26 45 -8 -11 171 callsubr
          66 -102 0 -43 -170 -59 -135 -87 hvcurveto
          hintmask 01000110
          -114 86 -98 127 -8 vhcurveto
          -30 vlineto
          120 callsubr
          40 -2 27 -22 -26 vvcurveto
          hintmask 10001010
          -27 -21 190 callsubr
          -23 0 -23 -17 15 -5 8 82 128 0 94 vhcurveto
          hintmask 00000100
          50 -37 29 -53 14 vhcurveto
          25 vlineto
          97 23 24 69 13 vvcurveto
          endchar
        </CharString>
        <CharString name="ccircumflex">
          -45 46 callsubr
          78 -21 hstemhm
          48 52 248 74 hintmask 11011000
          -54 callsubr
          hintmask 00100000
          -33 410 -99 callgsubr
          endchar
        </CharString>
        <CharString name="cdotaccent">
          -45 46 callsubr
          74 84 hstemhm
          48 52 114 85 49 74 hintmask 11010100
          -54 callsubr
          hintmask 00101000
          -135 448 -102 callsubr
        </CharString>
        <CharString name="cedilla">
          28 callgsubr
        </CharString>
        <CharString name="cedilla.dup">
          28 callgsubr
        </CharString>
        <CharString name="cent">
          -45 -75 -21 90 77 callgsubr
          86 -20 hstem
          48 52 135 45 68 74 vstem
          434 103 rmoveto
          20 -22 0 -5 -10 -8 -1 -11 -5 vhcurveto
          -8 -19 -19 -45 -77 -9 rrcurveto
          353 vlineto
          36 32 -9 -10 171 callsubr
          64 -86 2 -56 hvcurveto
          64 vlineto
          12 -10 10 -12 -13 -10 -10 -12 vhcurveto
          -67 vlineto
          -140 -25 -47 -116 -78 vvcurveto
          -105 74 -93 113 -20 vhcurveto
          -68 vlineto
          -13 10 -10 13 12 10 10 13 vhcurveto
          67 vlineto
          124 10 30 84 15 vvcurveto
          -199 -61 rmoveto
          -83 24 -52 66 81 vvcurveto
          45 23 99 112 30 vhcurveto
          endchar
        </CharString>
        <CharString name="cent.oldstyle">
          -45 -75 -21 90 44 21 44 288 44 86 -20 hstem
          48 52 79 52 117 74 vstem
          434 103 rmoveto
          20 -22 0 -5 -10 -6 -1 -8 -6 vhcurveto
          -23 -10 -24 -53 -80 hhcurveto
          -10 -11 1 4 -19 hvcurveto
          71 346 rlineto
          29 17 -10 -7 171 callsubr
          51 -56 10 -55 5 hvcurveto
          11 58 rlineto
          15 3 -10 13 -15 hhcurveto
          -11 -9 -7 -11 -2 hvcurveto
          -14 -69 rlineto
          -162 -10 -54 -128 -83 vvcurveto
          -87 49 -77 82 -37 vhcurveto
          -16 -81 rlineto
          -14 -3 11 -13 15 hhcurveto
          11 8 8 11 2 hvcurveto
          16 75 rlineto
          -3 19 11 -1 12 hhcurveto
          135 34 93 16 hvcurveto
          -179 288 rmoveto
          -66 -332 rlineto
          -57 39 -32 53 62 vvcurveto
          48 25 108 130 22 vhcurveto
          endchar
        </CharString>
        <CharString name="centigrade">
          480 -11 45 357 41 122 41 -41 44 -28 42 -33 44 hstemhm
          14 168 callsubr
          58 54 hintmask 1000010010000000
          936 166 rmoveto
          15 -5 10 -18 -18 -3 -6 -47 -15 vhcurveto
          -82 -27 -129 -22 -63 hhcurveto
          -141 -169 90 183 167 158 105 148 89 115 -39 -99 22 hvcurveto
          -19 5 6 -9 19 hhcurveto
          26 0 18 15 hvcurveto
          hintmask 0010000000000000
          149 vlineto
          hintmask 0000010000000000
          18 -7 10 -16 vhcurveto
          hintmask 0001000000000000
          -13 -7 -13 -12 -5 hvcurveto
          -20 -44 rlineto
          hintmask 1000010010000000
          53 -70 -78 16 -75 hhcurveto
          -172 -179 -119 -205 -184 181 -126 172 97 192 29 148 hvcurveto
          -700 336 rmoveto
          hintmask 0100101100000000
          62 -49 48 -66 67 callgsubr
        </CharString>
        <CharString name="circumflex">
          13 513 -21 hstem
          406 513 -99 callgsubr
          endchar
        </CharString>
        <CharString name="circumflex.cap">
          13 483 -21 hstem
          405 484 -106 callgsubr
          endchar
        </CharString>
        <CharString name="circumflex.dup">
          13 513 -21 hstem
          406 513 -99 callgsubr
          endchar
        </CharString>
        <CharString name="colon">
          -220 0 84 257 85 hstem
          104 84 vstem
          188 383 81 callgsubr
          -341 vmoveto
          78 callgsubr
        </CharString>
        <CharString name="colonmonetary">
          -75 -21 85 44 544 44 -43 44 85 -20 hstemhm
          58 52 285 46 206 52 hintmask 01100011
          699 164 rmoveto
          25 -18 0 -8 -8 -17 0 -22 -1 vhcurveto
          -2 -26 -4 -43 -73 -35 -31 -16 -44 -10 -52 -4 rrcurveto
          544 vlineto
          54 -5 40 -12 30 -18 64 -38 11 -44 8 -32 rrcurveto
          -15 4 14 0 7 hhcurveto
          26 0 17 16 hvcurveto
          143 vlineto
          hintmask 00010000
          13 0 20 -21 -7 -4 -2 -3 -4 vhcurveto
          -14 -25 -4 -8 -14 -31 rrcurveto
          hintmask 00101010
          -44 34 -61 26 -85 8 rrcurveto
          63 vlineto
          13 -10 10 -13 -12 -11 -10 -13 vhcurveto
          hintmask 11010111
          -62 vlineto
          -199 -11 -138 -143 -162 vvcurveto
          -160 135 -145 202 -12 vhcurveto
          -62 vlineto
          -13 11 -10 12 13 10 10 13 vhcurveto
          62 vlineto
          164 11 94 70 94 vvcurveto
          -304 -131 rmoveto
          -173 16 -112 122 135 vvcurveto
          135 116 122 169 15 vhcurveto
          endchar
        </CharString>
        <CharString name="comma">
          -220 -122 -21 227 -20 hstem
          104 97 vstem
          201 1 rmoveto
          58 -26 25 -29 -25 -17 -19 -23 -5 1 -34 51 -4 vhcurveto
          -3 -28 -4 -37 -42 -35 rrcurveto
          -6 -5 -7 -5 -10 vvcurveto
          -10 12 -12 12 21 62 59 85 vhcurveto
          endchar
        </CharString>
        <CharString name="copyleft">
          155 callsubr
          98 31 10 40 273 31 48 40 vstem
          -59 callsubr
          -48 hmoveto
          101 -90 88 -121 -57 -45 -17 -24 -31 vhcurveto
          -8 19 -3 4 -8 15 rrcurveto
          2 -3 -2 1 -4 hhcurveto
          -13 0 -12 -7 hvcurveto
          -86 vlineto
          -10 0 -10 16 4 8 0 9 3 vhcurveto
          5 19 6 27 39 22 rrcurveto
          14 22 33 8 34 hhcurveto
          106 78 -77 -86 -87 -77 -77 -108 -31 -35 6 12 -24 hvcurveto
          -44 21 -2 26 -2 15 rrcurveto
          14 -10 0 -5 -5 -11 0 -15 -61 66 -44 107 124 88 90 100 vhcurveto
          endchar
        </CharString>
        <CharString name="copyright">
          155 callsubr
          48 31 273 40 10 31 98 40 vstem
          -59 callsubr
          -98 -85 rmoveto
          15 -11 0 -5 -5 -10 0 -14 vhcurveto
          -2 -15 -2 -26 -44 -21 rrcurveto
          -12 -24 -35 -6 -31 hhcurveto
          -108 -77 77 87 86 78 77 106 34 33 -8 -14 22 hvcurveto
          39 -22 6 -27 5 -19 rrcurveto
          -9 3 8 0 4 hhcurveto
          16 0 10 10 hvcurveto
          86 vlineto
          7 0 12 -13 -4 -2 -1 -2 -3 vhcurveto
          -8 -15 -3 -4 -8 -19 rrcurveto
          24 -31 -45 17 -57 hhcurveto
          -121 -90 -88 -101 -100 88 -90 124 107 66 44 61 hvcurveto
          endchar
        </CharString>
        <CharString name="copyright.alt">
          236 -164 40 114 31 382 31 114 40 hstem
          -2 40 97 36 376 36 127 40 vstem
          750 212 rmoveto
          232 -145 144 -231 -230 -146 -144 -232 -230 146 -146 230 231 145 146 230 vhcurveto
          -40 hmoveto
          -205 -129 -131 -207 -206 -130 131 205 207 130 129 206 207 129 -129 -207 vhcurveto
          -127 -99 rmoveto
          17 -12 0 -6 -5 -12 0 -15 -1 vhcurveto
          -1 -18 -3 -30 -51 -25 rrcurveto
          -14 -28 -42 -7 -35 hhcurveto
          -126 -90 91 100 101 91 90 123 39 39 -10 -15 27 hvcurveto
          44 -27 8 -31 6 -22 rrcurveto
          -11 2 10 0 5 hhcurveto
          18 0 12 11 hvcurveto
          100 vlineto
          10 0 14 -14 -5 -3 -2 -2 -3 vhcurveto
          -10 -17 -2 -6 -10 -22 rrcurveto
          28 -36 -52 21 -68 hhcurveto
          -141 -104 -104 -118 -117 102 -105 145 125 76 52 71 hvcurveto
          endchar
        </CharString>
        <CharString name="currency">
          305 75 54 354 54 hstem
          177 54 355 54 vstem
          658 60 rmoveto
          15 18 -19 20 -6 6 -59 58 rcurveline
          34 45 17 48 51 vvcurveto
          52 -17 47 -34 45 vhcurveto
          59 58 6 7 21 21 -21 20 rlinecurve
          -18 15 -20 -19 -6 -6 -58 -59 rcurveline
          34 -45 -48 16 -51 hhcurveto
          -52 -46 -17 -32 -45 hvcurveto
          -59 58 -7 6 -21 21 -20 -21 rlinecurve
          -15 -18 19 -19 6 -7 58 -59 rcurveline
          -32 -44 -17 -47 -52 vvcurveto
          -51 17 -48 32 -44 vhcurveto
          -58 -59 -6 -7 -21 -21 21 -20 rlinecurve
          18 -15 19 19 7 6 59 58 rcurveline
          -32 45 46 -17 52 hhcurveto
          51 48 16 34 45 hvcurveto
          58 -59 7 -6 21 -21 20 21 rlinecurve
          -72 246 rmoveto
          -98 -79 -79 -99 -98 -79 79 98 98 79 79 98 99 79 -79 -98 vhcurveto
          endchar
        </CharString>
        <CharString name="cwm">
          -512 endchar
        </CharString>
        <CharString name="cwmascender">
          -512 endchar
        </CharString>
        <CharString name="cwmcapital">
          -512 endchar
        </CharString>
        <CharString name="d">
          71 -6 118 callsubr
          317 52 hintmask 01111100
          -12 callsubr
          hintmask 10000100
          79 callsubr
          hintmask 10101100
          38 callgsubr
          endchar
        </CharString>
        <CharString name="dagger">
          -68 -202 -21 632 51 248 -20 hstemhm
          196 51 -15 51 hintmask 01001000
          383 434 rmoveto
          10 -5 16 -24 -21 -29 -9 -5 -21 vhcurveto
          -4 -2 -23 -4 -32 -3 2 31 -1 30 10 64 rrcurveto
          hintmask 11110000
          6 38 6 45 30 vvcurveto
          6 0 27 -25 -26 0 -26 -7 -36 9 -59 5 -24 vhcurveto
          7 -48 0 -30 1 -41 -22 2 -18 1 -20 5 rrcurveto
          6 -19 -29 9 -21 hhcurveto
          -27 -2 -21 -4 -10 5 -16 24 21 29 8 6 21 hvcurveto
          4 1 22 5 32 3 -3 -37 1 -18 -6 -26 rrcurveto
          -14 -74 0 -8 -54 vvcurveto
          -155 12 -173 9 -105 vhcurveto
          1 -3 3 -2 0 vvcurveto
          4 0 4 7 1 hvcurveto
          0 21 329 98 vvcurveto
          hintmask 01001000
          55 0 7 -15 72 vhcurveto
          -5 25 0 19 -3 39 23 -2 18 -2 20 -5 rrcurveto
          -6 19 29 -8 21 hhcurveto
          27 2 21 4 hvcurveto
          endchar
        </CharString>
        <CharString name="daggerdbl">
          -68 -191 -21 199 51 169 51 199 51 200 -20 hstem
          158 51 -13 51 -13 51 cntrmask 00000111
          383 482 rmoveto
          -10 callgsubr
          -470 vmoveto
          -10 callgsubr
          endchar
        </CharString>
        <CharString name="dblbracketleft">
          -89 -84 53 675 54 hstem
          116 54 80 54 vstem
          395 -58 rmoveto
          13 -2 14 -21 vhcurveto
          -68 675 68 hlineto
          21 2 14 13 12 -3 15 -18 hvcurveto
          -229 hlineto
          -20 -9 -9 -18 hvcurveto
          -726 vlineto
          -15 4 -14 25 vhcurveto
          229 hlineto
          18 3 14 12 hvcurveto
          -145 27 rmoveto
          -80 675 80 hlineto
          endchar
        </CharString>
        <CharString name="dblbracketright">
          -89 -84 53 675 54 hstem
          118 54 80 54 vstem
          306 -58 rmoveto
          726 vlineto
          15 -4 15 -25 vhcurveto
          -228 hlineto
          -18 -3 -15 -12 -13 2 -14 21 hvcurveto
          67 -675 -67 hlineto
          -21 -2 -14 -13 -12 3 -14 18 hvcurveto
          228 hlineto
          20 9 9 17 hvcurveto
          -54 27 rmoveto
          -80 675 80 hlineto
          endchar
        </CharString>
        <CharString name="dblgrave.ts1">
          13 515 -21 118 -20 hstem
          226 524 rmoveto
          7 -6 7 -8 6 vhcurveto
          32 -39 -45 36 -10 hhcurveto
          -1 hlineto
          -18 -3 -8 -13 -12 vvcurveto
          -13 17 -13 12 -10 vhcurveto
          -18 24 45 -36 8 hhcurveto
          15 14 16 14 hvcurveto
          180 hmoveto
          7 -6 7 -7 6 vhcurveto
          32 -39 -45 36 -11 hhcurveto
          -19 -3 -8 -13 -12 vvcurveto
          -13 17 -13 13 -10 vhcurveto
          -18 23 46 -36 7 hhcurveto
          15 14 16 14 hvcurveto
          endchar
        </CharString>
        <CharString name="dblverticalbar">
          128 callsubr
          128 54 162 54 vstem
          182 -46 rmoveto
          56 callgsubr
          216 hmoveto
          56 callgsubr
          endchar
        </CharString>
        <CharString name="dcaron">
          71 -6 44 -38 131 callgsubr
          35 -21 121 44 hstemhm
          46 52 317 52 46 68 hintmask 01101110
          -12 callsubr
          hintmask 10000010
          79 callsubr
          hintmask 10111111
          38 callgsubr
          166 290 -99 callsubr
        </CharString>
        <CharString name="dcroat">
          71 -6 44 -38 131 callgsubr
          41 45 49 44 hstemhm
          46 52 111 52 154 52 hintmask 01111111
          564 -80 callgsubr
          -65 429 70 183 callgsubr
          -70 60 hlineto
          -18 callgsubr
          -85 -45 callsubr
          176 callsubr
          -49 -184 hlineto
          -12 -10 -10 -12 -13 10 -10 12 hvcurveto
          184 -105 hlineto
          49 -56 -47 15 -45 hhcurveto
          -121 -100 -97 -123 hvcurveto
          hintmask 10000001
          -121 95 -97 115 70 48 36 27 25 vhcurveto
          16 -7 rlineto
          -17 vlineto
          hintmask 01000000
          37 callsubr
          hintmask 10100111
          38 callgsubr
          endchar
        </CharString>
        <CharString name="ddotbelow">
          71 99 callsubr
          118 callsubr
          151 85 81 52 hintmask 00111101
          -12 callsubr
          hintmask 01000001
          73 callgsubr
          hintmask 00100000
          37 callsubr
          hintmask 01010101
          38 callgsubr
          hintmask 10000010
          -81 -426 -102 callsubr
        </CharString>
        <CharString name="degree">
          -118 363 41 138 42 hstem
          88 168 callsubr
          vstem
          310 474 rmoveto
          62 -53 48 -62 67 callgsubr
        </CharString>
        <CharString name="diameter">
          305 -34 54 572 54 hstem
          68 54 572 54 vstem
          759 631 rmoveto
          14 -12 12 -14 -8 -6 -3 -4 -6 vhcurveto
          -84 -86 rlineto
          54 -66 -74 28 -81 hhcurveto
          -188 -152 -152 -188 -81 28 -74 54 -66 hvcurveto
          -86 -84 rlineto
          -4 -6 -3 -6 -8 vvcurveto
          -14 12 -12 14 8 6 3 5 6 vhcurveto
          84 85 rlineto
          -54 66 74 -28 81 hhcurveto
          188 152 152 188 81 -28 74 -54 66 hvcurveto
          86 84 rlineto
          4 6 3 6 8 vvcurveto
          -65 -325 rmoveto
          -159 -127 -127 -159 -66 -60 22 44 -57 vhcurveto
          403 403 rlineto
          44 -57 22 -60 -66 vvcurveto
          -103 220 rmoveto
          -403 -403 rlineto
          -44 57 -22 60 66 vvcurveto
          159 127 127 159 66 60 -22 -44 57 vhcurveto
          endchar
        </CharString>
        <CharString name="died">
          13 3 -21 323 47 195 -20 hstem
          235 54 vstem
          493 330 rmoveto
          20 -16 2 -14 vhcurveto
          -174 170 hlineto
          21 -14 4 -14 -22 -4 -14 -16 vhcurveto
          -165 -174 vlineto
          -14 -16 -2 -20 -14 8 -11 17 hvcurveto
          179 -290 hlineto
          -18 2 -15 27 25 0 20 14 vhcurveto
          289 179 vlineto
          16 9 10 15 hvcurveto
          endchar
        </CharString>
        <CharString name="dieresis">
          13 514 74 hstem
          139 76 96 76 vstem
          -26 callsubr
          endchar
        </CharString>
        <CharString name="dieresis.cap">
          13 462 74 hstem
          124 141 callsubr
          vstem
          20 callgsubr
          endchar
        </CharString>
        <CharString name="dieresis.dup">
          13 514 74 hstem
          139 76 96 76 vstem
          -26 callsubr
          endchar
        </CharString>
        <CharString name="dieresis.ts1">
          13 529 84 hstem
          408 571 rmoveto
          19 -15 23 -24 vhcurveto
          -3 -2 -1 -3 hhcurveto
          -24 -3 -12 -20 -18 vvcurveto
          -17 12 -25 27 24 20 16 26 vhcurveto
          -209 hmoveto
          18 -15 24 -25 -3 -5 -1 0 vhcurveto
          -21 -4 -14 -16 -21 vvcurveto
          -19 14 -23 25 27 17 20 22 vhcurveto
          endchar
        </CharString>
        <CharString name="discount">
          13 11 136 -125 -21 550 136 11 -20 hstemhm
          107 136 38 136 hintmask 01010000
          463 668 rmoveto
          2 vlineto
          15 -12 12 -14 1 vhcurveto
          -6 -1 -8 -2 -7 -6 -5 -9 rlinecurve
          -65 -118 -230 -426 -38 -68 rlineto
          -6 -12 -11 -21 -7 vvcurveto
          -15 12 -12 15 vhcurveto
          2 hlineto
          14 1 9 16 8 13 327 604 rcurveline
          5 10 8 15 2 8 rrcurveto
          -220 -50 rmoveto
          hintmask 10101100
          40 -29 29 -47 vhcurveto
          -32 -7 -28 -23 -37 vvcurveto
          -40 30 -29 47 vhcurveto
          32 8 27 23 36 vvcurveto
          174 -540 rmoveto
          40 -30 29 -47 vhcurveto
          -32 -7 -27 -23 -37 vvcurveto
          -40 29 -29 47 vhcurveto
          32 8 28 23 36 vvcurveto
          endchar
        </CharString>
        <CharString name="divide">
          305 84 85 110 54 110 85 hstem
          366 84 cntrmask 11100000
          87 callsubr
          -309 179 81 callgsubr
          -358 vmoveto
          23 -18 19 -24 -24 -18 -19 -23 -24 18 -19 24 24 18 19 24 vhcurveto
          endchar
        </CharString>
        <CharString name="divorced">
          13 -46 -21 161 49 327 49 -49 50 161 -20 hstemhm
          -213 48 267 52 81 54 81 53 265 48 hintmask 0110011000000000
          154 308 rmoveto
          104 -72 107 -117 -110 -68 -111 -102 -104 71 -108 115 111 70 113 101 vhcurveto
          582 -2 rmoveto
          hintmask 1101111111000000
          100 -70 114 -109 -112 -75 -112 -103 -105 79 -106 109 109 69 113 99 vhcurveto
          -447 -340 rmoveto
          686 vlineto
          19 -11 10 -17 -20 -6 -10 -25 vhcurveto
          -686 vlineto
          -21 11 -6 14 29 91 callgsubr
          -187 339 rmoveto
          -76 -50 -86 -83 -85 -49 99 67 77 50 84 84 84 49 -85 -80 vhcurveto
          586 1 rmoveto
          -62 -47 -101 -86 -84 -48 89 76 74 49 88 83 81 52 -88 -76 vhcurveto
          endchar
        </CharString>
        <CharString name="dlinebelow">
          71 -173 46 121 118 callsubr
          317 52 hintmask 00111110
          -12 callsubr
          hintmask 01000010
          73 callgsubr
          hintmask 00100000
          37 callsubr
          hintmask 01010110
          38 callgsubr
          hintmask 10000000
          62 -413 -89 callgsubr
        </CharString>
        <CharString name="dollar">
          13 -65 -21 783 -20 hstemhm
          61 47 -47 73 106 45 105 73 -47 47 hintmask 01101100
          463 167 rmoveto
          48 -28 97 -150 28 vhcurveto
          232 vlineto
          47 -6 55 -16 20 -63 rrcurveto
          -13 -10 -4 -10 -11 vvcurveto
          -18 14 -18 22 17 20 11 31 75 -55 69 -123 11 vhcurveto
          47 vlineto
          12 0 21 -22 -23 0 -21 -12 vhcurveto
          -48 vlineto
          -116 -14 -63 -73 -73 vvcurveto
          -23 7 -105 172 -32 vhcurveto
          -257 vlineto
          -60 8 -45 25 -19 63 rrcurveto
          hintmask 10011010
          11 7 7 6 19 vvcurveto
          23 -19 14 -17 -7 -30 -4 -38 -82 57 -74 122 -12 vhcurveto
          -47 vlineto
          -12 0 -21 23 22 0 21 12 vhcurveto
          48 vlineto
          127 19 51 84 69 vvcurveto
          -223 183 rmoveto
          hintmask 00101010
          -74 13 -58 41 57 vvcurveto
          53 53 46 79 12 vhcurveto
          176 -409 rmoveto
          -57 -50 -52 -81 -15 vhcurveto
          247 vlineto
          84 -16 47 -51 -56 vvcurveto
          endchar
        </CharString>
        <CharString name="dollar.oldstyle">
          129 570 45 -41 41 -41 45 hstemhm
          59 49 116 45 0 48 54 46 117 48 cntrmask 11100000
          hintmask 11100111
          582 163 rmoveto
          89 -84 57 -81 16 vhcurveto
          241 vlineto
          46 -9 53 -26 5 -34 rrcurveto
          -15 -12 -9 -16 vvcurveto
          -21 16 -15 24 25 8 25 18 90 -79 46 -86 15 vhcurveto
          53 vlineto
          16 -4 14 -19 -18 -5 -16 -16 vhcurveto
          -49 vlineto
          2 -24 -13 0 -17 hhcurveto
          -10 -17 -1 -4 -21 hvcurveto
          51 vlineto
          1 17 -2 15 -25 1 rrcurveto
          hintmask 11111011
          -17 -7 -2 -12 -15 vvcurveto
          -56 vlineto
          -100 -24 -65 -55 -66 vvcurveto
          -88 85 -44 80 -19 vhcurveto
          -264 vlineto
          -50 16 -52 28 -3 38 rrcurveto
          11 13 10 16 vvcurveto
          21 -17 16 -21 -24 -11 -21 -22 -94 80 -51 85 -13 vhcurveto
          -62 vlineto
          -15 9 -10 14 19 3 15 16 vhcurveto
          52 vlineto
          0 30 -3 20 20 32 3 0 vhcurveto
          -53 vlineto
          -14 10 -16 14 15 7 11 18 vhcurveto
          59 vlineto
          111 37 54 56 66 vvcurveto
          -211 173 rmoveto
          -102 23 rlineto
          211 vlineto
          0 30 4 20 20 32 -2 0 vhcurveto
          163 -410 rmoveto
          -57 -62 -31 -55 -23 vhcurveto
          218 vlineto
          56 -14 61 -40 -53 vvcurveto
          -310 204 rmoveto
          -53 19 -63 24 54 vvcurveto
          48 60 35 56 15 vhcurveto
          147 -520 rmoveto
          0 -32 -4 -20 -20 -30 4 0 vhcurveto
          261 vlineto
          102 -20 rlineto
          endchar
        </CharString>
        <CharString name="dong">
          71 -64 45 0 45 0 41 -35 41 327 41 40 42 47 41 hstemhm
          44 48 302 48 hintmask 0101111110000000
          535 52 rmoveto
          21 -18 0 -12 vhcurveto
          -63 408 67 hlineto
          13 9 9 12 11 -9 10 -13 hvcurveto
          -67 57 hlineto
          24 -3 7 -26 vhcurveto
          -81 hlineto
          -11 -19 0 -20 -21 18 -52 callsubr
          62 -47 -175 hlineto
          -12 -9 -10 -11 -12 9 -9 12 hvcurveto
          175 -102 hlineto
          47 -54 -45 15 -41 hhcurveto
          -116 -94 -92 -116 -115 90 -92 109 66 45 34 26 24 hvcurveto
          16 -7 rlineto
          -16 vlineto
          -24 5 -7 25 vhcurveto
          81 hlineto
          11 19 0 20 hvcurveto
          -93 vmoveto
          12 -10 10 -12 vhcurveto
          -447 hlineto
          -12 -10 -10 -12 hvcurveto
          hintmask 1010100110000000
          -13 10 -10 12 vhcurveto
          447 hlineto
          12 10 10 13 hvcurveto
          -141 256 rmoveto
          -62 -57 -86 -89 -87 -69 75 91 94 78 73 88 74 62 -59 -62 vhcurveto
          endchar
        </CharString>
        <CharString name="dotaccent">
          -220 509 84 166 callgsubr
          551 -102 callsubr
        </CharString>
        <CharString name="dotaccent.alt">
          -220 485 85 166 callgsubr
          528 rmoveto
          22 -19 20 -23 -18 callsubr
          -23 19 -20 23 26 17 21 22 vhcurveto
          endchar
        </CharString>
        <CharString name="dotaccent.cap">
          -220 462 84 166 callgsubr
          504 -102 callsubr
        </CharString>
        <CharString name="dotlessi">
          -220 36 callgsubr
          hstem
          119 53 vstem
          -90 callsubr
          endchar
        </CharString>
        <CharString name="dotlessj">
          -191 65 callsubr
          hstem
          -43 73 119 52 vstem
          -57 callgsubr
          endchar
        </CharString>
        <CharString name="e">
          1 callgsubr
          hstem
          -104 callsubr
          endchar
        </CharString>
        <CharString name="eacute">
          1 callgsubr
          77 27 callgsubr
          hintmask 11100000
          -104 callsubr
          hintmask 00011000
          -46 344 -107 callgsubr
        </CharString>
        <CharString name="ebreve">
          1 callgsubr
          67 168 callgsubr
          hintmask 11100000
          -104 callsubr
          hintmask 00011000
          26 337 -105 callgsubr
          endchar
        </CharString>
        <CharString name="ecaron">
          1 callgsubr
          176 -20 -26 callgsubr
          -3 350 -95 callgsubr
        </CharString>
        <CharString name="ecircumflex">
          1 callgsubr
          78 -21 -26 callgsubr
          -3 273 -99 callgsubr
          endchar
        </CharString>
        <CharString name="ecircumflexacute">
          1 callgsubr
          78 -21 226 -20 hstemhm
          hintmask 11100000
          -104 callsubr
          hintmask 00011000
          -4 274 -91 callsubr
        </CharString>
        <CharString name="ecircumflexdotbelow">
          -45 99 callsubr
          44 159 43 151 44 78 -21 hstemhm
          191 85 hintmask 01111000
          -104 callsubr
          -3 273 -99 callgsubr
          hintmask 10000100
          -101 -677 -102 callsubr
        </CharString>
        <CharString name="ecircumflexgrave">
          1 callgsubr
          78 -21 -26 callgsubr
          -4 274 -91 callgsubr
        </CharString>
        <CharString name="ecircumflexhookabove">
          1 callgsubr
          78 172 callsubr
          234 97 callgsubr
          hintmask 1110000000100000
          -104 callsubr
          hintmask 0001001001000000
          -4 274 rmoveto
          8 -4 8 -9 3 vhcurveto
          -122 44 -4 1 -6 0 -4 -1 rlinecurve
          -122 -44 rlineto
          -9 -3 -4 -8 -8 vvcurveto
          -11 8 -11 11 3 2 0 1 3 vhcurveto
          115 35 115 -35 rlineto
          hintmask 0001011010100000
          -1 3 2 0 3 hhcurveto
          11 8 11 11 hvcurveto
          41 209 -75 callgsubr
          hintmask 0000100100000000
          68 callsubr
          hintmask 0000100010000000
          122 callgsubr
          hintmask 0000100101000000
          24 callsubr
          hintmask 0000000000100000
          18 9 13 19 22 vvcurveto
          endchar
        </CharString>
        <CharString name="ecircumflextilde">
          1 callgsubr
          78 164 callgsubr
          hintmask 1110000000000000
          -104 callsubr
          hintmask 0001100010000000
          -4 274 -75 callsubr
        </CharString>
        <CharString name="edblgrave">
          1 callgsubr
          78 -21 118 -20 hstemhm
          hintmask 11100000
          -104 callsubr
          hintmask 00011000
          13 281 -103 callsubr
        </CharString>
        <CharString name="edieresis">
          1 callgsubr
          79 74 hstemhm
          110 76 96 76 hintmask 11100000
          -104 callsubr
          hintmask 00011100
          -194 311 -48 callgsubr
        </CharString>
        <CharString name="edotaccent">
          1 callgsubr
          74 84 hstemhm
          191 85 hintmask 11100000
          -104 callsubr
          hintmask 00011000
          -104 311 -102 callsubr
        </CharString>
        <CharString name="edotbelow">
          -45 99 callsubr
          44 159 43 151 44 hstemhm
          191 85 hintmask 01110000
          -104 callsubr
          hintmask 10001000
          -104 -404 -102 callsubr
        </CharString>
        <CharString name="egrave">
          1 callgsubr
          77 27 callgsubr
          hintmask 11100000
          -104 callsubr
          hintmask 00011000
          -47 283 -102 callgsubr
        </CharString>
        <CharString name="ehookabove">
          1 callgsubr
          8 62 callgsubr
          142 61 callsubr
          hintmask 11100000
          -104 callsubr
          hintmask 00011111
          -55 348 -103 callgsubr
        </CharString>
        <CharString name="eight">
          13 -11 44 273 48 224 44 hstemhm
          47 107 callgsubr
          477 -59 callgsubr
        </CharString>
        <CharString name="eight.oldstyle">
          80 -11 44 273 48 224 44 hstemhm
          81 107 callgsubr
          511 -59 callgsubr
        </CharString>
        <CharString name="eight.prop">
          80 -11 44 273 48 224 44 hstemhm
          81 107 callgsubr
          511 -59 callgsubr
        </CharString>
        <CharString name="eight.taboldstyle">
          13 -11 44 273 48 224 44 hstemhm
          47 107 callgsubr
          477 -59 callgsubr
        </CharString>
        <CharString name="ellipsis">
          168 0 84 hstem
          98 84 116 84 116 84 cntrmask 01110000
          182 126 callgsubr
          200 hmoveto
          17 callgsubr
          200 hmoveto
          78 callgsubr
        </CharString>
</ttFont>
